<svg width="594" height="369" viewBox="0 0 594 369" fill="none" xmlns="http://www.w3.org/2000/svg">
<path d="M483.109 365V355.78H480.969V354.28H483.109V353.32C483.109 352.573 483.275 351.947 483.609 351.44C483.942 350.92 484.382 350.527 484.929 350.26C485.475 349.993 486.062 349.86 486.689 349.86C486.822 349.86 486.975 349.873 487.149 349.9C487.322 349.913 487.462 349.933 487.569 349.96V351.32C487.475 351.293 487.349 351.28 487.189 351.28C487.029 351.267 486.915 351.26 486.849 351.26C486.209 351.26 485.675 351.413 485.249 351.72C484.822 352.027 484.609 352.56 484.609 353.32V354.28H487.229V355.78H484.609V365H483.109ZM494.135 365.24C493.135 365.24 492.228 365 491.415 364.52C490.615 364.027 489.982 363.353 489.515 362.5C489.048 361.647 488.815 360.68 488.815 359.6C488.815 358.52 489.042 357.567 489.495 356.74C489.948 355.9 490.562 355.24 491.335 354.76C492.122 354.28 493.002 354.04 493.975 354.04C494.748 354.04 495.435 354.187 496.035 354.48C496.648 354.76 497.168 355.147 497.595 355.64C498.022 356.12 498.348 356.667 498.575 357.28C498.802 357.88 498.915 358.5 498.915 359.14C498.915 359.273 498.908 359.427 498.895 359.6C498.882 359.76 498.862 359.927 498.835 360.1H489.775V358.7H497.975L497.255 359.3C497.375 358.567 497.288 357.913 496.995 357.34C496.715 356.753 496.308 356.293 495.775 355.96C495.242 355.613 494.642 355.44 493.975 355.44C493.308 355.44 492.688 355.613 492.115 355.96C491.555 356.307 491.115 356.793 490.795 357.42C490.475 358.033 490.348 358.767 490.415 359.62C490.348 360.473 490.482 361.22 490.815 361.86C491.162 362.487 491.628 362.973 492.215 363.32C492.815 363.667 493.455 363.84 494.135 363.84C494.922 363.84 495.582 363.653 496.115 363.28C496.648 362.907 497.082 362.44 497.415 361.88L498.695 362.56C498.482 363.04 498.155 363.487 497.715 363.9C497.275 364.3 496.748 364.627 496.135 364.88C495.535 365.12 494.868 365.24 494.135 365.24ZM504.464 365.24C503.784 365.24 503.178 365.113 502.644 364.86C502.111 364.593 501.691 364.233 501.384 363.78C501.078 363.327 500.924 362.807 500.924 362.22C500.924 361.66 501.044 361.153 501.284 360.7C501.524 360.233 501.898 359.84 502.404 359.52C502.911 359.2 503.558 358.973 504.344 358.84L508.544 358.14V359.5L504.704 360.14C503.931 360.273 503.371 360.52 503.024 360.88C502.691 361.24 502.524 361.667 502.524 362.16C502.524 362.64 502.711 363.047 503.084 363.38C503.471 363.713 503.964 363.88 504.564 363.88C505.298 363.88 505.938 363.727 506.484 363.42C507.031 363.1 507.458 362.673 507.764 362.14C508.071 361.607 508.224 361.013 508.224 360.36V357.64C508.224 357 507.991 356.48 507.524 356.08C507.058 355.68 506.451 355.48 505.704 355.48C505.051 355.48 504.478 355.647 503.984 355.98C503.491 356.3 503.124 356.72 502.884 357.24L501.524 356.5C501.724 356.047 502.038 355.633 502.464 355.26C502.904 354.887 503.404 354.593 503.964 354.38C504.524 354.153 505.104 354.04 505.704 354.04C506.491 354.04 507.184 354.193 507.784 354.5C508.398 354.807 508.871 355.233 509.204 355.78C509.551 356.313 509.724 356.933 509.724 357.64V365H508.224V362.86L508.444 363.08C508.258 363.48 507.964 363.847 507.564 364.18C507.178 364.5 506.718 364.76 506.184 364.96C505.664 365.147 505.091 365.24 504.464 365.24ZM516.714 365.12C515.754 365.12 515.014 364.84 514.494 364.28C513.974 363.72 513.714 362.92 513.714 361.88V355.78H511.734V354.28H512.234C512.688 354.28 513.048 354.133 513.314 353.84C513.581 353.533 513.714 353.153 513.714 352.7V351.8H515.214V354.28H517.574V355.78H515.214V361.88C515.214 362.24 515.268 362.56 515.374 362.84C515.481 363.107 515.661 363.32 515.914 363.48C516.181 363.64 516.534 363.72 516.974 363.72C517.081 363.72 517.208 363.713 517.354 363.7C517.501 363.687 517.628 363.673 517.734 363.66V365C517.574 365.04 517.394 365.067 517.194 365.08C516.994 365.107 516.834 365.12 516.714 365.12ZM524.168 365.24C523.421 365.24 522.741 365.067 522.128 364.72C521.515 364.36 521.028 363.867 520.668 363.24C520.321 362.6 520.148 361.867 520.148 361.04V354.28H521.648V360.86C521.648 361.433 521.761 361.94 521.988 362.38C522.228 362.807 522.555 363.14 522.968 363.38C523.395 363.62 523.881 363.74 524.428 363.74C524.975 363.74 525.461 363.62 525.888 363.38C526.315 363.127 526.648 362.773 526.888 362.32C527.128 361.853 527.248 361.3 527.248 360.66V354.28H528.748V365H527.248V362.92L527.588 363C527.335 363.693 526.901 364.24 526.288 364.64C525.675 365.04 524.968 365.24 524.168 365.24ZM531.833 365V354.28H533.333V356.04L533.133 355.78C533.386 355.273 533.766 354.873 534.273 354.58C534.793 354.287 535.42 354.14 536.153 354.14H536.833V355.64H535.893C535.12 355.64 534.5 355.88 534.033 356.36C533.566 356.84 533.333 357.52 533.333 358.4V365H531.833ZM543.471 365.24C542.471 365.24 541.564 365 540.751 364.52C539.951 364.027 539.317 363.353 538.851 362.5C538.384 361.647 538.151 360.68 538.151 359.6C538.151 358.52 538.377 357.567 538.831 356.74C539.284 355.9 539.897 355.24 540.671 354.76C541.457 354.28 542.337 354.04 543.311 354.04C544.084 354.04 544.771 354.187 545.371 354.48C545.984 354.76 546.504 355.147 546.931 355.64C547.357 356.12 547.684 356.667 547.911 357.28C548.137 357.88 548.251 358.5 548.251 359.14C548.251 359.273 548.244 359.427 548.231 359.6C548.217 359.76 548.197 359.927 548.171 360.1H539.111V358.7H547.311L546.591 359.3C546.711 358.567 546.624 357.913 546.331 357.34C546.051 356.753 545.644 356.293 545.111 355.96C544.577 355.613 543.977 355.44 543.311 355.44C542.644 355.44 542.024 355.613 541.451 355.96C540.891 356.307 540.451 356.793 540.131 357.42C539.811 358.033 539.684 358.767 539.751 359.62C539.684 360.473 539.817 361.22 540.151 361.86C540.497 362.487 540.964 362.973 541.551 363.32C542.151 363.667 542.791 363.84 543.471 363.84C544.257 363.84 544.917 363.653 545.451 363.28C545.984 362.907 546.417 362.44 546.751 361.88L548.031 362.56C547.817 363.04 547.491 363.487 547.051 363.9C546.611 364.3 546.084 364.627 545.471 364.88C544.871 365.12 544.204 365.24 543.471 365.24ZM554.615 365.24C553.589 365.24 552.689 364.98 551.915 364.46C551.142 363.94 550.582 363.233 550.235 362.34L551.495 361.74C551.802 362.393 552.229 362.913 552.775 363.3C553.335 363.687 553.949 363.88 554.615 363.88C555.255 363.88 555.795 363.727 556.235 363.42C556.675 363.1 556.895 362.687 556.895 362.18C556.895 361.807 556.789 361.513 556.575 361.3C556.362 361.073 556.115 360.9 555.835 360.78C555.555 360.66 555.309 360.573 555.095 360.52L553.555 360.08C552.569 359.8 551.855 359.407 551.415 358.9C550.975 358.393 550.755 357.807 550.755 357.14C550.755 356.513 550.915 355.967 551.235 355.5C551.555 355.033 551.989 354.673 552.535 354.42C553.082 354.167 553.689 354.04 554.355 354.04C555.262 354.04 556.082 354.28 556.815 354.76C557.562 355.227 558.089 355.88 558.395 356.72L557.115 357.32C556.849 356.72 556.462 356.253 555.955 355.92C555.462 355.573 554.909 355.4 554.295 355.4C553.695 355.4 553.215 355.553 552.855 355.86C552.495 356.167 552.315 356.553 552.315 357.02C552.315 357.38 552.409 357.667 552.595 357.88C552.782 358.093 552.995 358.253 553.235 358.36C553.489 358.467 553.709 358.547 553.895 358.6L555.675 359.12C556.542 359.373 557.215 359.767 557.695 360.3C558.189 360.833 558.435 361.46 558.435 362.18C558.435 362.767 558.269 363.293 557.935 363.76C557.615 364.227 557.169 364.593 556.595 364.86C556.022 365.113 555.362 365.24 554.615 365.24Z" fill="#D6D6D6"/>
<path d="M21.8326 21.24C20.7792 21.24 19.8526 20.9933 19.0526 20.5C18.2526 20.0067 17.6259 19.34 17.1726 18.5C16.7192 17.6467 16.4926 16.6867 16.4926 15.62C16.4926 14.5533 16.7192 13.6 17.1726 12.76C17.6259 11.92 18.2526 11.26 19.0526 10.78C19.8526 10.2867 20.7792 10.04 21.8326 10.04C22.4992 10.04 23.1259 10.16 23.7126 10.4C24.2992 10.64 24.8192 10.9667 25.2726 11.38C25.7259 11.78 26.0659 12.2467 26.2926 12.78L24.9326 13.48C24.6659 12.9067 24.2592 12.44 23.7126 12.08C23.1659 11.72 22.5392 11.54 21.8326 11.54C21.1259 11.54 20.4859 11.72 19.9126 12.08C19.3526 12.4267 18.9059 12.9133 18.5726 13.54C18.2526 14.1533 18.0926 14.8533 18.0926 15.64C18.0926 16.4133 18.2526 17.1133 18.5726 17.74C18.9059 18.3533 19.3526 18.84 19.9126 19.2C20.4859 19.56 21.1259 19.74 21.8326 19.74C22.5392 19.74 23.1592 19.56 23.6926 19.2C24.2392 18.84 24.6526 18.36 24.9326 17.76L26.2926 18.5C26.0659 19.02 25.7259 19.4867 25.2726 19.9C24.8192 20.3133 24.2992 20.64 23.7126 20.88C23.1259 21.12 22.4992 21.24 21.8326 21.24ZM33.9448 21.24C32.9314 21.24 32.0114 21 31.1848 20.52C30.3581 20.0267 29.6981 19.36 29.2048 18.52C28.7248 17.6667 28.4848 16.7 28.4848 15.62C28.4848 14.5533 28.7248 13.6 29.2048 12.76C29.6848 11.92 30.3314 11.26 31.1448 10.78C31.9714 10.2867 32.9048 10.04 33.9448 10.04C34.9848 10.04 35.9114 10.28 36.7248 10.76C37.5514 11.24 38.1981 11.9 38.6648 12.74C39.1448 13.58 39.3848 14.54 39.3848 15.62C39.3848 16.7133 39.1381 17.6867 38.6448 18.54C38.1514 19.38 37.4914 20.04 36.6648 20.52C35.8514 21 34.9448 21.24 33.9448 21.24ZM33.9448 19.74C34.6648 19.74 35.3114 19.56 35.8848 19.2C36.4714 18.84 36.9314 18.3467 37.2648 17.72C37.6114 17.0933 37.7848 16.3933 37.7848 15.62C37.7848 14.8467 37.6114 14.1533 37.2648 13.54C36.9314 12.9267 36.4714 12.44 35.8848 12.08C35.3114 11.72 34.6648 11.54 33.9448 11.54C33.2248 11.54 32.5714 11.72 31.9848 12.08C31.4114 12.44 30.9514 12.9267 30.6048 13.54C30.2581 14.1533 30.0848 14.8467 30.0848 15.62C30.0848 16.3933 30.2581 17.0933 30.6048 17.72C30.9514 18.3467 31.4114 18.84 31.9848 19.2C32.5714 19.56 33.2248 19.74 33.9448 19.74ZM46.8702 21.24C45.8702 21.24 44.9702 21 44.1702 20.52C43.3702 20.0267 42.7369 19.36 42.2702 18.52C41.8169 17.6667 41.5902 16.7067 41.5902 15.64C41.5902 14.56 41.8169 13.6 42.2702 12.76C42.7369 11.92 43.3636 11.26 44.1502 10.78C44.9502 10.2867 45.8569 10.04 46.8702 10.04C47.7902 10.04 48.6102 10.24 49.3302 10.64C50.0502 11.04 50.6169 11.58 51.0302 12.26L50.7902 12.68V5.86H52.2902V21H50.7902V18.6L51.0302 18.82C50.6569 19.5933 50.0969 20.1933 49.3502 20.62C48.6169 21.0333 47.7902 21.24 46.8702 21.24ZM46.9502 19.74C47.6702 19.74 48.3169 19.56 48.8902 19.2C49.4769 18.84 49.9369 18.3533 50.2702 17.74C50.6169 17.1133 50.7902 16.4133 50.7902 15.64C50.7902 14.8667 50.6169 14.1733 50.2702 13.56C49.9369 12.9333 49.4769 12.44 48.8902 12.08C48.3169 11.72 47.6702 11.54 46.9502 11.54C46.2436 11.54 45.6036 11.72 45.0302 12.08C44.4569 12.44 44.0036 12.9267 43.6702 13.54C43.3502 14.1533 43.1902 14.8533 43.1902 15.64C43.1902 16.4133 43.3502 17.1133 43.6702 17.74C44.0036 18.3533 44.4502 18.84 45.0102 19.2C45.5836 19.56 46.2302 19.74 46.9502 19.74ZM60.2501 21.24C59.2501 21.24 58.3434 21 57.5301 20.52C56.7301 20.0267 56.0967 19.3533 55.6301 18.5C55.1634 17.6467 54.9301 16.68 54.9301 15.6C54.9301 14.52 55.1567 13.5667 55.6101 12.74C56.0634 11.9 56.6767 11.24 57.4501 10.76C58.2367 10.28 59.1167 10.04 60.0901 10.04C60.8634 10.04 61.5501 10.1867 62.1501 10.48C62.7634 10.76 63.2834 11.1467 63.7101 11.64C64.1367 12.12 64.4634 12.6667 64.6901 13.28C64.9167 13.88 65.0301 14.5 65.0301 15.14C65.0301 15.2733 65.0234 15.4267 65.0101 15.6C64.9967 15.76 64.9767 15.9267 64.9501 16.1H55.8901V14.7H64.0901L63.3701 15.3C63.4901 14.5667 63.4034 13.9133 63.1101 13.34C62.8301 12.7533 62.4234 12.2933 61.8901 11.96C61.3567 11.6133 60.7567 11.44 60.0901 11.44C59.4234 11.44 58.8034 11.6133 58.2301 11.96C57.6701 12.3067 57.2301 12.7933 56.9101 13.42C56.5901 14.0333 56.4634 14.7667 56.5301 15.62C56.4634 16.4733 56.5967 17.22 56.9301 17.86C57.2767 18.4867 57.7434 18.9733 58.3301 19.32C58.9301 19.6667 59.5701 19.84 60.2501 19.84C61.0367 19.84 61.6967 19.6533 62.2301 19.28C62.7634 18.9067 63.1967 18.44 63.5301 17.88L64.8101 18.56C64.5967 19.04 64.2701 19.4867 63.8301 19.9C63.3901 20.3 62.8634 20.6267 62.2501 20.88C61.6501 21.12 60.9834 21.24 60.2501 21.24ZM75.9732 21.24C74.9199 21.24 73.9932 20.9933 73.1932 20.5C72.3932 20.0067 71.7665 19.34 71.3132 18.5C70.8599 17.6467 70.6332 16.6867 70.6332 15.62C70.6332 14.5533 70.8599 13.6 71.3132 12.76C71.7665 11.92 72.3932 11.26 73.1932 10.78C73.9932 10.2867 74.9199 10.04 75.9732 10.04C76.6399 10.04 77.2665 10.16 77.8532 10.4C78.4399 10.64 78.9599 10.9667 79.4132 11.38C79.8665 11.78 80.2065 12.2467 80.4332 12.78L79.0732 13.48C78.8065 12.9067 78.3999 12.44 77.8532 12.08C77.3065 11.72 76.6799 11.54 75.9732 11.54C75.2665 11.54 74.6265 11.72 74.0532 12.08C73.4932 12.4267 73.0465 12.9133 72.7132 13.54C72.3932 14.1533 72.2332 14.8533 72.2332 15.64C72.2332 16.4133 72.3932 17.1133 72.7132 17.74C73.0465 18.3533 73.4932 18.84 74.0532 19.2C74.6265 19.56 75.2665 19.74 75.9732 19.74C76.6799 19.74 77.2999 19.56 77.8332 19.2C78.3799 18.84 78.7932 18.36 79.0732 17.76L80.4332 18.5C80.2065 19.02 79.8665 19.4867 79.4132 19.9C78.9599 20.3133 78.4399 20.64 77.8532 20.88C77.2665 21.12 76.6399 21.24 75.9732 21.24ZM88.0854 21.24C87.0721 21.24 86.1521 21 85.3254 20.52C84.4987 20.0267 83.8387 19.36 83.3454 18.52C82.8654 17.6667 82.6254 16.7 82.6254 15.62C82.6254 14.5533 82.8654 13.6 83.3454 12.76C83.8254 11.92 84.4721 11.26 85.2854 10.78C86.1121 10.2867 87.0454 10.04 88.0854 10.04C89.1254 10.04 90.0521 10.28 90.8654 10.76C91.6921 11.24 92.3387 11.9 92.8054 12.74C93.2854 13.58 93.5254 14.54 93.5254 15.62C93.5254 16.7133 93.2787 17.6867 92.7854 18.54C92.2921 19.38 91.6321 20.04 90.8054 20.52C89.9921 21 89.0854 21.24 88.0854 21.24ZM88.0854 19.74C88.8054 19.74 89.4521 19.56 90.0254 19.2C90.6121 18.84 91.0721 18.3467 91.4054 17.72C91.7521 17.0933 91.9254 16.3933 91.9254 15.62C91.9254 14.8467 91.7521 14.1533 91.4054 13.54C91.0721 12.9267 90.6121 12.44 90.0254 12.08C89.4521 11.72 88.8054 11.54 88.0854 11.54C87.3654 11.54 86.7121 11.72 86.1254 12.08C85.5521 12.44 85.0921 12.9267 84.7454 13.54C84.3987 14.1533 84.2254 14.8467 84.2254 15.62C84.2254 16.3933 84.3987 17.0933 84.7454 17.72C85.0921 18.3467 85.5521 18.84 86.1254 19.2C86.7121 19.56 87.3654 19.74 88.0854 19.74ZM96.1709 21V10.28H97.6709V12.32L97.4309 12.02C97.7242 11.3933 98.1575 10.9067 98.7309 10.56C99.3175 10.2133 99.9575 10.04 100.651 10.04C101.478 10.04 102.224 10.2733 102.891 10.74C103.558 11.2067 104.031 11.8133 104.311 12.56L103.891 12.58C104.158 11.7533 104.618 11.1267 105.271 10.7C105.938 10.26 106.671 10.04 107.471 10.04C108.191 10.04 108.851 10.2133 109.451 10.56C110.064 10.9067 110.551 11.3867 110.911 12C111.284 12.6 111.471 13.28 111.471 14.04V21H109.971V14.62C109.971 13.9667 109.851 13.4133 109.611 12.96C109.384 12.5067 109.071 12.16 108.671 11.92C108.271 11.6667 107.811 11.54 107.291 11.54C106.784 11.54 106.324 11.6667 105.911 11.92C105.498 12.16 105.171 12.5133 104.931 12.98C104.691 13.4333 104.571 13.98 104.571 14.62V21H103.071V14.62C103.071 13.9667 102.951 13.4133 102.711 12.96C102.484 12.5067 102.171 12.16 101.771 11.92C101.371 11.6667 100.911 11.54 100.391 11.54C99.8709 11.54 99.4042 11.6667 98.9909 11.92C98.5909 12.16 98.2709 12.5133 98.0309 12.98C97.7909 13.4333 97.6709 13.98 97.6709 14.62V21H96.1709ZM114.335 25V10.28H115.835V12.68L115.595 12.26C116.022 11.58 116.588 11.04 117.295 10.64C118.015 10.24 118.835 10.04 119.755 10.04C120.768 10.04 121.668 10.2867 122.455 10.78C123.255 11.26 123.882 11.92 124.335 12.76C124.802 13.6 125.035 14.56 125.035 15.64C125.035 16.7067 124.802 17.6667 124.335 18.52C123.882 19.36 123.255 20.0267 122.455 20.52C121.668 21 120.768 21.24 119.755 21.24C118.835 21.24 118.002 21.0333 117.255 20.62C116.522 20.1933 115.968 19.5933 115.595 18.82L115.835 18.6V25H114.335ZM119.675 19.74C120.395 19.74 121.035 19.56 121.595 19.2C122.168 18.84 122.615 18.3533 122.935 17.74C123.268 17.1133 123.435 16.4133 123.435 15.64C123.435 14.8533 123.268 14.1533 122.935 13.54C122.615 12.9267 122.168 12.44 121.595 12.08C121.035 11.72 120.395 11.54 119.675 11.54C118.955 11.54 118.302 11.72 117.715 12.08C117.142 12.44 116.682 12.9333 116.335 13.56C116.002 14.1733 115.835 14.8667 115.835 15.64C115.835 16.4133 116.002 17.1133 116.335 17.74C116.682 18.3533 117.142 18.84 117.715 19.2C118.302 19.56 118.955 19.74 119.675 19.74ZM127.675 21V5.86H129.175V21H127.675ZM137.125 21.24C136.125 21.24 135.218 21 134.405 20.52C133.605 20.0267 132.972 19.3533 132.505 18.5C132.038 17.6467 131.805 16.68 131.805 15.6C131.805 14.52 132.032 13.5667 132.485 12.74C132.938 11.9 133.552 11.24 134.325 10.76C135.112 10.28 135.992 10.04 136.965 10.04C137.738 10.04 138.425 10.1867 139.025 10.48C139.638 10.76 140.158 11.1467 140.585 11.64C141.012 12.12 141.338 12.6667 141.565 13.28C141.792 13.88 141.905 14.5 141.905 15.14C141.905 15.2733 141.898 15.4267 141.885 15.6C141.872 15.76 141.852 15.9267 141.825 16.1H132.765V14.7H140.965L140.245 15.3C140.365 14.5667 140.278 13.9133 139.985 13.34C139.705 12.7533 139.298 12.2933 138.765 11.96C138.232 11.6133 137.632 11.44 136.965 11.44C136.298 11.44 135.678 11.6133 135.105 11.96C134.545 12.3067 134.105 12.7933 133.785 13.42C133.465 14.0333 133.338 14.7667 133.405 15.62C133.338 16.4733 133.472 17.22 133.805 17.86C134.152 18.4867 134.618 18.9733 135.205 19.32C135.805 19.6667 136.445 19.84 137.125 19.84C137.912 19.84 138.572 19.6533 139.105 19.28C139.638 18.9067 140.072 18.44 140.405 17.88L141.685 18.56C141.472 19.04 141.145 19.4867 140.705 19.9C140.265 20.3 139.738 20.6267 139.125 20.88C138.525 21.12 137.858 21.24 137.125 21.24ZM143.034 21L146.794 15.64L143.054 10.28H144.894L148.214 15.1H147.194L150.494 10.28H152.334L148.594 15.64L152.334 21H150.494L147.194 16.18H148.214L144.894 21H143.034ZM154.101 21V10.28H155.601V21H154.101ZM154.101 8.3V6.1H155.601V8.3H154.101ZM162.771 21.12C161.811 21.12 161.071 20.84 160.551 20.28C160.031 19.72 159.771 18.92 159.771 17.88V11.78H157.791V10.28H158.291C158.744 10.28 159.104 10.1333 159.371 9.84C159.638 9.53333 159.771 9.15333 159.771 8.7V7.8H161.271V10.28H163.631V11.78H161.271V17.88C161.271 18.24 161.324 18.56 161.431 18.84C161.538 19.1067 161.718 19.32 161.971 19.48C162.238 19.64 162.591 19.72 163.031 19.72C163.138 19.72 163.264 19.7133 163.411 19.7C163.558 19.6867 163.684 19.6733 163.791 19.66V21C163.631 21.04 163.451 21.0667 163.251 21.08C163.051 21.1067 162.891 21.12 162.771 21.12ZM166.645 25.4C166.431 25.4 166.211 25.38 165.985 25.34C165.771 25.3133 165.558 25.26 165.345 25.18V23.78C165.478 23.7933 165.645 23.8133 165.845 23.84C166.058 23.88 166.271 23.9 166.485 23.9C167.138 23.9 167.638 23.76 167.985 23.48C168.331 23.2133 168.671 22.6933 169.005 21.92L169.685 20.32L169.645 21.64L165.105 10.28H166.725L170.445 19.66H170.025L173.725 10.28H175.385L170.485 22.36C170.271 22.88 169.998 23.3733 169.665 23.84C169.345 24.3067 168.938 24.68 168.445 24.96C167.951 25.2533 167.351 25.4 166.645 25.4Z" fill="#D6D6D6"/>
<line x1="10.5" y1="49" x2="10.5" y2="328" stroke="white"/>
<line x1="594" y1="328.5" y2="328.5" stroke="white"/>
<line x1="10" y1="80.5" y2="80.5" stroke="white"/>
<line x1="10" y1="111.5" y2="111.5" stroke="white"/>
<line x1="10" y1="142.5" y2="142.5" stroke="white"/>
<line x1="10" y1="173.5" y2="173.5" stroke="white"/>
<line x1="10" y1="204.5" y2="204.5" stroke="white"/>
<line x1="10" y1="235.5" y2="235.5" stroke="white"/>
<line x1="10" y1="266.5" y2="266.5" stroke="white"/>
<line x1="10" y1="297.5" y2="297.5" stroke="white"/>
<path d="M48.3257 292.531C48.3257 292.531 198 312.5 287.625 250C336.865 215.663 390.5 72.5002 390.5 72.5002" stroke="#5A41E9" stroke-width="3"/>
</svg>
