<svg width="634" height="369" viewBox="0 0 634 369" fill="none" xmlns="http://www.w3.org/2000/svg">
<path d="M523.109 365V355.78H520.969V354.28H523.109V353.32C523.109 352.573 523.275 351.947 523.609 351.44C523.942 350.92 524.382 350.527 524.929 350.26C525.475 349.993 526.062 349.86 526.689 349.86C526.822 349.86 526.975 349.873 527.149 349.9C527.322 349.913 527.462 349.933 527.569 349.96V351.32C527.475 351.293 527.349 351.28 527.189 351.28C527.029 351.267 526.915 351.26 526.849 351.26C526.209 351.26 525.675 351.413 525.249 351.72C524.822 352.027 524.609 352.56 524.609 353.32V354.28H527.229V355.78H524.609V365H523.109ZM534.135 365.24C533.135 365.24 532.228 365 531.415 364.52C530.615 364.027 529.982 363.353 529.515 362.5C529.048 361.647 528.815 360.68 528.815 359.6C528.815 358.52 529.042 357.567 529.495 356.74C529.948 355.9 530.562 355.24 531.335 354.76C532.122 354.28 533.002 354.04 533.975 354.04C534.748 354.04 535.435 354.187 536.035 354.48C536.648 354.76 537.168 355.147 537.595 355.64C538.022 356.12 538.348 356.667 538.575 357.28C538.802 357.88 538.915 358.5 538.915 359.14C538.915 359.273 538.908 359.427 538.895 359.6C538.882 359.76 538.862 359.927 538.835 360.1H529.775V358.7H537.975L537.255 359.3C537.375 358.567 537.288 357.913 536.995 357.34C536.715 356.753 536.308 356.293 535.775 355.96C535.242 355.613 534.642 355.44 533.975 355.44C533.308 355.44 532.688 355.613 532.115 355.96C531.555 356.307 531.115 356.793 530.795 357.42C530.475 358.033 530.348 358.767 530.415 359.62C530.348 360.473 530.482 361.22 530.815 361.86C531.162 362.487 531.628 362.973 532.215 363.32C532.815 363.667 533.455 363.84 534.135 363.84C534.922 363.84 535.582 363.653 536.115 363.28C536.648 362.907 537.082 362.44 537.415 361.88L538.695 362.56C538.482 363.04 538.155 363.487 537.715 363.9C537.275 364.3 536.748 364.627 536.135 364.88C535.535 365.12 534.868 365.24 534.135 365.24ZM544.464 365.24C543.784 365.24 543.178 365.113 542.644 364.86C542.111 364.593 541.691 364.233 541.384 363.78C541.078 363.327 540.924 362.807 540.924 362.22C540.924 361.66 541.044 361.153 541.284 360.7C541.524 360.233 541.898 359.84 542.404 359.52C542.911 359.2 543.558 358.973 544.344 358.84L548.544 358.14V359.5L544.704 360.14C543.931 360.273 543.371 360.52 543.024 360.88C542.691 361.24 542.524 361.667 542.524 362.16C542.524 362.64 542.711 363.047 543.084 363.38C543.471 363.713 543.964 363.88 544.564 363.88C545.298 363.88 545.938 363.727 546.484 363.42C547.031 363.1 547.458 362.673 547.764 362.14C548.071 361.607 548.224 361.013 548.224 360.36V357.64C548.224 357 547.991 356.48 547.524 356.08C547.058 355.68 546.451 355.48 545.704 355.48C545.051 355.48 544.478 355.647 543.984 355.98C543.491 356.3 543.124 356.72 542.884 357.24L541.524 356.5C541.724 356.047 542.038 355.633 542.464 355.26C542.904 354.887 543.404 354.593 543.964 354.38C544.524 354.153 545.104 354.04 545.704 354.04C546.491 354.04 547.184 354.193 547.784 354.5C548.398 354.807 548.871 355.233 549.204 355.78C549.551 356.313 549.724 356.933 549.724 357.64V365H548.224V362.86L548.444 363.08C548.258 363.48 547.964 363.847 547.564 364.18C547.178 364.5 546.718 364.76 546.184 364.96C545.664 365.147 545.091 365.24 544.464 365.24ZM556.714 365.12C555.754 365.12 555.014 364.84 554.494 364.28C553.974 363.72 553.714 362.92 553.714 361.88V355.78H551.734V354.28H552.234C552.688 354.28 553.048 354.133 553.314 353.84C553.581 353.533 553.714 353.153 553.714 352.7V351.8H555.214V354.28H557.574V355.78H555.214V361.88C555.214 362.24 555.268 362.56 555.374 362.84C555.481 363.107 555.661 363.32 555.914 363.48C556.181 363.64 556.534 363.72 556.974 363.72C557.081 363.72 557.208 363.713 557.354 363.7C557.501 363.687 557.628 363.673 557.734 363.66V365C557.574 365.04 557.394 365.067 557.194 365.08C556.994 365.107 556.834 365.12 556.714 365.12ZM564.168 365.24C563.421 365.24 562.741 365.067 562.128 364.72C561.515 364.36 561.028 363.867 560.668 363.24C560.321 362.6 560.148 361.867 560.148 361.04V354.28H561.648V360.86C561.648 361.433 561.761 361.94 561.988 362.38C562.228 362.807 562.555 363.14 562.968 363.38C563.395 363.62 563.881 363.74 564.428 363.74C564.975 363.74 565.461 363.62 565.888 363.38C566.315 363.127 566.648 362.773 566.888 362.32C567.128 361.853 567.248 361.3 567.248 360.66V354.28H568.748V365H567.248V362.92L567.588 363C567.335 363.693 566.901 364.24 566.288 364.64C565.675 365.04 564.968 365.24 564.168 365.24ZM571.833 365V354.28H573.333V356.04L573.133 355.78C573.386 355.273 573.766 354.873 574.273 354.58C574.793 354.287 575.42 354.14 576.153 354.14H576.833V355.64H575.893C575.12 355.64 574.5 355.88 574.033 356.36C573.566 356.84 573.333 357.52 573.333 358.4V365H571.833ZM583.471 365.24C582.471 365.24 581.564 365 580.751 364.52C579.951 364.027 579.317 363.353 578.851 362.5C578.384 361.647 578.151 360.68 578.151 359.6C578.151 358.52 578.377 357.567 578.831 356.74C579.284 355.9 579.897 355.24 580.671 354.76C581.457 354.28 582.337 354.04 583.311 354.04C584.084 354.04 584.771 354.187 585.371 354.48C585.984 354.76 586.504 355.147 586.931 355.64C587.357 356.12 587.684 356.667 587.911 357.28C588.137 357.88 588.251 358.5 588.251 359.14C588.251 359.273 588.244 359.427 588.231 359.6C588.217 359.76 588.197 359.927 588.171 360.1H579.111V358.7H587.311L586.591 359.3C586.711 358.567 586.624 357.913 586.331 357.34C586.051 356.753 585.644 356.293 585.111 355.96C584.577 355.613 583.977 355.44 583.311 355.44C582.644 355.44 582.024 355.613 581.451 355.96C580.891 356.307 580.451 356.793 580.131 357.42C579.811 358.033 579.684 358.767 579.751 359.62C579.684 360.473 579.817 361.22 580.151 361.86C580.497 362.487 580.964 362.973 581.551 363.32C582.151 363.667 582.791 363.84 583.471 363.84C584.257 363.84 584.917 363.653 585.451 363.28C585.984 362.907 586.417 362.44 586.751 361.88L588.031 362.56C587.817 363.04 587.491 363.487 587.051 363.9C586.611 364.3 586.084 364.627 585.471 364.88C584.871 365.12 584.204 365.24 583.471 365.24ZM594.615 365.24C593.589 365.24 592.689 364.98 591.915 364.46C591.142 363.94 590.582 363.233 590.235 362.34L591.495 361.74C591.802 362.393 592.229 362.913 592.775 363.3C593.335 363.687 593.949 363.88 594.615 363.88C595.255 363.88 595.795 363.727 596.235 363.42C596.675 363.1 596.895 362.687 596.895 362.18C596.895 361.807 596.789 361.513 596.575 361.3C596.362 361.073 596.115 360.9 595.835 360.78C595.555 360.66 595.309 360.573 595.095 360.52L593.555 360.08C592.569 359.8 591.855 359.407 591.415 358.9C590.975 358.393 590.755 357.807 590.755 357.14C590.755 356.513 590.915 355.967 591.235 355.5C591.555 355.033 591.989 354.673 592.535 354.42C593.082 354.167 593.689 354.04 594.355 354.04C595.262 354.04 596.082 354.28 596.815 354.76C597.562 355.227 598.089 355.88 598.395 356.72L597.115 357.32C596.849 356.72 596.462 356.253 595.955 355.92C595.462 355.573 594.909 355.4 594.295 355.4C593.695 355.4 593.215 355.553 592.855 355.86C592.495 356.167 592.315 356.553 592.315 357.02C592.315 357.38 592.409 357.667 592.595 357.88C592.782 358.093 592.995 358.253 593.235 358.36C593.489 358.467 593.709 358.547 593.895 358.6L595.675 359.12C596.542 359.373 597.215 359.767 597.695 360.3C598.189 360.833 598.435 361.46 598.435 362.18C598.435 362.767 598.269 363.293 597.935 363.76C597.615 364.227 597.169 364.593 596.595 364.86C596.022 365.113 595.362 365.24 594.615 365.24Z" fill="#D6D6D6"/>
<path d="M6.79352 21.24C5.74018 21.24 4.81352 20.9933 4.01352 20.5C3.21352 20.0067 2.58685 19.34 2.13352 18.5C1.68018 17.6467 1.45352 16.6867 1.45352 15.62C1.45352 14.5533 1.68018 13.6 2.13352 12.76C2.58685 11.92 3.21352 11.26 4.01352 10.78C4.81352 10.2867 5.74018 10.04 6.79352 10.04C7.46018 10.04 8.08685 10.16 8.67352 10.4C9.26018 10.64 9.78018 10.9667 10.2335 11.38C10.6868 11.78 11.0268 12.2467 11.2535 12.78L9.89352 13.48C9.62685 12.9067 9.22018 12.44 8.67352 12.08C8.12685 11.72 7.50018 11.54 6.79352 11.54C6.08685 11.54 5.44685 11.72 4.87352 12.08C4.31352 12.4267 3.86685 12.9133 3.53352 13.54C3.21352 14.1533 3.05352 14.8533 3.05352 15.64C3.05352 16.4133 3.21352 17.1133 3.53352 17.74C3.86685 18.3533 4.31352 18.84 4.87352 19.2C5.44685 19.56 6.08685 19.74 6.79352 19.74C7.50018 19.74 8.12018 19.56 8.65352 19.2C9.20018 18.84 9.61352 18.36 9.89352 17.76L11.2535 18.5C11.0268 19.02 10.6868 19.4867 10.2335 19.9C9.78018 20.3133 9.26018 20.64 8.67352 20.88C8.08685 21.12 7.46018 21.24 6.79352 21.24ZM18.9057 21.24C17.8924 21.24 16.9724 21 16.1457 20.52C15.319 20.0267 14.659 19.36 14.1657 18.52C13.6857 17.6667 13.4457 16.7 13.4457 15.62C13.4457 14.5533 13.6857 13.6 14.1657 12.76C14.6457 11.92 15.2924 11.26 16.1057 10.78C16.9324 10.2867 17.8657 10.04 18.9057 10.04C19.9457 10.04 20.8724 10.28 21.6857 10.76C22.5124 11.24 23.159 11.9 23.6257 12.74C24.1057 13.58 24.3457 14.54 24.3457 15.62C24.3457 16.7133 24.099 17.6867 23.6057 18.54C23.1124 19.38 22.4524 20.04 21.6257 20.52C20.8124 21 19.9057 21.24 18.9057 21.24ZM18.9057 19.74C19.6257 19.74 20.2724 19.56 20.8457 19.2C21.4324 18.84 21.8924 18.3467 22.2257 17.72C22.5724 17.0933 22.7457 16.3933 22.7457 15.62C22.7457 14.8467 22.5724 14.1533 22.2257 13.54C21.8924 12.9267 21.4324 12.44 20.8457 12.08C20.2724 11.72 19.6257 11.54 18.9057 11.54C18.1857 11.54 17.5324 11.72 16.9457 12.08C16.3724 12.44 15.9124 12.9267 15.5657 13.54C15.219 14.1533 15.0457 14.8467 15.0457 15.62C15.0457 16.3933 15.219 17.0933 15.5657 17.72C15.9124 18.3467 16.3724 18.84 16.9457 19.2C17.5324 19.56 18.1857 19.74 18.9057 19.74ZM31.8312 21.24C30.8312 21.24 29.9312 21 29.1312 20.52C28.3312 20.0267 27.6978 19.36 27.2312 18.52C26.7778 17.6667 26.5512 16.7067 26.5512 15.64C26.5512 14.56 26.7778 13.6 27.2312 12.76C27.6978 11.92 28.3245 11.26 29.1112 10.78C29.9112 10.2867 30.8178 10.04 31.8312 10.04C32.7512 10.04 33.5712 10.24 34.2912 10.64C35.0112 11.04 35.5778 11.58 35.9912 12.26L35.7512 12.68V5.86H37.2512V21H35.7512V18.6L35.9912 18.82C35.6178 19.5933 35.0578 20.1933 34.3112 20.62C33.5778 21.0333 32.7512 21.24 31.8312 21.24ZM31.9112 19.74C32.6312 19.74 33.2778 19.56 33.8512 19.2C34.4378 18.84 34.8978 18.3533 35.2312 17.74C35.5778 17.1133 35.7512 16.4133 35.7512 15.64C35.7512 14.8667 35.5778 14.1733 35.2312 13.56C34.8978 12.9333 34.4378 12.44 33.8512 12.08C33.2778 11.72 32.6312 11.54 31.9112 11.54C31.2045 11.54 30.5645 11.72 29.9912 12.08C29.4178 12.44 28.9645 12.9267 28.6312 13.54C28.3112 14.1533 28.1512 14.8533 28.1512 15.64C28.1512 16.4133 28.3112 17.1133 28.6312 17.74C28.9645 18.3533 29.4112 18.84 29.9712 19.2C30.5445 19.56 31.1912 19.74 31.9112 19.74ZM45.211 21.24C44.211 21.24 43.3043 21 42.491 20.52C41.691 20.0267 41.0577 19.3533 40.591 18.5C40.1243 17.6467 39.891 16.68 39.891 15.6C39.891 14.52 40.1177 13.5667 40.571 12.74C41.0243 11.9 41.6377 11.24 42.411 10.76C43.1977 10.28 44.0777 10.04 45.051 10.04C45.8243 10.04 46.511 10.1867 47.111 10.48C47.7243 10.76 48.2443 11.1467 48.671 11.64C49.0977 12.12 49.4243 12.6667 49.651 13.28C49.8777 13.88 49.991 14.5 49.991 15.14C49.991 15.2733 49.9843 15.4267 49.971 15.6C49.9577 15.76 49.9377 15.9267 49.911 16.1H40.851V14.7H49.051L48.331 15.3C48.451 14.5667 48.3643 13.9133 48.071 13.34C47.791 12.7533 47.3843 12.2933 46.851 11.96C46.3177 11.6133 45.7177 11.44 45.051 11.44C44.3843 11.44 43.7643 11.6133 43.191 11.96C42.631 12.3067 42.191 12.7933 41.871 13.42C41.551 14.0333 41.4243 14.7667 41.491 15.62C41.4243 16.4733 41.5577 17.22 41.891 17.86C42.2377 18.4867 42.7043 18.9733 43.291 19.32C43.891 19.6667 44.531 19.84 45.211 19.84C45.9977 19.84 46.6577 19.6533 47.191 19.28C47.7243 18.9067 48.1577 18.44 48.491 17.88L49.771 18.56C49.5577 19.04 49.231 19.4867 48.791 19.9C48.351 20.3 47.8243 20.6267 47.211 20.88C46.611 21.12 45.9443 21.24 45.211 21.24ZM60.9341 21.24C59.8808 21.24 58.9541 20.9933 58.1541 20.5C57.3541 20.0067 56.7275 19.34 56.2741 18.5C55.8208 17.6467 55.5941 16.6867 55.5941 15.62C55.5941 14.5533 55.8208 13.6 56.2741 12.76C56.7275 11.92 57.3541 11.26 58.1541 10.78C58.9541 10.2867 59.8808 10.04 60.9341 10.04C61.6008 10.04 62.2275 10.16 62.8141 10.4C63.4008 10.64 63.9208 10.9667 64.3741 11.38C64.8275 11.78 65.1675 12.2467 65.3941 12.78L64.0341 13.48C63.7675 12.9067 63.3608 12.44 62.8141 12.08C62.2675 11.72 61.6408 11.54 60.9341 11.54C60.2275 11.54 59.5875 11.72 59.0141 12.08C58.4541 12.4267 58.0075 12.9133 57.6741 13.54C57.3541 14.1533 57.1941 14.8533 57.1941 15.64C57.1941 16.4133 57.3541 17.1133 57.6741 17.74C58.0075 18.3533 58.4541 18.84 59.0141 19.2C59.5875 19.56 60.2275 19.74 60.9341 19.74C61.6408 19.74 62.2608 19.56 62.7941 19.2C63.3408 18.84 63.7541 18.36 64.0341 17.76L65.3941 18.5C65.1675 19.02 64.8275 19.4867 64.3741 19.9C63.9208 20.3133 63.4008 20.64 62.8141 20.88C62.2275 21.12 61.6008 21.24 60.9341 21.24ZM73.0463 21.24C72.033 21.24 71.113 21 70.2863 20.52C69.4597 20.0267 68.7997 19.36 68.3063 18.52C67.8263 17.6667 67.5863 16.7 67.5863 15.62C67.5863 14.5533 67.8263 13.6 68.3063 12.76C68.7863 11.92 69.433 11.26 70.2463 10.78C71.073 10.2867 72.0063 10.04 73.0463 10.04C74.0863 10.04 75.013 10.28 75.8263 10.76C76.653 11.24 77.2997 11.9 77.7663 12.74C78.2463 13.58 78.4863 14.54 78.4863 15.62C78.4863 16.7133 78.2397 17.6867 77.7463 18.54C77.253 19.38 76.593 20.04 75.7663 20.52C74.953 21 74.0463 21.24 73.0463 21.24ZM73.0463 19.74C73.7663 19.74 74.413 19.56 74.9863 19.2C75.573 18.84 76.033 18.3467 76.3663 17.72C76.713 17.0933 76.8863 16.3933 76.8863 15.62C76.8863 14.8467 76.713 14.1533 76.3663 13.54C76.033 12.9267 75.573 12.44 74.9863 12.08C74.413 11.72 73.7663 11.54 73.0463 11.54C72.3263 11.54 71.673 11.72 71.0863 12.08C70.513 12.44 70.053 12.9267 69.7063 13.54C69.3597 14.1533 69.1863 14.8467 69.1863 15.62C69.1863 16.3933 69.3597 17.0933 69.7063 17.72C70.053 18.3467 70.513 18.84 71.0863 19.2C71.673 19.56 72.3263 19.74 73.0463 19.74ZM81.1318 21V10.28H82.6318V12.32L82.3918 12.02C82.6851 11.3933 83.1185 10.9067 83.6918 10.56C84.2785 10.2133 84.9185 10.04 85.6118 10.04C86.4385 10.04 87.1851 10.2733 87.8518 10.74C88.5185 11.2067 88.9918 11.8133 89.2718 12.56L88.8518 12.58C89.1185 11.7533 89.5785 11.1267 90.2318 10.7C90.8985 10.26 91.6318 10.04 92.4318 10.04C93.1518 10.04 93.8118 10.2133 94.4118 10.56C95.0251 10.9067 95.5118 11.3867 95.8718 12C96.2451 12.6 96.4318 13.28 96.4318 14.04V21H94.9318V14.62C94.9318 13.9667 94.8118 13.4133 94.5718 12.96C94.3451 12.5067 94.0318 12.16 93.6318 11.92C93.2318 11.6667 92.7718 11.54 92.2518 11.54C91.7451 11.54 91.2851 11.6667 90.8718 11.92C90.4585 12.16 90.1318 12.5133 89.8918 12.98C89.6518 13.4333 89.5318 13.98 89.5318 14.62V21H88.0318V14.62C88.0318 13.9667 87.9118 13.4133 87.6718 12.96C87.4451 12.5067 87.1318 12.16 86.7318 11.92C86.3318 11.6667 85.8718 11.54 85.3518 11.54C84.8318 11.54 84.3651 11.6667 83.9518 11.92C83.5518 12.16 83.2318 12.5133 82.9918 12.98C82.7518 13.4333 82.6318 13.98 82.6318 14.62V21H81.1318ZM99.2959 25V10.28H100.796V12.68L100.556 12.26C100.983 11.58 101.549 11.04 102.256 10.64C102.976 10.24 103.796 10.04 104.716 10.04C105.729 10.04 106.629 10.2867 107.416 10.78C108.216 11.26 108.843 11.92 109.296 12.76C109.763 13.6 109.996 14.56 109.996 15.64C109.996 16.7067 109.763 17.6667 109.296 18.52C108.843 19.36 108.216 20.0267 107.416 20.52C106.629 21 105.729 21.24 104.716 21.24C103.796 21.24 102.963 21.0333 102.216 20.62C101.483 20.1933 100.929 19.5933 100.556 18.82L100.796 18.6V25H99.2959ZM104.636 19.74C105.356 19.74 105.996 19.56 106.556 19.2C107.129 18.84 107.576 18.3533 107.896 17.74C108.229 17.1133 108.396 16.4133 108.396 15.64C108.396 14.8533 108.229 14.1533 107.896 13.54C107.576 12.9267 107.129 12.44 106.556 12.08C105.996 11.72 105.356 11.54 104.636 11.54C103.916 11.54 103.263 11.72 102.676 12.08C102.103 12.44 101.643 12.9333 101.296 13.56C100.963 14.1733 100.796 14.8667 100.796 15.64C100.796 16.4133 100.963 17.1133 101.296 17.74C101.643 18.3533 102.103 18.84 102.676 19.2C103.263 19.56 103.916 19.74 104.636 19.74ZM112.636 21V5.86H114.136V21H112.636ZM122.086 21.24C121.086 21.24 120.179 21 119.366 20.52C118.566 20.0267 117.933 19.3533 117.466 18.5C116.999 17.6467 116.766 16.68 116.766 15.6C116.766 14.52 116.993 13.5667 117.446 12.74C117.899 11.9 118.513 11.24 119.286 10.76C120.073 10.28 120.953 10.04 121.926 10.04C122.699 10.04 123.386 10.1867 123.986 10.48C124.599 10.76 125.119 11.1467 125.546 11.64C125.973 12.12 126.299 12.6667 126.526 13.28C126.753 13.88 126.866 14.5 126.866 15.14C126.866 15.2733 126.859 15.4267 126.846 15.6C126.833 15.76 126.813 15.9267 126.786 16.1H117.726V14.7H125.926L125.206 15.3C125.326 14.5667 125.239 13.9133 124.946 13.34C124.666 12.7533 124.259 12.2933 123.726 11.96C123.193 11.6133 122.593 11.44 121.926 11.44C121.259 11.44 120.639 11.6133 120.066 11.96C119.506 12.3067 119.066 12.7933 118.746 13.42C118.426 14.0333 118.299 14.7667 118.366 15.62C118.299 16.4733 118.433 17.22 118.766 17.86C119.113 18.4867 119.579 18.9733 120.166 19.32C120.766 19.6667 121.406 19.84 122.086 19.84C122.873 19.84 123.533 19.6533 124.066 19.28C124.599 18.9067 125.033 18.44 125.366 17.88L126.646 18.56C126.433 19.04 126.106 19.4867 125.666 19.9C125.226 20.3 124.699 20.6267 124.086 20.88C123.486 21.12 122.819 21.24 122.086 21.24ZM127.995 21L131.755 15.64L128.015 10.28H129.855L133.175 15.1H132.155L135.455 10.28H137.295L133.555 15.64L137.295 21H135.455L132.155 16.18H133.175L129.855 21H127.995ZM139.061 21V10.28H140.561V21H139.061ZM139.061 8.3V6.1H140.561V8.3H139.061ZM147.732 21.12C146.772 21.12 146.032 20.84 145.512 20.28C144.992 19.72 144.732 18.92 144.732 17.88V11.78H142.752V10.28H143.252C143.705 10.28 144.065 10.1333 144.332 9.84C144.598 9.53333 144.732 9.15333 144.732 8.7V7.8H146.232V10.28H148.592V11.78H146.232V17.88C146.232 18.24 146.285 18.56 146.392 18.84C146.498 19.1067 146.678 19.32 146.932 19.48C147.198 19.64 147.552 19.72 147.992 19.72C148.098 19.72 148.225 19.7133 148.372 19.7C148.518 19.6867 148.645 19.6733 148.752 19.66V21C148.592 21.04 148.412 21.0667 148.212 21.08C148.012 21.1067 147.852 21.12 147.732 21.12ZM151.606 25.4C151.392 25.4 151.172 25.38 150.946 25.34C150.732 25.3133 150.519 25.26 150.306 25.18V23.78C150.439 23.7933 150.606 23.8133 150.806 23.84C151.019 23.88 151.232 23.9 151.446 23.9C152.099 23.9 152.599 23.76 152.946 23.48C153.292 23.2133 153.632 22.6933 153.966 21.92L154.646 20.32L154.606 21.64L150.066 10.28H151.686L155.406 19.66H154.986L158.686 10.28H160.346L155.446 22.36C155.232 22.88 154.959 23.3733 154.626 23.84C154.306 24.3067 153.899 24.68 153.406 24.96C152.912 25.2533 152.312 25.4 151.606 25.4Z" fill="#D6D6D6"/>
<path d="M167.927 21L164.187 10.12H166.947L169.687 18.38L168.727 18.36L171.647 10.12H173.967L176.867 18.36L175.907 18.38L178.647 10.12H181.407L177.667 21H175.327L172.367 12.38H173.247L170.247 21H167.927ZM182.843 21V10.12H185.463V21H182.843ZM182.843 8.9V6.1H185.463V8.9H182.843ZM192.842 21.12C191.615 21.12 190.662 20.7867 189.982 20.12C189.315 19.44 188.982 18.4867 188.982 17.26V12.46H187.102V10.12H187.302C187.835 10.12 188.249 9.98 188.542 9.7C188.835 9.42 188.982 9.01333 188.982 8.48V7.64H191.602V10.12H194.102V12.46H191.602V17.12C191.602 17.48 191.662 17.7867 191.782 18.04C191.915 18.2933 192.115 18.4867 192.382 18.62C192.662 18.7533 193.015 18.82 193.442 18.82C193.535 18.82 193.642 18.8133 193.762 18.8C193.895 18.7867 194.022 18.7733 194.142 18.76V21C193.955 21.0267 193.742 21.0533 193.502 21.08C193.262 21.1067 193.042 21.12 192.842 21.12ZM196.144 21V5.86H198.764V12.26L198.404 11.88C198.657 11.2267 199.07 10.7333 199.644 10.4C200.23 10.0533 200.91 9.88 201.684 9.88C202.484 9.88 203.19 10.0533 203.804 10.4C204.43 10.7467 204.917 11.2333 205.264 11.86C205.61 12.4733 205.784 13.1867 205.784 14V21H203.164V14.62C203.164 14.14 203.07 13.7267 202.884 13.38C202.697 13.0333 202.437 12.7667 202.104 12.58C201.784 12.38 201.404 12.28 200.964 12.28C200.537 12.28 200.157 12.38 199.824 12.58C199.49 12.7667 199.23 13.0333 199.044 13.38C198.857 13.7267 198.764 14.14 198.764 14.62V21H196.144ZM211.774 21V6.1H221.674V8.5H214.494V12.32H221.274V14.72H214.494V18.6H221.674V21H211.774ZM224.709 21V12.46H222.789V10.12H224.709V9.76C224.709 8.93333 224.875 8.23333 225.209 7.66C225.555 7.07333 226.035 6.62667 226.649 6.32C227.262 6.01333 227.989 5.86 228.829 5.86C228.989 5.86 229.162 5.87333 229.349 5.9C229.549 5.91333 229.715 5.93333 229.849 5.96V8.22C229.715 8.19333 229.589 8.18 229.469 8.18C229.362 8.16667 229.262 8.16 229.169 8.16C228.582 8.16 228.129 8.29333 227.809 8.56C227.489 8.81333 227.329 9.21333 227.329 9.76V10.12H232.089V12.46H227.329V21H224.709ZM232.629 21V12.46H230.709V10.12H232.629V9.76C232.629 8.93333 232.795 8.23333 233.129 7.66C233.462 7.07333 233.935 6.62667 234.549 6.32C235.175 6.01333 235.909 5.86 236.749 5.86C236.909 5.86 237.082 5.87333 237.269 5.9C237.469 5.91333 237.629 5.93333 237.749 5.96V8.22C237.629 8.19333 237.509 8.18 237.389 8.18C237.282 8.16667 237.182 8.16 237.089 8.16C236.502 8.16 236.049 8.29333 235.729 8.56C235.409 8.81333 235.249 9.21333 235.249 9.76V10.12H237.649V12.46H235.249V21H232.629ZM244.351 21.24C243.231 21.24 242.251 20.9867 241.411 20.48C240.571 19.9733 239.917 19.2867 239.451 18.42C238.984 17.5533 238.751 16.5933 238.751 15.54C238.751 14.4467 238.984 13.48 239.451 12.64C239.931 11.7867 240.577 11.1133 241.391 10.62C242.217 10.1267 243.137 9.88 244.151 9.88C245.004 9.88 245.751 10.02 246.391 10.3C247.044 10.58 247.597 10.9667 248.051 11.46C248.504 11.9533 248.851 12.52 249.091 13.16C249.331 13.7867 249.451 14.4667 249.451 15.2C249.451 15.3867 249.437 15.58 249.411 15.78C249.397 15.98 249.364 16.1533 249.311 16.3H240.911V14.3H247.831L246.591 15.24C246.711 14.6267 246.677 14.08 246.491 13.6C246.317 13.12 246.024 12.74 245.611 12.46C245.211 12.18 244.724 12.04 244.151 12.04C243.604 12.04 243.117 12.18 242.691 12.46C242.264 12.7267 241.937 13.1267 241.711 13.66C241.497 14.18 241.417 14.8133 241.471 15.56C241.417 16.2267 241.504 16.82 241.731 17.34C241.971 17.8467 242.317 18.24 242.771 18.52C243.237 18.8 243.771 18.94 244.371 18.94C244.971 18.94 245.477 18.8133 245.891 18.56C246.317 18.3067 246.651 17.9667 246.891 17.54L249.011 18.58C248.797 19.1 248.464 19.56 248.011 19.96C247.557 20.36 247.017 20.6733 246.391 20.9C245.777 21.1267 245.097 21.24 244.351 21.24ZM256.677 21.24C255.597 21.24 254.623 20.9933 253.757 20.5C252.903 19.9933 252.23 19.3133 251.737 18.46C251.243 17.5933 250.997 16.62 250.997 15.54C250.997 14.46 251.243 13.4933 251.737 12.64C252.23 11.7867 252.903 11.1133 253.757 10.62C254.623 10.1267 255.597 9.88 256.677 9.88C257.45 9.88 258.17 10.02 258.837 10.3C259.503 10.5667 260.077 10.94 260.557 11.42C261.05 11.8867 261.403 12.4467 261.617 13.1L259.317 14.1C259.117 13.5533 258.777 13.1133 258.297 12.78C257.83 12.4467 257.29 12.28 256.677 12.28C256.103 12.28 255.59 12.42 255.137 12.7C254.697 12.98 254.35 13.3667 254.097 13.86C253.843 14.3533 253.717 14.92 253.717 15.56C253.717 16.2 253.843 16.7667 254.097 17.26C254.35 17.7533 254.697 18.14 255.137 18.42C255.59 18.7 256.103 18.84 256.677 18.84C257.303 18.84 257.85 18.6733 258.317 18.34C258.783 18.0067 259.117 17.56 259.317 17L261.617 18.04C261.403 18.6533 261.057 19.2067 260.577 19.7C260.097 20.18 259.523 20.56 258.857 20.84C258.19 21.1067 257.463 21.24 256.677 21.24ZM268.565 21.12C267.338 21.12 266.385 20.7867 265.705 20.12C265.038 19.44 264.705 18.4867 264.705 17.26V12.46H262.825V10.12H263.025C263.558 10.12 263.971 9.98 264.265 9.7C264.558 9.42 264.705 9.01333 264.705 8.48V7.64H267.325V10.12H269.825V12.46H267.325V17.12C267.325 17.48 267.385 17.7867 267.505 18.04C267.638 18.2933 267.838 18.4867 268.105 18.62C268.385 18.7533 268.738 18.82 269.165 18.82C269.258 18.82 269.365 18.8133 269.485 18.8C269.618 18.7867 269.745 18.7733 269.865 18.76V21C269.678 21.0267 269.465 21.0533 269.225 21.08C268.985 21.1067 268.765 21.12 268.565 21.12Z" fill="#EF6EBC"/>
<line x1="50.5" y1="49" x2="50.5" y2="328" stroke="white"/>
<line x1="634" y1="328.5" x2="40" y2="328.5" stroke="white"/>
<line x1="50" y1="80.5" x2="40" y2="80.5" stroke="white"/>
<line x1="50" y1="111.5" x2="40" y2="111.5" stroke="white"/>
<line x1="50" y1="142.5" x2="40" y2="142.5" stroke="white"/>
<line x1="50" y1="173.5" x2="40" y2="173.5" stroke="white"/>
<line x1="50" y1="204.5" x2="40" y2="204.5" stroke="white"/>
<line x1="50" y1="235.5" x2="40" y2="235.5" stroke="white"/>
<line x1="50" y1="266.5" x2="40" y2="266.5" stroke="white"/>
<line x1="50" y1="297.5" x2="40" y2="297.5" stroke="white"/>
<path d="M89.5 225.5C89.5 225.5 243.473 225.92 332.197 210.043C494.5 181 501 177 501 177" stroke="#EF6EBC" stroke-width="3"/>
<path d="M88.3257 292.531C88.3257 292.531 238 312.5 327.625 250C376.865 215.663 430.5 72.5002 430.5 72.5002" stroke="#5A41E9" stroke-width="3"/>
</svg>
