<svg width="927" height="186" viewBox="0 0 927 186" fill="none" xmlns="http://www.w3.org/2000/svg">
<rect x="1.11507" y="1.11507" width="439.77" height="183.77" rx="10.3834" stroke="#FFA2A2" stroke-width="1.76985"/>
<path d="M144.804 84.417L139.284 68.337H141.834L146.394 82.407H145.494L149.784 68.337H152.034L156.324 82.407H155.424L160.014 68.337H162.534L157.014 84.417H154.764L150.594 70.647H151.224L147.054 84.417H144.804ZM165.17 84.417V61.707H167.42V71.457L166.91 71.337C167.31 70.297 167.96 69.477 168.86 68.877C169.78 68.277 170.84 67.977 172.04 67.977C173.18 67.977 174.2 68.237 175.1 68.757C176.02 69.277 176.74 69.997 177.26 70.917C177.8 71.817 178.07 72.837 178.07 73.977V84.417H175.82V74.847C175.82 73.867 175.64 73.037 175.28 72.357C174.92 71.677 174.42 71.157 173.78 70.797C173.16 70.417 172.45 70.227 171.65 70.227C170.85 70.227 170.13 70.417 169.49 70.797C168.85 71.157 168.34 71.687 167.96 72.387C167.6 73.067 167.42 73.887 167.42 74.847V84.417H165.17ZM187.018 84.777C185.998 84.777 185.088 84.587 184.288 84.207C183.488 83.807 182.858 83.267 182.398 82.587C181.938 81.907 181.708 81.127 181.708 80.247C181.708 79.407 181.888 78.647 182.248 77.967C182.608 77.267 183.168 76.677 183.928 76.197C184.688 75.717 185.658 75.377 186.838 75.177L193.138 74.127V76.167L187.378 77.127C186.218 77.327 185.378 77.697 184.858 78.237C184.358 78.777 184.108 79.417 184.108 80.157C184.108 80.877 184.388 81.487 184.948 81.987C185.528 82.487 186.268 82.737 187.168 82.737C188.268 82.737 189.228 82.507 190.048 82.047C190.868 81.567 191.508 80.927 191.968 80.127C192.428 79.327 192.658 78.437 192.658 77.457V73.377C192.658 72.417 192.308 71.637 191.608 71.037C190.908 70.437 189.998 70.137 188.878 70.137C187.898 70.137 187.038 70.387 186.298 70.887C185.558 71.367 185.008 71.997 184.648 72.777L182.608 71.667C182.908 70.987 183.378 70.367 184.018 69.807C184.678 69.247 185.428 68.807 186.268 68.487C187.108 68.147 187.978 67.977 188.878 67.977C190.058 67.977 191.098 68.207 191.998 68.667C192.918 69.127 193.628 69.767 194.128 70.587C194.648 71.387 194.908 72.317 194.908 73.377V84.417H192.658V81.207L192.988 81.537C192.708 82.137 192.268 82.687 191.668 83.187C191.088 83.667 190.398 84.057 189.598 84.357C188.818 84.637 187.958 84.777 187.018 84.777ZM205.393 84.597C203.953 84.597 202.843 84.177 202.063 83.337C201.283 82.497 200.893 81.297 200.893 79.737V70.587H197.923V68.337H198.673C199.353 68.337 199.893 68.117 200.293 67.677C200.693 67.217 200.893 66.647 200.893 65.967V64.617H203.143V68.337H206.683V70.587H203.143V79.737C203.143 80.277 203.223 80.757 203.383 81.177C203.543 81.577 203.813 81.897 204.193 82.137C204.593 82.377 205.123 82.497 205.783 82.497C205.943 82.497 206.133 82.487 206.353 82.467C206.573 82.447 206.763 82.427 206.923 82.407V84.417C206.683 84.477 206.413 84.517 206.113 84.537C205.813 84.577 205.573 84.597 205.393 84.597ZM215.971 84.417V68.337H218.221V71.457L217.711 71.337C218.111 70.297 218.761 69.477 219.661 68.877C220.581 68.277 221.641 67.977 222.841 67.977C223.981 67.977 225.001 68.237 225.901 68.757C226.821 69.277 227.541 69.997 228.061 70.917C228.601 71.817 228.871 72.837 228.871 73.977V84.417H226.621V74.847C226.621 73.867 226.441 73.037 226.081 72.357C225.741 71.677 225.251 71.157 224.611 70.797C223.991 70.417 223.271 70.227 222.451 70.227C221.631 70.227 220.901 70.417 220.261 70.797C219.621 71.157 219.121 71.687 218.761 72.387C218.401 73.067 218.221 73.887 218.221 74.847V84.417H215.971ZM240.488 84.777C238.988 84.777 237.628 84.417 236.408 83.697C235.208 82.957 234.258 81.947 233.558 80.667C232.858 79.387 232.508 77.937 232.508 76.317C232.508 74.697 232.848 73.267 233.528 72.027C234.208 70.767 235.128 69.777 236.288 69.057C237.468 68.337 238.788 67.977 240.248 67.977C241.408 67.977 242.438 68.197 243.338 68.637C244.258 69.057 245.038 69.637 245.678 70.377C246.318 71.097 246.808 71.917 247.148 72.837C247.488 73.737 247.658 74.667 247.658 75.627C247.658 75.827 247.648 76.057 247.628 76.317C247.608 76.557 247.578 76.807 247.538 77.067H233.948V74.967H246.248L245.168 75.867C245.348 74.767 245.218 73.787 244.778 72.927C244.358 72.047 243.748 71.357 242.948 70.857C242.148 70.337 241.248 70.077 240.248 70.077C239.248 70.077 238.318 70.337 237.458 70.857C236.618 71.377 235.958 72.107 235.478 73.047C234.998 73.967 234.808 75.067 234.908 76.347C234.808 77.627 235.008 78.747 235.508 79.707C236.028 80.647 236.728 81.377 237.608 81.897C238.508 82.417 239.468 82.677 240.488 82.677C241.668 82.677 242.658 82.397 243.458 81.837C244.258 81.277 244.908 80.577 245.408 79.737L247.328 80.757C247.008 81.477 246.518 82.147 245.858 82.767C245.198 83.367 244.408 83.857 243.488 84.237C242.588 84.597 241.588 84.777 240.488 84.777ZM258.945 84.777C257.445 84.777 256.085 84.417 254.865 83.697C253.665 82.957 252.715 81.947 252.015 80.667C251.315 79.387 250.965 77.937 250.965 76.317C250.965 74.697 251.305 73.267 251.985 72.027C252.665 70.767 253.585 69.777 254.745 69.057C255.925 68.337 257.245 67.977 258.705 67.977C259.865 67.977 260.895 68.197 261.795 68.637C262.715 69.057 263.495 69.637 264.135 70.377C264.775 71.097 265.265 71.917 265.605 72.837C265.945 73.737 266.115 74.667 266.115 75.627C266.115 75.827 266.105 76.057 266.085 76.317C266.065 76.557 266.035 76.807 265.995 77.067H252.405V74.967H264.705L263.625 75.867C263.805 74.767 263.675 73.787 263.235 72.927C262.815 72.047 262.205 71.357 261.405 70.857C260.605 70.337 259.705 70.077 258.705 70.077C257.705 70.077 256.775 70.337 255.915 70.857C255.075 71.377 254.415 72.107 253.935 73.047C253.455 73.967 253.265 75.067 253.365 76.347C253.265 77.627 253.465 78.747 253.965 79.707C254.485 80.647 255.185 81.377 256.065 81.897C256.965 82.417 257.925 82.677 258.945 82.677C260.125 82.677 261.115 82.397 261.915 81.837C262.715 81.277 263.365 80.577 263.865 79.737L265.785 80.757C265.465 81.477 264.975 82.147 264.315 82.767C263.655 83.367 262.865 83.857 261.945 84.237C261.045 84.597 260.045 84.777 258.945 84.777ZM277.342 84.777C275.842 84.777 274.492 84.417 273.292 83.697C272.092 82.957 271.142 81.957 270.442 80.697C269.762 79.417 269.422 77.977 269.422 76.377C269.422 74.757 269.762 73.317 270.442 72.057C271.142 70.797 272.082 69.807 273.262 69.087C274.462 68.347 275.822 67.977 277.342 67.977C278.722 67.977 279.952 68.277 281.032 68.877C282.112 69.477 282.962 70.287 283.582 71.307L283.222 71.937V61.707H285.472V84.417H283.222V80.817L283.582 81.147C283.022 82.307 282.182 83.207 281.062 83.847C279.962 84.467 278.722 84.777 277.342 84.777ZM277.462 82.527C278.542 82.527 279.512 82.257 280.372 81.717C281.252 81.177 281.942 80.447 282.442 79.527C282.962 78.587 283.222 77.537 283.222 76.377C283.222 75.217 282.962 74.177 282.442 73.257C281.942 72.317 281.252 71.577 280.372 71.037C279.512 70.497 278.542 70.227 277.462 70.227C276.402 70.227 275.442 70.497 274.582 71.037C273.722 71.577 273.042 72.307 272.542 73.227C272.062 74.147 271.822 75.197 271.822 76.377C271.822 77.537 272.062 78.587 272.542 79.527C273.042 80.447 273.712 81.177 274.552 81.717C275.412 82.257 276.382 82.527 277.462 82.527ZM295.672 84.777C294.132 84.777 292.782 84.387 291.622 83.607C290.462 82.827 289.622 81.767 289.102 80.427L290.992 79.527C291.452 80.507 292.092 81.287 292.912 81.867C293.752 82.447 294.672 82.737 295.672 82.737C296.632 82.737 297.442 82.507 298.102 82.047C298.762 81.567 299.092 80.947 299.092 80.187C299.092 79.627 298.932 79.187 298.612 78.867C298.292 78.527 297.922 78.267 297.502 78.087C297.082 77.907 296.712 77.777 296.392 77.697L294.082 77.037C292.602 76.617 291.532 76.027 290.872 75.267C290.212 74.507 289.882 73.627 289.882 72.627C289.882 71.687 290.122 70.867 290.602 70.167C291.082 69.467 291.732 68.927 292.552 68.547C293.372 68.167 294.282 67.977 295.282 67.977C296.642 67.977 297.872 68.337 298.972 69.057C300.092 69.757 300.882 70.737 301.342 71.997L299.422 72.897C299.022 71.997 298.442 71.297 297.682 70.797C296.942 70.277 296.112 70.017 295.192 70.017C294.292 70.017 293.572 70.247 293.032 70.707C292.492 71.167 292.222 71.747 292.222 72.447C292.222 72.987 292.362 73.417 292.642 73.737C292.922 74.057 293.242 74.297 293.602 74.457C293.982 74.617 294.312 74.737 294.592 74.817L297.262 75.597C298.562 75.977 299.572 76.567 300.292 77.367C301.032 78.167 301.402 79.107 301.402 80.187C301.402 81.067 301.152 81.857 300.652 82.557C300.172 83.257 299.502 83.807 298.642 84.207C297.782 84.587 296.792 84.777 295.672 84.777ZM152.116 122.597C150.676 122.597 149.566 122.177 148.786 121.337C148.006 120.497 147.616 119.297 147.616 117.737V108.587H144.646V106.337H145.396C146.076 106.337 146.616 106.117 147.016 105.677C147.416 105.217 147.616 104.647 147.616 103.967V102.617H149.866V106.337H153.406V108.587H149.866V117.737C149.866 118.277 149.946 118.757 150.106 119.177C150.266 119.577 150.536 119.897 150.916 120.137C151.316 120.377 151.846 120.497 152.506 120.497C152.666 120.497 152.856 120.487 153.076 120.467C153.296 120.447 153.486 120.427 153.646 120.407V122.417C153.406 122.477 153.136 122.517 152.836 122.537C152.536 122.577 152.296 122.597 152.116 122.597ZM164.541 122.777C163.021 122.777 161.641 122.417 160.401 121.697C159.161 120.957 158.171 119.957 157.431 118.697C156.711 117.417 156.351 115.967 156.351 114.347C156.351 112.747 156.711 111.317 157.431 110.057C158.151 108.797 159.121 107.807 160.341 107.087C161.581 106.347 162.981 105.977 164.541 105.977C166.101 105.977 167.491 106.337 168.711 107.057C169.951 107.777 170.921 108.767 171.621 110.027C172.341 111.287 172.701 112.727 172.701 114.347C172.701 115.987 172.331 117.447 171.591 118.727C170.851 119.987 169.861 120.977 168.621 121.697C167.401 122.417 166.041 122.777 164.541 122.777ZM164.541 120.527C165.621 120.527 166.591 120.257 167.451 119.717C168.331 119.177 169.021 118.437 169.521 117.497C170.041 116.557 170.301 115.507 170.301 114.347C170.301 113.187 170.041 112.147 169.521 111.227C169.021 110.307 168.331 109.577 167.451 109.037C166.591 108.497 165.621 108.227 164.541 108.227C163.461 108.227 162.481 108.497 161.601 109.037C160.741 109.577 160.051 110.307 159.531 111.227C159.011 112.147 158.751 113.187 158.751 114.347C158.751 115.507 159.011 116.557 159.531 117.497C160.051 118.437 160.741 119.177 161.601 119.717C162.481 120.257 163.461 120.527 164.541 120.527ZM189.897 122.777C188.517 122.777 187.267 122.467 186.147 121.847C185.047 121.207 184.217 120.307 183.657 119.147L184.017 118.817V122.417H181.767V99.707H184.017V109.937L183.657 109.307C184.297 108.287 185.147 107.477 186.207 106.877C187.287 106.277 188.517 105.977 189.897 105.977C191.417 105.977 192.767 106.347 193.947 107.087C195.147 107.807 196.087 108.797 196.767 110.057C197.467 111.317 197.817 112.757 197.817 114.377C197.817 115.977 197.467 117.417 196.767 118.697C196.087 119.957 195.147 120.957 193.947 121.697C192.767 122.417 191.417 122.777 189.897 122.777ZM189.777 120.527C190.857 120.527 191.817 120.257 192.657 119.717C193.517 119.177 194.187 118.447 194.667 117.527C195.167 116.587 195.417 115.537 195.417 114.377C195.417 113.197 195.167 112.147 194.667 111.227C194.187 110.307 193.517 109.577 192.657 109.037C191.817 108.497 190.857 108.227 189.777 108.227C188.697 108.227 187.717 108.497 186.837 109.037C185.977 109.577 185.287 110.317 184.767 111.257C184.267 112.177 184.017 113.217 184.017 114.377C184.017 115.537 184.267 116.587 184.767 117.527C185.287 118.447 185.977 119.177 186.837 119.717C187.717 120.257 188.697 120.527 189.777 120.527ZM209.097 122.777C207.597 122.777 206.237 122.417 205.017 121.697C203.817 120.957 202.867 119.947 202.167 118.667C201.467 117.387 201.117 115.937 201.117 114.317C201.117 112.697 201.457 111.267 202.137 110.027C202.817 108.767 203.737 107.777 204.897 107.057C206.077 106.337 207.397 105.977 208.857 105.977C210.017 105.977 211.047 106.197 211.947 106.637C212.867 107.057 213.647 107.637 214.287 108.377C214.927 109.097 215.417 109.917 215.757 110.837C216.097 111.737 216.267 112.667 216.267 113.627C216.267 113.827 216.257 114.057 216.237 114.317C216.217 114.557 216.187 114.807 216.147 115.067H202.557V112.967H214.857L213.777 113.867C213.957 112.767 213.827 111.787 213.387 110.927C212.967 110.047 212.357 109.357 211.557 108.857C210.757 108.337 209.857 108.077 208.857 108.077C207.857 108.077 206.927 108.337 206.067 108.857C205.227 109.377 204.567 110.107 204.087 111.047C203.607 111.967 203.417 113.067 203.517 114.347C203.417 115.627 203.617 116.747 204.117 117.707C204.637 118.647 205.337 119.377 206.217 119.897C207.117 120.417 208.077 120.677 209.097 120.677C210.277 120.677 211.267 120.397 212.067 119.837C212.867 119.277 213.517 118.577 214.017 117.737L215.937 118.757C215.617 119.477 215.127 120.147 214.467 120.767C213.807 121.367 213.017 121.857 212.097 122.237C211.197 122.597 210.197 122.777 209.097 122.777ZM232.591 122.777C231.091 122.777 229.741 122.417 228.541 121.697C227.341 120.957 226.391 119.957 225.691 118.697C225.011 117.417 224.671 115.977 224.671 114.377C224.671 112.757 225.011 111.317 225.691 110.057C226.391 108.797 227.331 107.807 228.511 107.087C229.711 106.347 231.071 105.977 232.591 105.977C233.971 105.977 235.201 106.277 236.281 106.877C237.361 107.477 238.211 108.287 238.831 109.307L238.471 109.937V99.707H240.721V122.417H238.471V118.817L238.831 119.147C238.271 120.307 237.431 121.207 236.311 121.847C235.211 122.467 233.971 122.777 232.591 122.777ZM232.711 120.527C233.791 120.527 234.761 120.257 235.621 119.717C236.501 119.177 237.191 118.447 237.691 117.527C238.211 116.587 238.471 115.537 238.471 114.377C238.471 113.217 238.211 112.177 237.691 111.257C237.191 110.317 236.501 109.577 235.621 109.037C234.761 108.497 233.791 108.227 232.711 108.227C231.651 108.227 230.691 108.497 229.831 109.037C228.971 109.577 228.291 110.307 227.791 111.227C227.311 112.147 227.071 113.197 227.071 114.377C227.071 115.537 227.311 116.587 227.791 117.527C228.291 118.447 228.961 119.177 229.801 119.717C230.661 120.257 231.631 120.527 232.711 120.527ZM252.871 122.777C251.351 122.777 249.971 122.417 248.731 121.697C247.491 120.957 246.501 119.957 245.761 118.697C245.041 117.417 244.681 115.967 244.681 114.347C244.681 112.747 245.041 111.317 245.761 110.057C246.481 108.797 247.451 107.807 248.671 107.087C249.911 106.347 251.311 105.977 252.871 105.977C254.431 105.977 255.821 106.337 257.041 107.057C258.281 107.777 259.251 108.767 259.951 110.027C260.671 111.287 261.031 112.727 261.031 114.347C261.031 115.987 260.661 117.447 259.921 118.727C259.181 119.987 258.191 120.977 256.951 121.697C255.731 122.417 254.371 122.777 252.871 122.777ZM252.871 120.527C253.951 120.527 254.921 120.257 255.781 119.717C256.661 119.177 257.351 118.437 257.851 117.497C258.371 116.557 258.631 115.507 258.631 114.347C258.631 113.187 258.371 112.147 257.851 111.227C257.351 110.307 256.661 109.577 255.781 109.037C254.921 108.497 253.951 108.227 252.871 108.227C251.791 108.227 250.811 108.497 249.931 109.037C249.071 109.577 248.381 110.307 247.861 111.227C247.341 112.147 247.081 113.187 247.081 114.347C247.081 115.507 247.341 116.557 247.861 117.497C248.381 118.437 249.071 119.177 249.931 119.717C250.811 120.257 251.791 120.527 252.871 120.527ZM264.999 122.417V106.337H267.249V109.457L266.739 109.337C267.139 108.297 267.789 107.477 268.689 106.877C269.609 106.277 270.669 105.977 271.869 105.977C273.009 105.977 274.029 106.237 274.929 106.757C275.849 107.277 276.569 107.997 277.089 108.917C277.629 109.817 277.899 110.837 277.899 111.977V122.417H275.649V112.847C275.649 111.867 275.469 111.037 275.109 110.357C274.769 109.677 274.279 109.157 273.639 108.797C273.019 108.417 272.299 108.227 271.479 108.227C270.659 108.227 269.929 108.417 269.289 108.797C268.649 109.157 268.149 109.687 267.789 110.387C267.429 111.067 267.249 111.887 267.249 112.847V122.417H264.999ZM289.517 122.777C288.017 122.777 286.657 122.417 285.437 121.697C284.237 120.957 283.287 119.947 282.587 118.667C281.887 117.387 281.537 115.937 281.537 114.317C281.537 112.697 281.877 111.267 282.557 110.027C283.237 108.767 284.157 107.777 285.317 107.057C286.497 106.337 287.817 105.977 289.277 105.977C290.437 105.977 291.467 106.197 292.367 106.637C293.287 107.057 294.067 107.637 294.707 108.377C295.347 109.097 295.837 109.917 296.177 110.837C296.517 111.737 296.687 112.667 296.687 113.627C296.687 113.827 296.677 114.057 296.657 114.317C296.637 114.557 296.607 114.807 296.567 115.067H282.977V112.967H295.277L294.197 113.867C294.377 112.767 294.247 111.787 293.807 110.927C293.387 110.047 292.777 109.357 291.977 108.857C291.177 108.337 290.277 108.077 289.277 108.077C288.277 108.077 287.347 108.337 286.487 108.857C285.647 109.377 284.987 110.107 284.507 111.047C284.027 111.967 283.837 113.067 283.937 114.347C283.837 115.627 284.037 116.747 284.537 117.707C285.057 118.647 285.757 119.377 286.637 119.897C287.537 120.417 288.497 120.677 289.517 120.677C290.697 120.677 291.687 120.397 292.487 119.837C293.287 119.277 293.937 118.577 294.437 117.737L296.357 118.757C296.037 119.477 295.547 120.147 294.887 120.767C294.227 121.367 293.437 121.857 292.517 122.237C291.617 122.597 290.617 122.777 289.517 122.777Z" fill="#D6D6D6"/>
<rect x="486.115" y="1.11507" width="439.77" height="183.77" rx="10.3834" stroke="#FDBBFF" stroke-width="1.76985"/>
<path d="M619.042 84.417V61.707H621.292V71.457L620.782 71.337C621.182 70.297 621.832 69.477 622.732 68.877C623.652 68.277 624.712 67.977 625.912 67.977C627.052 67.977 628.072 68.237 628.972 68.757C629.892 69.277 630.612 69.997 631.132 70.917C631.672 71.817 631.942 72.837 631.942 73.977V84.417H629.692V74.847C629.692 73.867 629.512 73.037 629.152 72.357C628.792 71.677 628.292 71.157 627.652 70.797C627.032 70.417 626.322 70.227 625.522 70.227C624.722 70.227 624.002 70.417 623.362 70.797C622.722 71.157 622.212 71.687 621.832 72.387C621.472 73.067 621.292 73.887 621.292 74.847V84.417H619.042ZM643.77 84.777C642.25 84.777 640.87 84.417 639.63 83.697C638.39 82.957 637.4 81.957 636.66 80.697C635.94 79.417 635.58 77.967 635.58 76.347C635.58 74.747 635.94 73.317 636.66 72.057C637.38 70.797 638.35 69.807 639.57 69.087C640.81 68.347 642.21 67.977 643.77 67.977C645.33 67.977 646.72 68.337 647.94 69.057C649.18 69.777 650.15 70.767 650.85 72.027C651.57 73.287 651.93 74.727 651.93 76.347C651.93 77.987 651.56 79.447 650.82 80.727C650.08 81.987 649.09 82.977 647.85 83.697C646.63 84.417 645.27 84.777 643.77 84.777ZM643.77 82.527C644.85 82.527 645.82 82.257 646.68 81.717C647.56 81.177 648.25 80.437 648.75 79.497C649.27 78.557 649.53 77.507 649.53 76.347C649.53 75.187 649.27 74.147 648.75 73.227C648.25 72.307 647.56 71.577 646.68 71.037C645.82 70.497 644.85 70.227 643.77 70.227C642.69 70.227 641.71 70.497 640.83 71.037C639.97 71.577 639.28 72.307 638.76 73.227C638.24 74.147 637.98 75.187 637.98 76.347C637.98 77.507 638.24 78.557 638.76 79.497C639.28 80.437 639.97 81.177 640.83 81.717C641.71 82.257 642.69 82.527 643.77 82.527ZM659.145 84.417L653.625 68.337H656.175L660.735 82.407H659.835L664.125 68.337H666.375L670.665 82.407H669.765L674.355 68.337H676.875L671.355 84.417H669.105L664.935 70.647H665.565L661.395 84.417H659.145ZM684.609 84.417V68.337H686.859V84.417H684.609ZM684.609 65.367V62.067H686.859V65.367H684.609ZM697.614 84.597C696.174 84.597 695.064 84.177 694.284 83.337C693.504 82.497 693.114 81.297 693.114 79.737V70.587H690.144V68.337H690.894C691.574 68.337 692.114 68.117 692.514 67.677C692.914 67.217 693.114 66.647 693.114 65.967V64.617H695.364V68.337H698.904V70.587H695.364V79.737C695.364 80.277 695.444 80.757 695.604 81.177C695.764 81.577 696.034 81.897 696.414 82.137C696.814 82.377 697.344 82.497 698.004 82.497C698.164 82.497 698.354 82.487 698.574 82.467C698.794 82.447 698.984 82.427 699.144 82.407V84.417C698.904 84.477 698.634 84.517 698.334 84.537C698.034 84.577 697.794 84.597 697.614 84.597ZM708.193 84.417V68.337H710.443V71.457L709.933 71.337C710.333 70.297 710.983 69.477 711.883 68.877C712.803 68.277 713.863 67.977 715.063 67.977C716.203 67.977 717.223 68.237 718.123 68.757C719.043 69.277 719.763 69.997 720.283 70.917C720.823 71.817 721.093 72.837 721.093 73.977V84.417H718.843V74.847C718.843 73.867 718.663 73.037 718.303 72.357C717.963 71.677 717.473 71.157 716.833 70.797C716.213 70.417 715.493 70.227 714.673 70.227C713.853 70.227 713.123 70.417 712.483 70.797C711.843 71.157 711.343 71.687 710.983 72.387C710.623 73.067 710.443 73.887 710.443 74.847V84.417H708.193ZM732.71 84.777C731.21 84.777 729.85 84.417 728.63 83.697C727.43 82.957 726.48 81.947 725.78 80.667C725.08 79.387 724.73 77.937 724.73 76.317C724.73 74.697 725.07 73.267 725.75 72.027C726.43 70.767 727.35 69.777 728.51 69.057C729.69 68.337 731.01 67.977 732.47 67.977C733.63 67.977 734.66 68.197 735.56 68.637C736.48 69.057 737.26 69.637 737.9 70.377C738.54 71.097 739.03 71.917 739.37 72.837C739.71 73.737 739.88 74.667 739.88 75.627C739.88 75.827 739.87 76.057 739.85 76.317C739.83 76.557 739.8 76.807 739.76 77.067H726.17V74.967H738.47L737.39 75.867C737.57 74.767 737.44 73.787 737 72.927C736.58 72.047 735.97 71.357 735.17 70.857C734.37 70.337 733.47 70.077 732.47 70.077C731.47 70.077 730.54 70.337 729.68 70.857C728.84 71.377 728.18 72.107 727.7 73.047C727.22 73.967 727.03 75.067 727.13 76.347C727.03 77.627 727.23 78.747 727.73 79.707C728.25 80.647 728.95 81.377 729.83 81.897C730.73 82.417 731.69 82.677 732.71 82.677C733.89 82.677 734.88 82.397 735.68 81.837C736.48 81.277 737.13 80.577 737.63 79.737L739.55 80.757C739.23 81.477 738.74 82.147 738.08 82.767C737.42 83.367 736.63 83.857 735.71 84.237C734.81 84.597 733.81 84.777 732.71 84.777ZM751.167 84.777C749.667 84.777 748.307 84.417 747.087 83.697C745.887 82.957 744.937 81.947 744.237 80.667C743.537 79.387 743.187 77.937 743.187 76.317C743.187 74.697 743.527 73.267 744.207 72.027C744.887 70.767 745.807 69.777 746.967 69.057C748.147 68.337 749.467 67.977 750.927 67.977C752.087 67.977 753.117 68.197 754.017 68.637C754.937 69.057 755.717 69.637 756.357 70.377C756.997 71.097 757.487 71.917 757.827 72.837C758.167 73.737 758.337 74.667 758.337 75.627C758.337 75.827 758.327 76.057 758.307 76.317C758.287 76.557 758.257 76.807 758.217 77.067H744.627V74.967H756.927L755.847 75.867C756.027 74.767 755.897 73.787 755.457 72.927C755.037 72.047 754.427 71.357 753.627 70.857C752.827 70.337 751.927 70.077 750.927 70.077C749.927 70.077 748.997 70.337 748.137 70.857C747.297 71.377 746.637 72.107 746.157 73.047C745.677 73.967 745.487 75.067 745.587 76.347C745.487 77.627 745.687 78.747 746.187 79.707C746.707 80.647 747.407 81.377 748.287 81.897C749.187 82.417 750.147 82.677 751.167 82.677C752.347 82.677 753.337 82.397 754.137 81.837C754.937 81.277 755.587 80.577 756.087 79.737L758.007 80.757C757.687 81.477 757.197 82.147 756.537 82.767C755.877 83.367 755.087 83.857 754.167 84.237C753.267 84.597 752.267 84.777 751.167 84.777ZM769.564 84.777C768.064 84.777 766.714 84.417 765.514 83.697C764.314 82.957 763.364 81.957 762.664 80.697C761.984 79.417 761.644 77.977 761.644 76.377C761.644 74.757 761.984 73.317 762.664 72.057C763.364 70.797 764.304 69.807 765.484 69.087C766.684 68.347 768.044 67.977 769.564 67.977C770.944 67.977 772.174 68.277 773.254 68.877C774.334 69.477 775.184 70.287 775.804 71.307L775.444 71.937V61.707H777.694V84.417H775.444V80.817L775.804 81.147C775.244 82.307 774.404 83.207 773.284 83.847C772.184 84.467 770.944 84.777 769.564 84.777ZM769.684 82.527C770.764 82.527 771.734 82.257 772.594 81.717C773.474 81.177 774.164 80.447 774.664 79.527C775.184 78.587 775.444 77.537 775.444 76.377C775.444 75.217 775.184 74.177 774.664 73.257C774.164 72.317 773.474 71.577 772.594 71.037C771.734 70.497 770.764 70.227 769.684 70.227C768.624 70.227 767.664 70.497 766.804 71.037C765.944 71.577 765.264 72.307 764.764 73.227C764.284 74.147 764.044 75.197 764.044 76.377C764.044 77.537 764.284 78.587 764.764 79.527C765.264 80.447 765.934 81.177 766.774 81.717C767.634 82.257 768.604 82.527 769.684 82.527ZM787.894 84.777C786.354 84.777 785.004 84.387 783.844 83.607C782.684 82.827 781.844 81.767 781.324 80.427L783.214 79.527C783.674 80.507 784.314 81.287 785.134 81.867C785.974 82.447 786.894 82.737 787.894 82.737C788.854 82.737 789.664 82.507 790.324 82.047C790.984 81.567 791.314 80.947 791.314 80.187C791.314 79.627 791.154 79.187 790.834 78.867C790.514 78.527 790.144 78.267 789.724 78.087C789.304 77.907 788.934 77.777 788.614 77.697L786.304 77.037C784.824 76.617 783.754 76.027 783.094 75.267C782.434 74.507 782.104 73.627 782.104 72.627C782.104 71.687 782.344 70.867 782.824 70.167C783.304 69.467 783.954 68.927 784.774 68.547C785.594 68.167 786.504 67.977 787.504 67.977C788.864 67.977 790.094 68.337 791.194 69.057C792.314 69.757 793.104 70.737 793.564 71.997L791.644 72.897C791.244 71.997 790.664 71.297 789.904 70.797C789.164 70.277 788.334 70.017 787.414 70.017C786.514 70.017 785.794 70.247 785.254 70.707C784.714 71.167 784.444 71.747 784.444 72.447C784.444 72.987 784.584 73.417 784.864 73.737C785.144 74.057 785.464 74.297 785.824 74.457C786.204 74.617 786.534 74.737 786.814 74.817L789.484 75.597C790.784 75.977 791.794 76.567 792.514 77.367C793.254 78.167 793.624 79.107 793.624 80.187C793.624 81.067 793.374 81.857 792.874 82.557C792.394 83.257 791.724 83.807 790.864 84.207C790.004 84.587 789.014 84.777 787.894 84.777ZM616.33 122.597C614.89 122.597 613.78 122.177 613 121.337C612.22 120.497 611.83 119.297 611.83 117.737V108.587H608.86V106.337H609.61C610.29 106.337 610.83 106.117 611.23 105.677C611.63 105.217 611.83 104.647 611.83 103.967V102.617H614.08V106.337H617.62V108.587H614.08V117.737C614.08 118.277 614.16 118.757 614.32 119.177C614.48 119.577 614.75 119.897 615.13 120.137C615.53 120.377 616.06 120.497 616.72 120.497C616.88 120.497 617.07 120.487 617.29 120.467C617.51 120.447 617.7 120.427 617.86 120.407V122.417C617.62 122.477 617.35 122.517 617.05 122.537C616.75 122.577 616.51 122.597 616.33 122.597ZM628.755 122.777C627.235 122.777 625.855 122.417 624.615 121.697C623.375 120.957 622.385 119.957 621.645 118.697C620.925 117.417 620.565 115.967 620.565 114.347C620.565 112.747 620.925 111.317 621.645 110.057C622.365 108.797 623.335 107.807 624.555 107.087C625.795 106.347 627.195 105.977 628.755 105.977C630.315 105.977 631.705 106.337 632.925 107.057C634.165 107.777 635.135 108.767 635.835 110.027C636.555 111.287 636.915 112.727 636.915 114.347C636.915 115.987 636.545 117.447 635.805 118.727C635.065 119.987 634.075 120.977 632.835 121.697C631.615 122.417 630.255 122.777 628.755 122.777ZM628.755 120.527C629.835 120.527 630.805 120.257 631.665 119.717C632.545 119.177 633.235 118.437 633.735 117.497C634.255 116.557 634.515 115.507 634.515 114.347C634.515 113.187 634.255 112.147 633.735 111.227C633.235 110.307 632.545 109.577 631.665 109.037C630.805 108.497 629.835 108.227 628.755 108.227C627.675 108.227 626.695 108.497 625.815 109.037C624.955 109.577 624.265 110.307 623.745 111.227C623.225 112.147 622.965 113.187 622.965 114.347C622.965 115.507 623.225 116.557 623.745 117.497C624.265 118.437 624.955 119.177 625.815 119.717C626.695 120.257 627.675 120.527 628.755 120.527ZM654.111 122.777C652.731 122.777 651.481 122.467 650.361 121.847C649.261 121.207 648.431 120.307 647.871 119.147L648.231 118.817V122.417H645.981V99.707H648.231V109.937L647.871 109.307C648.511 108.287 649.361 107.477 650.421 106.877C651.501 106.277 652.731 105.977 654.111 105.977C655.631 105.977 656.981 106.347 658.161 107.087C659.361 107.807 660.301 108.797 660.981 110.057C661.681 111.317 662.031 112.757 662.031 114.377C662.031 115.977 661.681 117.417 660.981 118.697C660.301 119.957 659.361 120.957 658.161 121.697C656.981 122.417 655.631 122.777 654.111 122.777ZM653.991 120.527C655.071 120.527 656.031 120.257 656.871 119.717C657.731 119.177 658.401 118.447 658.881 117.527C659.381 116.587 659.631 115.537 659.631 114.377C659.631 113.197 659.381 112.147 658.881 111.227C658.401 110.307 657.731 109.577 656.871 109.037C656.031 108.497 655.071 108.227 653.991 108.227C652.911 108.227 651.931 108.497 651.051 109.037C650.191 109.577 649.501 110.317 648.981 111.257C648.481 112.177 648.231 113.217 648.231 114.377C648.231 115.537 648.481 116.587 648.981 117.527C649.501 118.447 650.191 119.177 651.051 119.717C651.931 120.257 652.911 120.527 653.991 120.527ZM673.311 122.777C671.811 122.777 670.451 122.417 669.231 121.697C668.031 120.957 667.081 119.947 666.381 118.667C665.681 117.387 665.331 115.937 665.331 114.317C665.331 112.697 665.671 111.267 666.351 110.027C667.031 108.767 667.951 107.777 669.111 107.057C670.291 106.337 671.611 105.977 673.071 105.977C674.231 105.977 675.261 106.197 676.161 106.637C677.081 107.057 677.861 107.637 678.501 108.377C679.141 109.097 679.631 109.917 679.971 110.837C680.311 111.737 680.481 112.667 680.481 113.627C680.481 113.827 680.471 114.057 680.451 114.317C680.431 114.557 680.401 114.807 680.361 115.067H666.771V112.967H679.071L677.991 113.867C678.171 112.767 678.041 111.787 677.601 110.927C677.181 110.047 676.571 109.357 675.771 108.857C674.971 108.337 674.071 108.077 673.071 108.077C672.071 108.077 671.141 108.337 670.281 108.857C669.441 109.377 668.781 110.107 668.301 111.047C667.821 111.967 667.631 113.067 667.731 114.347C667.631 115.627 667.831 116.747 668.331 117.707C668.851 118.647 669.551 119.377 670.431 119.897C671.331 120.417 672.291 120.677 673.311 120.677C674.491 120.677 675.481 120.397 676.281 119.837C677.081 119.277 677.731 118.577 678.231 117.737L680.151 118.757C679.831 119.477 679.341 120.147 678.681 120.767C678.021 121.367 677.231 121.857 676.311 122.237C675.411 122.597 674.411 122.777 673.311 122.777ZM689.545 122.417V99.707H691.795V109.457L691.285 109.337C691.685 108.297 692.335 107.477 693.235 106.877C694.155 106.277 695.215 105.977 696.415 105.977C697.555 105.977 698.575 106.237 699.475 106.757C700.395 107.277 701.115 107.997 701.635 108.917C702.175 109.817 702.445 110.837 702.445 111.977V122.417H700.195V112.847C700.195 111.867 700.015 111.037 699.655 110.357C699.295 109.677 698.795 109.157 698.155 108.797C697.535 108.417 696.825 108.227 696.025 108.227C695.225 108.227 694.505 108.417 693.865 108.797C693.225 109.157 692.715 109.687 692.335 110.387C691.975 111.067 691.795 111.887 691.795 112.847V122.417H689.545ZM711.393 122.777C710.373 122.777 709.463 122.587 708.663 122.207C707.863 121.807 707.233 121.267 706.773 120.587C706.313 119.907 706.083 119.127 706.083 118.247C706.083 117.407 706.263 116.647 706.623 115.967C706.983 115.267 707.543 114.677 708.303 114.197C709.063 113.717 710.033 113.377 711.213 113.177L717.513 112.127V114.167L711.753 115.127C710.593 115.327 709.753 115.697 709.233 116.237C708.733 116.777 708.483 117.417 708.483 118.157C708.483 118.877 708.763 119.487 709.323 119.987C709.903 120.487 710.643 120.737 711.543 120.737C712.643 120.737 713.603 120.507 714.423 120.047C715.243 119.567 715.883 118.927 716.343 118.127C716.803 117.327 717.033 116.437 717.033 115.457V111.377C717.033 110.417 716.683 109.637 715.983 109.037C715.283 108.437 714.373 108.137 713.253 108.137C712.273 108.137 711.413 108.387 710.673 108.887C709.933 109.367 709.383 109.997 709.023 110.777L706.983 109.667C707.283 108.987 707.753 108.367 708.393 107.807C709.053 107.247 709.803 106.807 710.643 106.487C711.483 106.147 712.353 105.977 713.253 105.977C714.433 105.977 715.473 106.207 716.373 106.667C717.293 107.127 718.003 107.767 718.503 108.587C719.023 109.387 719.283 110.317 719.283 111.377V122.417H717.033V119.207L717.363 119.537C717.083 120.137 716.643 120.687 716.043 121.187C715.463 121.667 714.773 122.057 713.973 122.357C713.193 122.637 712.333 122.777 711.393 122.777ZM723.911 122.417V106.337H726.161V109.457L725.651 109.337C726.051 108.297 726.701 107.477 727.601 106.877C728.521 106.277 729.581 105.977 730.781 105.977C731.921 105.977 732.941 106.237 733.841 106.757C734.761 107.277 735.481 107.997 736.001 108.917C736.541 109.817 736.811 110.837 736.811 111.977V122.417H734.561V112.847C734.561 111.867 734.381 111.037 734.021 110.357C733.681 109.677 733.191 109.157 732.551 108.797C731.931 108.417 731.211 108.227 730.391 108.227C729.571 108.227 728.841 108.417 728.201 108.797C727.561 109.157 727.061 109.687 726.701 110.387C726.341 111.067 726.161 111.887 726.161 112.847V122.417H723.911ZM748.368 122.777C746.868 122.777 745.518 122.417 744.318 121.697C743.118 120.957 742.168 119.957 741.468 118.697C740.788 117.417 740.448 115.977 740.448 114.377C740.448 112.757 740.788 111.317 741.468 110.057C742.168 108.797 743.108 107.807 744.288 107.087C745.488 106.347 746.848 105.977 748.368 105.977C749.748 105.977 750.978 106.277 752.058 106.877C753.138 107.477 753.988 108.287 754.608 109.307L754.248 109.937V99.707H756.498V122.417H754.248V118.817L754.608 119.147C754.048 120.307 753.208 121.207 752.088 121.847C750.988 122.467 749.748 122.777 748.368 122.777ZM748.488 120.527C749.568 120.527 750.538 120.257 751.398 119.717C752.278 119.177 752.968 118.447 753.468 117.527C753.988 116.587 754.248 115.537 754.248 114.377C754.248 113.217 753.988 112.177 753.468 111.257C752.968 110.317 752.278 109.577 751.398 109.037C750.538 108.497 749.568 108.227 748.488 108.227C747.428 108.227 746.468 108.497 745.608 109.037C744.748 109.577 744.068 110.307 743.568 111.227C743.088 112.147 742.848 113.197 742.848 114.377C742.848 115.537 743.088 116.587 743.568 117.527C744.068 118.447 744.738 119.177 745.578 119.717C746.438 120.257 747.408 120.527 748.488 120.527ZM761.118 122.417V99.707H763.368V122.417H761.118ZM775.293 122.777C773.793 122.777 772.433 122.417 771.213 121.697C770.013 120.957 769.063 119.947 768.363 118.667C767.663 117.387 767.313 115.937 767.313 114.317C767.313 112.697 767.653 111.267 768.333 110.027C769.013 108.767 769.933 107.777 771.093 107.057C772.273 106.337 773.593 105.977 775.053 105.977C776.213 105.977 777.243 106.197 778.143 106.637C779.063 107.057 779.843 107.637 780.483 108.377C781.123 109.097 781.613 109.917 781.953 110.837C782.293 111.737 782.463 112.667 782.463 113.627C782.463 113.827 782.453 114.057 782.433 114.317C782.413 114.557 782.383 114.807 782.343 115.067H768.753V112.967H781.053L779.973 113.867C780.153 112.767 780.023 111.787 779.583 110.927C779.163 110.047 778.553 109.357 777.753 108.857C776.953 108.337 776.053 108.077 775.053 108.077C774.053 108.077 773.123 108.337 772.263 108.857C771.423 109.377 770.763 110.107 770.283 111.047C769.803 111.967 769.613 113.067 769.713 114.347C769.613 115.627 769.813 116.747 770.313 117.707C770.833 118.647 771.533 119.377 772.413 119.897C773.313 120.417 774.273 120.677 775.293 120.677C776.473 120.677 777.463 120.397 778.263 119.837C779.063 119.277 779.713 118.577 780.213 117.737L782.133 118.757C781.813 119.477 781.323 120.147 780.663 120.767C780.003 121.367 779.213 121.857 778.293 122.237C777.393 122.597 776.393 122.777 775.293 122.777ZM793.69 122.777C792.19 122.777 790.84 122.417 789.64 121.697C788.44 120.957 787.49 119.957 786.79 118.697C786.11 117.417 785.77 115.977 785.77 114.377C785.77 112.757 786.11 111.317 786.79 110.057C787.49 108.797 788.43 107.807 789.61 107.087C790.81 106.347 792.17 105.977 793.69 105.977C795.07 105.977 796.3 106.277 797.38 106.877C798.46 107.477 799.31 108.287 799.93 109.307L799.57 109.937V99.707H801.82V122.417H799.57V118.817L799.93 119.147C799.37 120.307 798.53 121.207 797.41 121.847C796.31 122.467 795.07 122.777 793.69 122.777ZM793.81 120.527C794.89 120.527 795.86 120.257 796.72 119.717C797.6 119.177 798.29 118.447 798.79 117.527C799.31 116.587 799.57 115.537 799.57 114.377C799.57 113.217 799.31 112.177 798.79 111.257C798.29 110.317 797.6 109.577 796.72 109.037C795.86 108.497 794.89 108.227 793.81 108.227C792.75 108.227 791.79 108.497 790.93 109.037C790.07 109.577 789.39 110.307 788.89 111.227C788.41 112.147 788.17 113.197 788.17 114.377C788.17 115.537 788.41 116.587 788.89 117.527C789.39 118.447 790.06 119.177 790.9 119.717C791.76 120.257 792.73 120.527 793.81 120.527Z" fill="#D6D6D6"/>
</svg>
