<svg width="530" height="186" viewBox="0 0 530 186" fill="none" xmlns="http://www.w3.org/2000/svg">
<rect x="1.11507" y="1.11507" width="527.77" height="183.77" rx="10.3834" stroke="#FFA2A2" stroke-width="1.76985"/>
<path d="M60.8041 84.417L55.2841 68.337H57.8341L62.3941 82.407H61.4941L65.7841 68.337H68.0341L72.3241 82.407H71.4241L76.0141 68.337H78.5341L73.0141 84.417H70.7641L66.5941 70.647H67.2241L63.0541 84.417H60.8041ZM81.1704 84.417V61.707H83.4204V71.457L82.9104 71.337C83.3104 70.297 83.9604 69.477 84.8604 68.877C85.7804 68.277 86.8404 67.977 88.0404 67.977C89.1804 67.977 90.2004 68.237 91.1004 68.757C92.0204 69.277 92.7404 69.997 93.2604 70.917C93.8004 71.817 94.0704 72.837 94.0704 73.977V84.417H91.8204V74.847C91.8204 73.867 91.6404 73.037 91.2804 72.357C90.9204 71.677 90.4204 71.157 89.7804 70.797C89.1604 70.417 88.4504 70.227 87.6504 70.227C86.8504 70.227 86.1304 70.417 85.4904 70.797C84.8504 71.157 84.3404 71.687 83.9604 72.387C83.6004 73.067 83.4204 73.887 83.4204 74.847V84.417H81.1704ZM103.018 84.777C101.998 84.777 101.088 84.587 100.288 84.207C99.4876 83.807 98.8576 83.267 98.3976 82.587C97.9376 81.907 97.7076 81.127 97.7076 80.247C97.7076 79.407 97.8876 78.647 98.2476 77.967C98.6076 77.267 99.1676 76.677 99.9276 76.197C100.688 75.717 101.658 75.377 102.838 75.177L109.138 74.127V76.167L103.378 77.127C102.218 77.327 101.378 77.697 100.858 78.237C100.358 78.777 100.108 79.417 100.108 80.157C100.108 80.877 100.388 81.487 100.948 81.987C101.528 82.487 102.268 82.737 103.168 82.737C104.268 82.737 105.228 82.507 106.048 82.047C106.868 81.567 107.508 80.927 107.968 80.127C108.428 79.327 108.658 78.437 108.658 77.457V73.377C108.658 72.417 108.308 71.637 107.608 71.037C106.908 70.437 105.998 70.137 104.878 70.137C103.898 70.137 103.038 70.387 102.298 70.887C101.558 71.367 101.008 71.997 100.648 72.777L98.6076 71.667C98.9076 70.987 99.3776 70.367 100.018 69.807C100.678 69.247 101.428 68.807 102.268 68.487C103.108 68.147 103.978 67.977 104.878 67.977C106.058 67.977 107.098 68.207 107.998 68.667C108.918 69.127 109.628 69.767 110.128 70.587C110.648 71.387 110.908 72.317 110.908 73.377V84.417H108.658V81.207L108.988 81.537C108.708 82.137 108.268 82.687 107.668 83.187C107.088 83.667 106.398 84.057 105.598 84.357C104.818 84.637 103.958 84.777 103.018 84.777ZM121.393 84.597C119.953 84.597 118.843 84.177 118.063 83.337C117.283 82.497 116.893 81.297 116.893 79.737V70.587H113.923V68.337H114.673C115.353 68.337 115.893 68.117 116.293 67.677C116.693 67.217 116.893 66.647 116.893 65.967V64.617H119.143V68.337H122.683V70.587H119.143V79.737C119.143 80.277 119.223 80.757 119.383 81.177C119.543 81.577 119.813 81.897 120.193 82.137C120.593 82.377 121.123 82.497 121.783 82.497C121.943 82.497 122.133 82.487 122.353 82.467C122.573 82.447 122.763 82.427 122.923 82.407V84.417C122.683 84.477 122.413 84.517 122.113 84.537C121.813 84.577 121.573 84.597 121.393 84.597ZM131.971 84.417V68.337H134.221V71.457L133.711 71.337C134.111 70.297 134.761 69.477 135.661 68.877C136.581 68.277 137.641 67.977 138.841 67.977C139.981 67.977 141.001 68.237 141.901 68.757C142.821 69.277 143.541 69.997 144.061 70.917C144.601 71.817 144.871 72.837 144.871 73.977V84.417H142.621V74.847C142.621 73.867 142.441 73.037 142.081 72.357C141.741 71.677 141.251 71.157 140.611 70.797C139.991 70.417 139.271 70.227 138.451 70.227C137.631 70.227 136.901 70.417 136.261 70.797C135.621 71.157 135.121 71.687 134.761 72.387C134.401 73.067 134.221 73.887 134.221 74.847V84.417H131.971ZM156.488 84.777C154.988 84.777 153.628 84.417 152.408 83.697C151.208 82.957 150.258 81.947 149.558 80.667C148.858 79.387 148.508 77.937 148.508 76.317C148.508 74.697 148.848 73.267 149.528 72.027C150.208 70.767 151.128 69.777 152.288 69.057C153.468 68.337 154.788 67.977 156.248 67.977C157.408 67.977 158.438 68.197 159.338 68.637C160.258 69.057 161.038 69.637 161.678 70.377C162.318 71.097 162.808 71.917 163.148 72.837C163.488 73.737 163.658 74.667 163.658 75.627C163.658 75.827 163.648 76.057 163.628 76.317C163.608 76.557 163.578 76.807 163.538 77.067H149.948V74.967H162.248L161.168 75.867C161.348 74.767 161.218 73.787 160.778 72.927C160.358 72.047 159.748 71.357 158.948 70.857C158.148 70.337 157.248 70.077 156.248 70.077C155.248 70.077 154.318 70.337 153.458 70.857C152.618 71.377 151.958 72.107 151.478 73.047C150.998 73.967 150.808 75.067 150.908 76.347C150.808 77.627 151.008 78.747 151.508 79.707C152.028 80.647 152.728 81.377 153.608 81.897C154.508 82.417 155.468 82.677 156.488 82.677C157.668 82.677 158.658 82.397 159.458 81.837C160.258 81.277 160.908 80.577 161.408 79.737L163.328 80.757C163.008 81.477 162.518 82.147 161.858 82.767C161.198 83.367 160.408 83.857 159.488 84.237C158.588 84.597 157.588 84.777 156.488 84.777ZM174.945 84.777C173.445 84.777 172.085 84.417 170.865 83.697C169.665 82.957 168.715 81.947 168.015 80.667C167.315 79.387 166.965 77.937 166.965 76.317C166.965 74.697 167.305 73.267 167.985 72.027C168.665 70.767 169.585 69.777 170.745 69.057C171.925 68.337 173.245 67.977 174.705 67.977C175.865 67.977 176.895 68.197 177.795 68.637C178.715 69.057 179.495 69.637 180.135 70.377C180.775 71.097 181.265 71.917 181.605 72.837C181.945 73.737 182.115 74.667 182.115 75.627C182.115 75.827 182.105 76.057 182.085 76.317C182.065 76.557 182.035 76.807 181.995 77.067H168.405V74.967H180.705L179.625 75.867C179.805 74.767 179.675 73.787 179.235 72.927C178.815 72.047 178.205 71.357 177.405 70.857C176.605 70.337 175.705 70.077 174.705 70.077C173.705 70.077 172.775 70.337 171.915 70.857C171.075 71.377 170.415 72.107 169.935 73.047C169.455 73.967 169.265 75.067 169.365 76.347C169.265 77.627 169.465 78.747 169.965 79.707C170.485 80.647 171.185 81.377 172.065 81.897C172.965 82.417 173.925 82.677 174.945 82.677C176.125 82.677 177.115 82.397 177.915 81.837C178.715 81.277 179.365 80.577 179.865 79.737L181.785 80.757C181.465 81.477 180.975 82.147 180.315 82.767C179.655 83.367 178.865 83.857 177.945 84.237C177.045 84.597 176.045 84.777 174.945 84.777ZM193.342 84.777C191.842 84.777 190.492 84.417 189.292 83.697C188.092 82.957 187.142 81.957 186.442 80.697C185.762 79.417 185.422 77.977 185.422 76.377C185.422 74.757 185.762 73.317 186.442 72.057C187.142 70.797 188.082 69.807 189.262 69.087C190.462 68.347 191.822 67.977 193.342 67.977C194.722 67.977 195.952 68.277 197.032 68.877C198.112 69.477 198.962 70.287 199.582 71.307L199.222 71.937V61.707H201.472V84.417H199.222V80.817L199.582 81.147C199.022 82.307 198.182 83.207 197.062 83.847C195.962 84.467 194.722 84.777 193.342 84.777ZM193.462 82.527C194.542 82.527 195.512 82.257 196.372 81.717C197.252 81.177 197.942 80.447 198.442 79.527C198.962 78.587 199.222 77.537 199.222 76.377C199.222 75.217 198.962 74.177 198.442 73.257C197.942 72.317 197.252 71.577 196.372 71.037C195.512 70.497 194.542 70.227 193.462 70.227C192.402 70.227 191.442 70.497 190.582 71.037C189.722 71.577 189.042 72.307 188.542 73.227C188.062 74.147 187.822 75.197 187.822 76.377C187.822 77.537 188.062 78.587 188.542 79.527C189.042 80.447 189.712 81.177 190.552 81.717C191.412 82.257 192.382 82.527 193.462 82.527ZM211.672 84.777C210.132 84.777 208.782 84.387 207.622 83.607C206.462 82.827 205.622 81.767 205.102 80.427L206.992 79.527C207.452 80.507 208.092 81.287 208.912 81.867C209.752 82.447 210.672 82.737 211.672 82.737C212.632 82.737 213.442 82.507 214.102 82.047C214.762 81.567 215.092 80.947 215.092 80.187C215.092 79.627 214.932 79.187 214.612 78.867C214.292 78.527 213.922 78.267 213.502 78.087C213.082 77.907 212.712 77.777 212.392 77.697L210.082 77.037C208.602 76.617 207.532 76.027 206.872 75.267C206.212 74.507 205.882 73.627 205.882 72.627C205.882 71.687 206.122 70.867 206.602 70.167C207.082 69.467 207.732 68.927 208.552 68.547C209.372 68.167 210.282 67.977 211.282 67.977C212.642 67.977 213.872 68.337 214.972 69.057C216.092 69.757 216.882 70.737 217.342 71.997L215.422 72.897C215.022 71.997 214.442 71.297 213.682 70.797C212.942 70.277 212.112 70.017 211.192 70.017C210.292 70.017 209.572 70.247 209.032 70.707C208.492 71.167 208.222 71.747 208.222 72.447C208.222 72.987 208.362 73.417 208.642 73.737C208.922 74.057 209.242 74.297 209.602 74.457C209.982 74.617 210.312 74.737 210.592 74.817L213.262 75.597C214.562 75.977 215.572 76.567 216.292 77.367C217.032 78.167 217.402 79.107 217.402 80.187C217.402 81.067 217.152 81.857 216.652 82.557C216.172 83.257 215.502 83.807 214.642 84.207C213.782 84.587 212.792 84.777 211.672 84.777ZM68.1163 122.597C66.6763 122.597 65.5663 122.177 64.7863 121.337C64.0063 120.497 63.6162 119.297 63.6162 117.737V108.587H60.6462V106.337H61.3963C62.0763 106.337 62.6163 106.117 63.0163 105.677C63.4163 105.217 63.6162 104.647 63.6162 103.967V102.617H65.8663V106.337H69.4063V108.587H65.8663V117.737C65.8663 118.277 65.9463 118.757 66.1063 119.177C66.2663 119.577 66.5363 119.897 66.9163 120.137C67.3163 120.377 67.8463 120.497 68.5063 120.497C68.6663 120.497 68.8563 120.487 69.0763 120.467C69.2963 120.447 69.4863 120.427 69.6463 120.407V122.417C69.4063 122.477 69.1363 122.517 68.8363 122.537C68.5363 122.577 68.2963 122.597 68.1163 122.597ZM80.5412 122.777C79.0212 122.777 77.6412 122.417 76.4012 121.697C75.1612 120.957 74.1712 119.957 73.4312 118.697C72.7112 117.417 72.3512 115.967 72.3512 114.347C72.3512 112.747 72.7112 111.317 73.4312 110.057C74.1512 108.797 75.1212 107.807 76.3412 107.087C77.5812 106.347 78.9812 105.977 80.5412 105.977C82.1012 105.977 83.4912 106.337 84.7112 107.057C85.9512 107.777 86.9212 108.767 87.6212 110.027C88.3412 111.287 88.7012 112.727 88.7012 114.347C88.7012 115.987 88.3312 117.447 87.5912 118.727C86.8512 119.987 85.8612 120.977 84.6212 121.697C83.4012 122.417 82.0412 122.777 80.5412 122.777ZM80.5412 120.527C81.6212 120.527 82.5912 120.257 83.4512 119.717C84.3312 119.177 85.0212 118.437 85.5212 117.497C86.0412 116.557 86.3012 115.507 86.3012 114.347C86.3012 113.187 86.0412 112.147 85.5212 111.227C85.0212 110.307 84.3312 109.577 83.4512 109.037C82.5912 108.497 81.6212 108.227 80.5412 108.227C79.4612 108.227 78.4812 108.497 77.6012 109.037C76.7412 109.577 76.0512 110.307 75.5312 111.227C75.0112 112.147 74.7512 113.187 74.7512 114.347C74.7512 115.507 75.0112 116.557 75.5312 117.497C76.0512 118.437 76.7412 119.177 77.6012 119.717C78.4812 120.257 79.4612 120.527 80.5412 120.527ZM105.897 122.777C104.517 122.777 103.267 122.467 102.147 121.847C101.047 121.207 100.217 120.307 99.657 119.147L100.017 118.817V122.417H97.767V99.707H100.017V109.937L99.657 109.307C100.297 108.287 101.147 107.477 102.207 106.877C103.287 106.277 104.517 105.977 105.897 105.977C107.417 105.977 108.767 106.347 109.947 107.087C111.147 107.807 112.087 108.797 112.767 110.057C113.467 111.317 113.817 112.757 113.817 114.377C113.817 115.977 113.467 117.417 112.767 118.697C112.087 119.957 111.147 120.957 109.947 121.697C108.767 122.417 107.417 122.777 105.897 122.777ZM105.777 120.527C106.857 120.527 107.817 120.257 108.657 119.717C109.517 119.177 110.187 118.447 110.667 117.527C111.167 116.587 111.417 115.537 111.417 114.377C111.417 113.197 111.167 112.147 110.667 111.227C110.187 110.307 109.517 109.577 108.657 109.037C107.817 108.497 106.857 108.227 105.777 108.227C104.697 108.227 103.717 108.497 102.837 109.037C101.977 109.577 101.287 110.317 100.767 111.257C100.267 112.177 100.017 113.217 100.017 114.377C100.017 115.537 100.267 116.587 100.767 117.527C101.287 118.447 101.977 119.177 102.837 119.717C103.717 120.257 104.697 120.527 105.777 120.527ZM125.097 122.777C123.597 122.777 122.237 122.417 121.017 121.697C119.817 120.957 118.867 119.947 118.167 118.667C117.467 117.387 117.117 115.937 117.117 114.317C117.117 112.697 117.457 111.267 118.137 110.027C118.817 108.767 119.737 107.777 120.897 107.057C122.077 106.337 123.397 105.977 124.857 105.977C126.017 105.977 127.047 106.197 127.947 106.637C128.867 107.057 129.647 107.637 130.287 108.377C130.927 109.097 131.417 109.917 131.757 110.837C132.097 111.737 132.267 112.667 132.267 113.627C132.267 113.827 132.257 114.057 132.237 114.317C132.217 114.557 132.187 114.807 132.147 115.067H118.557V112.967H130.857L129.777 113.867C129.957 112.767 129.827 111.787 129.387 110.927C128.967 110.047 128.357 109.357 127.557 108.857C126.757 108.337 125.857 108.077 124.857 108.077C123.857 108.077 122.927 108.337 122.067 108.857C121.227 109.377 120.567 110.107 120.087 111.047C119.607 111.967 119.417 113.067 119.517 114.347C119.417 115.627 119.617 116.747 120.117 117.707C120.637 118.647 121.337 119.377 122.217 119.897C123.117 120.417 124.077 120.677 125.097 120.677C126.277 120.677 127.267 120.397 128.067 119.837C128.867 119.277 129.517 118.577 130.017 117.737L131.937 118.757C131.617 119.477 131.127 120.147 130.467 120.767C129.807 121.367 129.017 121.857 128.097 122.237C127.197 122.597 126.197 122.777 125.097 122.777ZM148.591 122.777C147.091 122.777 145.741 122.417 144.541 121.697C143.341 120.957 142.391 119.957 141.691 118.697C141.011 117.417 140.671 115.977 140.671 114.377C140.671 112.757 141.011 111.317 141.691 110.057C142.391 108.797 143.331 107.807 144.511 107.087C145.711 106.347 147.071 105.977 148.591 105.977C149.971 105.977 151.201 106.277 152.281 106.877C153.361 107.477 154.211 108.287 154.831 109.307L154.471 109.937V99.707H156.721V122.417H154.471V118.817L154.831 119.147C154.271 120.307 153.431 121.207 152.311 121.847C151.211 122.467 149.971 122.777 148.591 122.777ZM148.711 120.527C149.791 120.527 150.761 120.257 151.621 119.717C152.501 119.177 153.191 118.447 153.691 117.527C154.211 116.587 154.471 115.537 154.471 114.377C154.471 113.217 154.211 112.177 153.691 111.257C153.191 110.317 152.501 109.577 151.621 109.037C150.761 108.497 149.791 108.227 148.711 108.227C147.651 108.227 146.691 108.497 145.831 109.037C144.971 109.577 144.291 110.307 143.791 111.227C143.311 112.147 143.071 113.197 143.071 114.377C143.071 115.537 143.311 116.587 143.791 117.527C144.291 118.447 144.961 119.177 145.801 119.717C146.661 120.257 147.631 120.527 148.711 120.527ZM168.871 122.777C167.351 122.777 165.971 122.417 164.731 121.697C163.491 120.957 162.501 119.957 161.761 118.697C161.041 117.417 160.681 115.967 160.681 114.347C160.681 112.747 161.041 111.317 161.761 110.057C162.481 108.797 163.451 107.807 164.671 107.087C165.911 106.347 167.311 105.977 168.871 105.977C170.431 105.977 171.821 106.337 173.041 107.057C174.281 107.777 175.251 108.767 175.951 110.027C176.671 111.287 177.031 112.727 177.031 114.347C177.031 115.987 176.661 117.447 175.921 118.727C175.181 119.987 174.191 120.977 172.951 121.697C171.731 122.417 170.371 122.777 168.871 122.777ZM168.871 120.527C169.951 120.527 170.921 120.257 171.781 119.717C172.661 119.177 173.351 118.437 173.851 117.497C174.371 116.557 174.631 115.507 174.631 114.347C174.631 113.187 174.371 112.147 173.851 111.227C173.351 110.307 172.661 109.577 171.781 109.037C170.921 108.497 169.951 108.227 168.871 108.227C167.791 108.227 166.811 108.497 165.931 109.037C165.071 109.577 164.381 110.307 163.861 111.227C163.341 112.147 163.081 113.187 163.081 114.347C163.081 115.507 163.341 116.557 163.861 117.497C164.381 118.437 165.071 119.177 165.931 119.717C166.811 120.257 167.791 120.527 168.871 120.527ZM180.999 122.417V106.337H183.249V109.457L182.739 109.337C183.139 108.297 183.789 107.477 184.689 106.877C185.609 106.277 186.669 105.977 187.869 105.977C189.009 105.977 190.029 106.237 190.929 106.757C191.849 107.277 192.569 107.997 193.089 108.917C193.629 109.817 193.899 110.837 193.899 111.977V122.417H191.649V112.847C191.649 111.867 191.469 111.037 191.109 110.357C190.769 109.677 190.279 109.157 189.639 108.797C189.019 108.417 188.299 108.227 187.479 108.227C186.659 108.227 185.929 108.417 185.289 108.797C184.649 109.157 184.149 109.687 183.789 110.387C183.429 111.067 183.249 111.887 183.249 112.847V122.417H180.999ZM205.517 122.777C204.017 122.777 202.657 122.417 201.437 121.697C200.237 120.957 199.287 119.947 198.587 118.667C197.887 117.387 197.537 115.937 197.537 114.317C197.537 112.697 197.877 111.267 198.557 110.027C199.237 108.767 200.157 107.777 201.317 107.057C202.497 106.337 203.817 105.977 205.277 105.977C206.437 105.977 207.467 106.197 208.367 106.637C209.287 107.057 210.067 107.637 210.707 108.377C211.347 109.097 211.837 109.917 212.177 110.837C212.517 111.737 212.687 112.667 212.687 113.627C212.687 113.827 212.677 114.057 212.657 114.317C212.637 114.557 212.607 114.807 212.567 115.067H198.977V112.967H211.277L210.197 113.867C210.377 112.767 210.247 111.787 209.807 110.927C209.387 110.047 208.777 109.357 207.977 108.857C207.177 108.337 206.277 108.077 205.277 108.077C204.277 108.077 203.347 108.337 202.487 108.857C201.647 109.377 200.987 110.107 200.507 111.047C200.027 111.967 199.837 113.067 199.937 114.347C199.837 115.627 200.037 116.747 200.537 117.707C201.057 118.647 201.757 119.377 202.637 119.897C203.537 120.417 204.497 120.677 205.517 120.677C206.697 120.677 207.687 120.397 208.487 119.837C209.287 119.277 209.937 118.577 210.437 117.737L212.357 118.757C212.037 119.477 211.547 120.147 210.887 120.767C210.227 121.367 209.437 121.857 208.517 122.237C207.617 122.597 206.617 122.777 205.517 122.777Z" fill="#D6D6D6"/>
<path d="M247.883 103.417V97.027H241.493V94.777H247.883V88.417H250.133V94.777H256.493V97.027H250.133V103.417H247.883Z" fill="#D6D6D6"/>
<path d="M290.042 84.417V61.707H292.292V71.457L291.782 71.337C292.182 70.297 292.832 69.477 293.732 68.877C294.652 68.277 295.712 67.977 296.912 67.977C298.052 67.977 299.072 68.237 299.972 68.757C300.892 69.277 301.612 69.997 302.132 70.917C302.672 71.817 302.942 72.837 302.942 73.977V84.417H300.692V74.847C300.692 73.867 300.512 73.037 300.152 72.357C299.792 71.677 299.292 71.157 298.652 70.797C298.032 70.417 297.322 70.227 296.522 70.227C295.722 70.227 295.002 70.417 294.362 70.797C293.722 71.157 293.212 71.687 292.832 72.387C292.472 73.067 292.292 73.887 292.292 74.847V84.417H290.042ZM314.77 84.777C313.25 84.777 311.87 84.417 310.63 83.697C309.39 82.957 308.4 81.957 307.66 80.697C306.94 79.417 306.58 77.967 306.58 76.347C306.58 74.747 306.94 73.317 307.66 72.057C308.38 70.797 309.35 69.807 310.57 69.087C311.81 68.347 313.21 67.977 314.77 67.977C316.33 67.977 317.72 68.337 318.94 69.057C320.18 69.777 321.15 70.767 321.85 72.027C322.57 73.287 322.93 74.727 322.93 76.347C322.93 77.987 322.56 79.447 321.82 80.727C321.08 81.987 320.09 82.977 318.85 83.697C317.63 84.417 316.27 84.777 314.77 84.777ZM314.77 82.527C315.85 82.527 316.82 82.257 317.68 81.717C318.56 81.177 319.25 80.437 319.75 79.497C320.27 78.557 320.53 77.507 320.53 76.347C320.53 75.187 320.27 74.147 319.75 73.227C319.25 72.307 318.56 71.577 317.68 71.037C316.82 70.497 315.85 70.227 314.77 70.227C313.69 70.227 312.71 70.497 311.83 71.037C310.97 71.577 310.28 72.307 309.76 73.227C309.24 74.147 308.98 75.187 308.98 76.347C308.98 77.507 309.24 78.557 309.76 79.497C310.28 80.437 310.97 81.177 311.83 81.717C312.71 82.257 313.69 82.527 314.77 82.527ZM330.145 84.417L324.625 68.337H327.175L331.735 82.407H330.835L335.125 68.337H337.375L341.665 82.407H340.765L345.355 68.337H347.875L342.355 84.417H340.105L335.935 70.647H336.565L332.395 84.417H330.145ZM355.609 84.417V68.337H357.859V84.417H355.609ZM355.609 65.367V62.067H357.859V65.367H355.609ZM368.614 84.597C367.174 84.597 366.064 84.177 365.284 83.337C364.504 82.497 364.114 81.297 364.114 79.737V70.587H361.144V68.337H361.894C362.574 68.337 363.114 68.117 363.514 67.677C363.914 67.217 364.114 66.647 364.114 65.967V64.617H366.364V68.337H369.904V70.587H366.364V79.737C366.364 80.277 366.444 80.757 366.604 81.177C366.764 81.577 367.034 81.897 367.414 82.137C367.814 82.377 368.344 82.497 369.004 82.497C369.164 82.497 369.354 82.487 369.574 82.467C369.794 82.447 369.984 82.427 370.144 82.407V84.417C369.904 84.477 369.634 84.517 369.334 84.537C369.034 84.577 368.794 84.597 368.614 84.597ZM379.193 84.417V68.337H381.443V71.457L380.933 71.337C381.333 70.297 381.983 69.477 382.883 68.877C383.803 68.277 384.863 67.977 386.063 67.977C387.203 67.977 388.223 68.237 389.123 68.757C390.043 69.277 390.763 69.997 391.283 70.917C391.823 71.817 392.093 72.837 392.093 73.977V84.417H389.843V74.847C389.843 73.867 389.663 73.037 389.303 72.357C388.963 71.677 388.473 71.157 387.833 70.797C387.213 70.417 386.493 70.227 385.673 70.227C384.853 70.227 384.123 70.417 383.483 70.797C382.843 71.157 382.343 71.687 381.983 72.387C381.623 73.067 381.443 73.887 381.443 74.847V84.417H379.193ZM403.71 84.777C402.21 84.777 400.85 84.417 399.63 83.697C398.43 82.957 397.48 81.947 396.78 80.667C396.08 79.387 395.73 77.937 395.73 76.317C395.73 74.697 396.07 73.267 396.75 72.027C397.43 70.767 398.35 69.777 399.51 69.057C400.69 68.337 402.01 67.977 403.47 67.977C404.63 67.977 405.66 68.197 406.56 68.637C407.48 69.057 408.26 69.637 408.9 70.377C409.54 71.097 410.03 71.917 410.37 72.837C410.71 73.737 410.88 74.667 410.88 75.627C410.88 75.827 410.87 76.057 410.85 76.317C410.83 76.557 410.8 76.807 410.76 77.067H397.17V74.967H409.47L408.39 75.867C408.57 74.767 408.44 73.787 408 72.927C407.58 72.047 406.97 71.357 406.17 70.857C405.37 70.337 404.47 70.077 403.47 70.077C402.47 70.077 401.54 70.337 400.68 70.857C399.84 71.377 399.18 72.107 398.7 73.047C398.22 73.967 398.03 75.067 398.13 76.347C398.03 77.627 398.23 78.747 398.73 79.707C399.25 80.647 399.95 81.377 400.83 81.897C401.73 82.417 402.69 82.677 403.71 82.677C404.89 82.677 405.88 82.397 406.68 81.837C407.48 81.277 408.13 80.577 408.63 79.737L410.55 80.757C410.23 81.477 409.74 82.147 409.08 82.767C408.42 83.367 407.63 83.857 406.71 84.237C405.81 84.597 404.81 84.777 403.71 84.777ZM422.167 84.777C420.667 84.777 419.307 84.417 418.087 83.697C416.887 82.957 415.937 81.947 415.237 80.667C414.537 79.387 414.187 77.937 414.187 76.317C414.187 74.697 414.527 73.267 415.207 72.027C415.887 70.767 416.807 69.777 417.967 69.057C419.147 68.337 420.467 67.977 421.927 67.977C423.087 67.977 424.117 68.197 425.017 68.637C425.937 69.057 426.717 69.637 427.357 70.377C427.997 71.097 428.487 71.917 428.827 72.837C429.167 73.737 429.337 74.667 429.337 75.627C429.337 75.827 429.327 76.057 429.307 76.317C429.287 76.557 429.257 76.807 429.217 77.067H415.627V74.967H427.927L426.847 75.867C427.027 74.767 426.897 73.787 426.457 72.927C426.037 72.047 425.427 71.357 424.627 70.857C423.827 70.337 422.927 70.077 421.927 70.077C420.927 70.077 419.997 70.337 419.137 70.857C418.297 71.377 417.637 72.107 417.157 73.047C416.677 73.967 416.487 75.067 416.587 76.347C416.487 77.627 416.687 78.747 417.187 79.707C417.707 80.647 418.407 81.377 419.287 81.897C420.187 82.417 421.147 82.677 422.167 82.677C423.347 82.677 424.337 82.397 425.137 81.837C425.937 81.277 426.587 80.577 427.087 79.737L429.007 80.757C428.687 81.477 428.197 82.147 427.537 82.767C426.877 83.367 426.087 83.857 425.167 84.237C424.267 84.597 423.267 84.777 422.167 84.777ZM440.564 84.777C439.064 84.777 437.714 84.417 436.514 83.697C435.314 82.957 434.364 81.957 433.664 80.697C432.984 79.417 432.644 77.977 432.644 76.377C432.644 74.757 432.984 73.317 433.664 72.057C434.364 70.797 435.304 69.807 436.484 69.087C437.684 68.347 439.044 67.977 440.564 67.977C441.944 67.977 443.174 68.277 444.254 68.877C445.334 69.477 446.184 70.287 446.804 71.307L446.444 71.937V61.707H448.694V84.417H446.444V80.817L446.804 81.147C446.244 82.307 445.404 83.207 444.284 83.847C443.184 84.467 441.944 84.777 440.564 84.777ZM440.684 82.527C441.764 82.527 442.734 82.257 443.594 81.717C444.474 81.177 445.164 80.447 445.664 79.527C446.184 78.587 446.444 77.537 446.444 76.377C446.444 75.217 446.184 74.177 445.664 73.257C445.164 72.317 444.474 71.577 443.594 71.037C442.734 70.497 441.764 70.227 440.684 70.227C439.624 70.227 438.664 70.497 437.804 71.037C436.944 71.577 436.264 72.307 435.764 73.227C435.284 74.147 435.044 75.197 435.044 76.377C435.044 77.537 435.284 78.587 435.764 79.527C436.264 80.447 436.934 81.177 437.774 81.717C438.634 82.257 439.604 82.527 440.684 82.527ZM458.894 84.777C457.354 84.777 456.004 84.387 454.844 83.607C453.684 82.827 452.844 81.767 452.324 80.427L454.214 79.527C454.674 80.507 455.314 81.287 456.134 81.867C456.974 82.447 457.894 82.737 458.894 82.737C459.854 82.737 460.664 82.507 461.324 82.047C461.984 81.567 462.314 80.947 462.314 80.187C462.314 79.627 462.154 79.187 461.834 78.867C461.514 78.527 461.144 78.267 460.724 78.087C460.304 77.907 459.934 77.777 459.614 77.697L457.304 77.037C455.824 76.617 454.754 76.027 454.094 75.267C453.434 74.507 453.104 73.627 453.104 72.627C453.104 71.687 453.344 70.867 453.824 70.167C454.304 69.467 454.954 68.927 455.774 68.547C456.594 68.167 457.504 67.977 458.504 67.977C459.864 67.977 461.094 68.337 462.194 69.057C463.314 69.757 464.104 70.737 464.564 71.997L462.644 72.897C462.244 71.997 461.664 71.297 460.904 70.797C460.164 70.277 459.334 70.017 458.414 70.017C457.514 70.017 456.794 70.247 456.254 70.707C455.714 71.167 455.444 71.747 455.444 72.447C455.444 72.987 455.584 73.417 455.864 73.737C456.144 74.057 456.464 74.297 456.824 74.457C457.204 74.617 457.534 74.737 457.814 74.817L460.484 75.597C461.784 75.977 462.794 76.567 463.514 77.367C464.254 78.167 464.624 79.107 464.624 80.187C464.624 81.067 464.374 81.857 463.874 82.557C463.394 83.257 462.724 83.807 461.864 84.207C461.004 84.587 460.014 84.777 458.894 84.777ZM287.33 122.597C285.89 122.597 284.78 122.177 284 121.337C283.22 120.497 282.83 119.297 282.83 117.737V108.587H279.86V106.337H280.61C281.29 106.337 281.83 106.117 282.23 105.677C282.63 105.217 282.83 104.647 282.83 103.967V102.617H285.08V106.337H288.62V108.587H285.08V117.737C285.08 118.277 285.16 118.757 285.32 119.177C285.48 119.577 285.75 119.897 286.13 120.137C286.53 120.377 287.06 120.497 287.72 120.497C287.88 120.497 288.07 120.487 288.29 120.467C288.51 120.447 288.7 120.427 288.86 120.407V122.417C288.62 122.477 288.35 122.517 288.05 122.537C287.75 122.577 287.51 122.597 287.33 122.597ZM299.755 122.777C298.235 122.777 296.855 122.417 295.615 121.697C294.375 120.957 293.385 119.957 292.645 118.697C291.925 117.417 291.565 115.967 291.565 114.347C291.565 112.747 291.925 111.317 292.645 110.057C293.365 108.797 294.335 107.807 295.555 107.087C296.795 106.347 298.195 105.977 299.755 105.977C301.315 105.977 302.705 106.337 303.925 107.057C305.165 107.777 306.135 108.767 306.835 110.027C307.555 111.287 307.915 112.727 307.915 114.347C307.915 115.987 307.545 117.447 306.805 118.727C306.065 119.987 305.075 120.977 303.835 121.697C302.615 122.417 301.255 122.777 299.755 122.777ZM299.755 120.527C300.835 120.527 301.805 120.257 302.665 119.717C303.545 119.177 304.235 118.437 304.735 117.497C305.255 116.557 305.515 115.507 305.515 114.347C305.515 113.187 305.255 112.147 304.735 111.227C304.235 110.307 303.545 109.577 302.665 109.037C301.805 108.497 300.835 108.227 299.755 108.227C298.675 108.227 297.695 108.497 296.815 109.037C295.955 109.577 295.265 110.307 294.745 111.227C294.225 112.147 293.965 113.187 293.965 114.347C293.965 115.507 294.225 116.557 294.745 117.497C295.265 118.437 295.955 119.177 296.815 119.717C297.695 120.257 298.675 120.527 299.755 120.527ZM325.111 122.777C323.731 122.777 322.481 122.467 321.361 121.847C320.261 121.207 319.431 120.307 318.871 119.147L319.231 118.817V122.417H316.981V99.707H319.231V109.937L318.871 109.307C319.511 108.287 320.361 107.477 321.421 106.877C322.501 106.277 323.731 105.977 325.111 105.977C326.631 105.977 327.981 106.347 329.161 107.087C330.361 107.807 331.301 108.797 331.981 110.057C332.681 111.317 333.031 112.757 333.031 114.377C333.031 115.977 332.681 117.417 331.981 118.697C331.301 119.957 330.361 120.957 329.161 121.697C327.981 122.417 326.631 122.777 325.111 122.777ZM324.991 120.527C326.071 120.527 327.031 120.257 327.871 119.717C328.731 119.177 329.401 118.447 329.881 117.527C330.381 116.587 330.631 115.537 330.631 114.377C330.631 113.197 330.381 112.147 329.881 111.227C329.401 110.307 328.731 109.577 327.871 109.037C327.031 108.497 326.071 108.227 324.991 108.227C323.911 108.227 322.931 108.497 322.051 109.037C321.191 109.577 320.501 110.317 319.981 111.257C319.481 112.177 319.231 113.217 319.231 114.377C319.231 115.537 319.481 116.587 319.981 117.527C320.501 118.447 321.191 119.177 322.051 119.717C322.931 120.257 323.911 120.527 324.991 120.527ZM344.311 122.777C342.811 122.777 341.451 122.417 340.231 121.697C339.031 120.957 338.081 119.947 337.381 118.667C336.681 117.387 336.331 115.937 336.331 114.317C336.331 112.697 336.671 111.267 337.351 110.027C338.031 108.767 338.951 107.777 340.111 107.057C341.291 106.337 342.611 105.977 344.071 105.977C345.231 105.977 346.261 106.197 347.161 106.637C348.081 107.057 348.861 107.637 349.501 108.377C350.141 109.097 350.631 109.917 350.971 110.837C351.311 111.737 351.481 112.667 351.481 113.627C351.481 113.827 351.471 114.057 351.451 114.317C351.431 114.557 351.401 114.807 351.361 115.067H337.771V112.967H350.071L348.991 113.867C349.171 112.767 349.041 111.787 348.601 110.927C348.181 110.047 347.571 109.357 346.771 108.857C345.971 108.337 345.071 108.077 344.071 108.077C343.071 108.077 342.141 108.337 341.281 108.857C340.441 109.377 339.781 110.107 339.301 111.047C338.821 111.967 338.631 113.067 338.731 114.347C338.631 115.627 338.831 116.747 339.331 117.707C339.851 118.647 340.551 119.377 341.431 119.897C342.331 120.417 343.291 120.677 344.311 120.677C345.491 120.677 346.481 120.397 347.281 119.837C348.081 119.277 348.731 118.577 349.231 117.737L351.151 118.757C350.831 119.477 350.341 120.147 349.681 120.767C349.021 121.367 348.231 121.857 347.311 122.237C346.411 122.597 345.411 122.777 344.311 122.777ZM360.545 122.417V99.707H362.795V109.457L362.285 109.337C362.685 108.297 363.335 107.477 364.235 106.877C365.155 106.277 366.215 105.977 367.415 105.977C368.555 105.977 369.575 106.237 370.475 106.757C371.395 107.277 372.115 107.997 372.635 108.917C373.175 109.817 373.445 110.837 373.445 111.977V122.417H371.195V112.847C371.195 111.867 371.015 111.037 370.655 110.357C370.295 109.677 369.795 109.157 369.155 108.797C368.535 108.417 367.825 108.227 367.025 108.227C366.225 108.227 365.505 108.417 364.865 108.797C364.225 109.157 363.715 109.687 363.335 110.387C362.975 111.067 362.795 111.887 362.795 112.847V122.417H360.545ZM382.393 122.777C381.373 122.777 380.463 122.587 379.663 122.207C378.863 121.807 378.233 121.267 377.773 120.587C377.313 119.907 377.083 119.127 377.083 118.247C377.083 117.407 377.263 116.647 377.623 115.967C377.983 115.267 378.543 114.677 379.303 114.197C380.063 113.717 381.033 113.377 382.213 113.177L388.513 112.127V114.167L382.753 115.127C381.593 115.327 380.753 115.697 380.233 116.237C379.733 116.777 379.483 117.417 379.483 118.157C379.483 118.877 379.763 119.487 380.323 119.987C380.903 120.487 381.643 120.737 382.543 120.737C383.643 120.737 384.603 120.507 385.423 120.047C386.243 119.567 386.883 118.927 387.343 118.127C387.803 117.327 388.033 116.437 388.033 115.457V111.377C388.033 110.417 387.683 109.637 386.983 109.037C386.283 108.437 385.373 108.137 384.253 108.137C383.273 108.137 382.413 108.387 381.673 108.887C380.933 109.367 380.383 109.997 380.023 110.777L377.983 109.667C378.283 108.987 378.753 108.367 379.393 107.807C380.053 107.247 380.803 106.807 381.643 106.487C382.483 106.147 383.353 105.977 384.253 105.977C385.433 105.977 386.473 106.207 387.373 106.667C388.293 107.127 389.003 107.767 389.503 108.587C390.023 109.387 390.283 110.317 390.283 111.377V122.417H388.033V119.207L388.363 119.537C388.083 120.137 387.643 120.687 387.043 121.187C386.463 121.667 385.773 122.057 384.973 122.357C384.193 122.637 383.333 122.777 382.393 122.777ZM394.911 122.417V106.337H397.161V109.457L396.651 109.337C397.051 108.297 397.701 107.477 398.601 106.877C399.521 106.277 400.581 105.977 401.781 105.977C402.921 105.977 403.941 106.237 404.841 106.757C405.761 107.277 406.481 107.997 407.001 108.917C407.541 109.817 407.811 110.837 407.811 111.977V122.417H405.561V112.847C405.561 111.867 405.381 111.037 405.021 110.357C404.681 109.677 404.191 109.157 403.551 108.797C402.931 108.417 402.211 108.227 401.391 108.227C400.571 108.227 399.841 108.417 399.201 108.797C398.561 109.157 398.061 109.687 397.701 110.387C397.341 111.067 397.161 111.887 397.161 112.847V122.417H394.911ZM419.368 122.777C417.868 122.777 416.518 122.417 415.318 121.697C414.118 120.957 413.168 119.957 412.468 118.697C411.788 117.417 411.448 115.977 411.448 114.377C411.448 112.757 411.788 111.317 412.468 110.057C413.168 108.797 414.108 107.807 415.288 107.087C416.488 106.347 417.848 105.977 419.368 105.977C420.748 105.977 421.978 106.277 423.058 106.877C424.138 107.477 424.988 108.287 425.608 109.307L425.248 109.937V99.707H427.498V122.417H425.248V118.817L425.608 119.147C425.048 120.307 424.208 121.207 423.088 121.847C421.988 122.467 420.748 122.777 419.368 122.777ZM419.488 120.527C420.568 120.527 421.538 120.257 422.398 119.717C423.278 119.177 423.968 118.447 424.468 117.527C424.988 116.587 425.248 115.537 425.248 114.377C425.248 113.217 424.988 112.177 424.468 111.257C423.968 110.317 423.278 109.577 422.398 109.037C421.538 108.497 420.568 108.227 419.488 108.227C418.428 108.227 417.468 108.497 416.608 109.037C415.748 109.577 415.068 110.307 414.568 111.227C414.088 112.147 413.848 113.197 413.848 114.377C413.848 115.537 414.088 116.587 414.568 117.527C415.068 118.447 415.738 119.177 416.578 119.717C417.438 120.257 418.408 120.527 419.488 120.527ZM432.118 122.417V99.707H434.368V122.417H432.118ZM446.293 122.777C444.793 122.777 443.433 122.417 442.213 121.697C441.013 120.957 440.063 119.947 439.363 118.667C438.663 117.387 438.313 115.937 438.313 114.317C438.313 112.697 438.653 111.267 439.333 110.027C440.013 108.767 440.933 107.777 442.093 107.057C443.273 106.337 444.593 105.977 446.053 105.977C447.213 105.977 448.243 106.197 449.143 106.637C450.063 107.057 450.843 107.637 451.483 108.377C452.123 109.097 452.613 109.917 452.953 110.837C453.293 111.737 453.463 112.667 453.463 113.627C453.463 113.827 453.453 114.057 453.433 114.317C453.413 114.557 453.383 114.807 453.343 115.067H439.753V112.967H452.053L450.973 113.867C451.153 112.767 451.023 111.787 450.583 110.927C450.163 110.047 449.553 109.357 448.753 108.857C447.953 108.337 447.053 108.077 446.053 108.077C445.053 108.077 444.123 108.337 443.263 108.857C442.423 109.377 441.763 110.107 441.283 111.047C440.803 111.967 440.613 113.067 440.713 114.347C440.613 115.627 440.813 116.747 441.313 117.707C441.833 118.647 442.533 119.377 443.413 119.897C444.313 120.417 445.273 120.677 446.293 120.677C447.473 120.677 448.463 120.397 449.263 119.837C450.063 119.277 450.713 118.577 451.213 117.737L453.133 118.757C452.813 119.477 452.323 120.147 451.663 120.767C451.003 121.367 450.213 121.857 449.293 122.237C448.393 122.597 447.393 122.777 446.293 122.777ZM464.69 122.777C463.19 122.777 461.84 122.417 460.64 121.697C459.44 120.957 458.49 119.957 457.79 118.697C457.11 117.417 456.77 115.977 456.77 114.377C456.77 112.757 457.11 111.317 457.79 110.057C458.49 108.797 459.43 107.807 460.61 107.087C461.81 106.347 463.17 105.977 464.69 105.977C466.07 105.977 467.3 106.277 468.38 106.877C469.46 107.477 470.31 108.287 470.93 109.307L470.57 109.937V99.707H472.82V122.417H470.57V118.817L470.93 119.147C470.37 120.307 469.53 121.207 468.41 121.847C467.31 122.467 466.07 122.777 464.69 122.777ZM464.81 120.527C465.89 120.527 466.86 120.257 467.72 119.717C468.6 119.177 469.29 118.447 469.79 117.527C470.31 116.587 470.57 115.537 470.57 114.377C470.57 113.217 470.31 112.177 469.79 111.257C469.29 110.317 468.6 109.577 467.72 109.037C466.86 108.497 465.89 108.227 464.81 108.227C463.75 108.227 462.79 108.497 461.93 109.037C461.07 109.577 460.39 110.307 459.89 111.227C459.41 112.147 459.17 113.197 459.17 114.377C459.17 115.537 459.41 116.587 459.89 117.527C460.39 118.447 461.06 119.177 461.9 119.717C462.76 120.257 463.73 120.527 464.81 120.527Z" fill="#D6D6D6"/>
</svg>
