<svg width="399" height="218" viewBox="0 0 399 218" fill="none" xmlns="http://www.w3.org/2000/svg">
<path d="M29.4124 153.763C29.3237 153.36 29.3237 152.944 29.4124 152.541C29.4992 152.054 29.7747 151.618 30.1817 151.325C30.5887 151.031 31.0959 150.902 31.5976 150.965C31.8906 150.94 32.1857 150.977 32.4625 151.074C32.7394 151.171 32.9916 151.325 33.2018 151.527C33.412 151.728 33.5753 151.971 33.6805 152.239C33.7858 152.508 33.8304 152.795 33.8114 153.082V154.528H39.7658V152.886C39.7658 147.812 35.0806 147 31.7121 147C27.4753 147 24.0114 148.371 23.3721 152.187C23.161 153.224 23.161 154.292 23.3721 155.33C24.4027 160.097 32.9144 161.478 34.1168 164.5C34.2889 165.063 34.2889 165.663 34.1168 166.226C34.0082 166.73 33.7065 167.174 33.2735 167.467C32.8405 167.76 32.3091 167.88 31.7884 167.802C31.4841 167.839 31.1753 167.81 30.8832 167.719C30.5911 167.628 30.3225 167.476 30.0959 167.274C29.8694 167.072 29.6902 166.825 29.5705 166.549C29.4509 166.273 29.3937 165.975 29.4029 165.675V163.427H23V165.218C23 170.433 27.189 172 31.6739 172C35.9871 172 39.5273 170.563 40.0998 166.655C40.3153 165.392 40.3153 164.103 40.0998 162.84C39.1456 157.942 30.0899 156.496 29.4124 153.763ZM107.03 153.819C106.95 153.422 106.95 153.013 107.03 152.616C107.118 152.135 107.393 151.705 107.795 151.415C108.198 151.125 108.699 150.998 109.196 151.058C109.486 151.033 109.778 151.07 110.052 151.166C110.326 151.262 110.576 151.415 110.784 151.615C110.991 151.814 111.152 152.055 111.255 152.322C111.358 152.588 111.401 152.873 111.381 153.157V154.584H117.268V152.961C117.268 147.933 112.66 147.14 109.32 147.14C105.112 147.14 101.686 148.493 101.056 152.28C100.862 153.309 100.881 154.365 101.113 155.386C102.134 160.106 110.532 161.468 111.753 164.453C111.914 165.012 111.914 165.602 111.753 166.16C111.572 166.935 111.037 167.718 109.453 167.718C109.152 167.756 108.847 167.73 108.557 167.641C108.267 167.553 108.001 167.404 107.775 167.206C107.55 167.008 107.371 166.764 107.25 166.492C107.13 166.22 107.071 165.925 107.077 165.629V163.353H100.741V165.134C100.741 170.293 104.873 171.851 109.329 171.851C113.595 171.851 117.116 170.424 117.679 166.571C117.894 165.32 117.894 164.043 117.679 162.793C116.658 157.979 107.707 156.524 107.03 153.819ZM161.22 166.534L155.562 147.746H146.706V170.815H152.565L152.222 151.431L158.291 170.815H166.784V147.746H160.886L161.22 166.534ZM48.6211 147.746L44.203 171.067H50.6536L53.9839 149.472L57.2378 171.067H63.6407L59.2417 147.746H48.6211ZM84.672 147.746L81.6566 165.983L78.6508 147.746H68.9176L68.4023 171.067H74.3662L74.5285 149.472L78.6317 171.067H84.6815L88.7847 149.472L88.9469 171.067H94.9299L94.3956 147.746H84.672ZM140.132 147.746H134.092V165.004C134.109 165.316 134.09 165.629 134.034 165.937C133.893 166.423 133.593 166.85 133.181 167.155C132.768 167.459 132.266 167.624 131.749 167.624C131.232 167.624 130.729 167.459 130.317 167.155C129.905 166.85 129.605 166.423 129.464 165.937C129.405 165.629 129.385 165.316 129.406 165.004V147.746H123.376V164.472C123.376 164.901 123.376 165.787 123.433 166.011C123.853 170.368 127.364 171.785 131.754 171.785C136.143 171.785 139.664 170.368 140.084 166.011C140.133 165.5 140.149 164.986 140.132 164.472V147.746ZM181.574 158.007V161.412H184.017V164.789C184.03 165.102 184.007 165.414 183.95 165.722C183.776 166.219 183.448 166.651 183.011 166.956C182.574 167.262 182.05 167.426 181.512 167.426C180.975 167.426 180.451 167.262 180.013 166.956C179.576 166.651 179.248 166.219 179.074 165.722C179.026 165.413 179.004 165.101 179.007 164.789V154.099C178.998 153.729 179.034 153.36 179.112 152.998C179.271 152.502 179.589 152.068 180.018 151.76C180.447 151.451 180.965 151.285 181.498 151.285C182.03 151.285 182.549 151.451 182.978 151.76C183.407 152.068 183.724 152.502 183.883 152.998C183.933 153.307 183.959 153.619 183.96 153.931V155.228H189.914V154.463C189.943 153.947 189.943 153.43 189.914 152.914C189.466 148.539 185.773 147.149 181.545 147.149C177.318 147.149 173.692 148.549 173.167 152.914C173.167 153.315 173.043 154.034 173.043 154.463V164.267C173.045 164.781 173.076 165.295 173.139 165.806C173.53 170.06 177.309 171.571 181.526 171.571C185.744 171.571 189.523 170.06 189.914 165.806C189.981 165.022 189.99 164.696 190 164.267V158.017L181.574 158.007Z" fill="#BEBEBE"/>
<path fill-rule="evenodd" clip-rule="evenodd" d="M357.058 159.361C357.058 169.257 353.09 171.031 348.656 171.031H339.226V147.691H348.656C353.09 147.691 357.058 149.465 357.058 159.361ZM352.251 159.361C352.251 152.452 350.15 152.125 347.116 152.125H344.175V166.597H347.116C350.15 166.597 352.251 166.27 352.251 159.361ZM302.302 171.031V147.691H317.146V152.125H307.25V156.887H314.719V161.275H307.25V166.597H317.146V171.031H302.302ZM325.457 217.712H330.405V101.01H325.457V217.712ZM366.955 160.668V166.596H371.063C373.63 166.596 374.284 164.916 374.284 163.656C374.284 162.675 373.817 160.668 370.316 160.668H366.955ZM366.955 152.125V156.56H370.316C372.23 156.56 373.35 155.72 373.35 154.319C373.35 152.919 372.23 152.125 370.316 152.125H366.955ZM362.008 147.691H371.531C376.526 147.691 378.02 151.192 378.02 153.713C378.02 156.047 376.526 157.727 375.499 158.194C378.486 159.641 379 162.582 379 164.076C379 166.036 378.02 171.031 371.531 171.031H362.008V147.691ZM273.873 159.361C273.873 169.257 269.905 171.031 265.471 171.031H256.041V147.691H265.471C269.905 147.691 273.873 149.465 273.873 159.361ZM288.437 166.784C290.958 166.784 292.265 165.943 292.732 165.383V162.816H288.717V158.801H296.7V168.091C296 169.164 292.172 171.265 288.671 171.265C282.929 171.265 278.074 169.024 278.074 159.128C278.074 149.231 282.976 147.458 287.41 147.458C294.366 147.458 296.093 151.099 296.653 154.32L292.545 155.253C292.312 153.759 291.005 151.892 288.017 151.892C284.983 151.892 282.882 152.219 282.882 159.128C282.882 166.037 285.076 166.784 288.437 166.784ZM269.065 159.361C269.065 152.452 266.964 152.125 263.93 152.125H260.989V166.597H263.93C266.964 166.597 269.065 166.27 269.065 159.361ZM235.595 171.031V147.691H250.439V152.125H240.543V156.887H248.012V161.275H240.543V166.597H250.439V171.031H235.595Z" fill="#8B8B8F"/>
<line x1="1" y1="147.648" x2="398" y2="147.648" stroke="#46B98F" stroke-width="2" stroke-linecap="round" stroke-dasharray="2 4"/>
<line x1="1" y1="171.648" x2="398" y2="171.648" stroke="#46B98F" stroke-width="2" stroke-linecap="round" stroke-dasharray="2 4"/>
<path fill-rule="evenodd" clip-rule="evenodd" d="M158.959 38.2342L151.888 45.3052L173.808 67.2258L180.879 74.2966L187.95 67.2255L226.185 28.9914L219.114 21.9203L180.879 60.1545L158.959 38.2342Z" fill="#46B98F"/>
</svg>
