<svg width="399" height="167" viewBox="0 0 399 167" fill="none" xmlns="http://www.w3.org/2000/svg">
<path d="M28.4124 148.763C28.3237 148.36 28.3237 147.944 28.4124 147.541C28.4992 147.054 28.7747 146.618 29.1817 146.325C29.5887 146.031 30.0959 145.902 30.5976 145.965C30.8906 145.94 31.1857 145.977 31.4625 146.074C31.7394 146.171 31.9916 146.325 32.2018 146.527C32.412 146.728 32.5753 146.971 32.6805 147.239C32.7858 147.508 32.8304 147.795 32.8114 148.082V149.528H38.7658V147.886C38.7658 142.812 34.0806 142 30.7121 142C26.4753 142 23.0114 143.371 22.3721 147.187C22.161 148.224 22.161 149.292 22.3721 150.33C23.4027 155.097 31.9144 156.478 33.1168 159.5C33.2889 160.063 33.2889 160.663 33.1168 161.226C33.0082 161.73 32.7065 162.174 32.2735 162.467C31.8405 162.76 31.3091 162.88 30.7884 162.802C30.4841 162.839 30.1753 162.81 29.8832 162.719C29.5911 162.628 29.3225 162.476 29.0959 162.274C28.8694 162.072 28.6902 161.825 28.5705 161.549C28.4509 161.273 28.3937 160.975 28.4029 160.675V158.427H22V160.218C22 165.433 26.189 167 30.6739 167C34.9871 167 38.5273 165.563 39.0998 161.655C39.3153 160.392 39.3153 159.103 39.0998 157.84C38.1456 152.942 29.0899 151.496 28.4124 148.763ZM106.03 148.819C105.95 148.422 105.95 148.013 106.03 147.616C106.118 147.135 106.393 146.705 106.795 146.415C107.198 146.125 107.699 145.998 108.196 146.058C108.486 146.033 108.778 146.07 109.052 146.166C109.326 146.262 109.576 146.415 109.784 146.615C109.991 146.814 110.152 147.055 110.255 147.322C110.358 147.588 110.401 147.873 110.381 148.157V149.584H116.268V147.961C116.268 142.933 111.66 142.14 108.32 142.14C104.112 142.14 100.686 143.493 100.056 147.28C99.8616 148.309 99.8811 149.365 100.113 150.386C101.134 155.106 109.532 156.468 110.753 159.453C110.914 160.012 110.914 160.602 110.753 161.16C110.572 161.935 110.037 162.718 108.453 162.718C108.152 162.756 107.847 162.73 107.557 162.641C107.267 162.553 107.001 162.404 106.775 162.206C106.55 162.008 106.371 161.764 106.25 161.492C106.13 161.22 106.071 160.925 106.077 160.629V158.353H99.7412V160.134C99.7412 165.293 103.873 166.851 108.329 166.851C112.595 166.851 116.116 165.424 116.679 161.571C116.894 160.32 116.894 159.043 116.679 157.793C115.658 152.979 106.707 151.524 106.03 148.819ZM160.22 161.534L154.562 142.746H145.706V165.815H151.565L151.222 146.431L157.291 165.815H165.784V142.746H159.886L160.22 161.534ZM47.6211 142.746L43.203 166.067H49.6536L52.9839 144.472L56.2378 166.067H62.6407L58.2417 142.746H47.6211ZM83.672 142.746L80.6566 160.983L77.6508 142.746H67.9176L67.4023 166.067H73.3662L73.5285 144.472L77.6317 166.067H83.6815L87.7847 144.472L87.9469 166.067H93.9299L93.3956 142.746H83.672ZM139.132 142.746H133.092V160.004C133.109 160.316 133.09 160.629 133.034 160.937C132.893 161.423 132.593 161.85 132.181 162.155C131.768 162.459 131.266 162.624 130.749 162.624C130.232 162.624 129.729 162.459 129.317 162.155C128.905 161.85 128.605 161.423 128.464 160.937C128.405 160.629 128.385 160.316 128.406 160.004V142.746H122.376V159.472C122.376 159.901 122.376 160.787 122.433 161.011C122.853 165.368 126.364 166.785 130.754 166.785C135.143 166.785 138.664 165.368 139.084 161.011C139.133 160.5 139.149 159.986 139.132 159.472V142.746ZM180.574 153.007V156.412H183.017V159.789C183.03 160.102 183.007 160.414 182.95 160.722C182.776 161.219 182.448 161.651 182.011 161.956C181.574 162.262 181.05 162.426 180.512 162.426C179.975 162.426 179.451 162.262 179.013 161.956C178.576 161.651 178.248 161.219 178.074 160.722C178.026 160.413 178.004 160.101 178.007 159.789V149.099C177.998 148.729 178.034 148.36 178.112 147.998C178.271 147.502 178.589 147.068 179.018 146.76C179.447 146.451 179.965 146.285 180.498 146.285C181.03 146.285 181.549 146.451 181.978 146.76C182.407 147.068 182.724 147.502 182.883 147.998C182.933 148.307 182.959 148.619 182.96 148.931V150.228H188.914V149.463C188.943 148.947 188.943 148.43 188.914 147.914C188.466 143.539 184.773 142.149 180.545 142.149C176.318 142.149 172.692 143.549 172.167 147.914C172.167 148.315 172.043 149.034 172.043 149.463V159.267C172.045 159.781 172.076 160.295 172.139 160.806C172.53 165.06 176.309 166.571 180.526 166.571C184.744 166.571 188.523 165.06 188.914 160.806C188.981 160.022 188.99 159.696 189 159.267V153.017L180.574 153.007Z" fill="#BEBEBE"/>
<path fill-rule="evenodd" clip-rule="evenodd" d="M317.501 153.713C317.501 155.742 316.687 156.106 315.778 156.106H313.845V151.32H315.778C316.687 151.32 317.501 151.683 317.501 153.713ZM316.515 153.713C316.515 152.296 316.084 152.229 315.462 152.229H314.859V155.196H315.462C316.084 155.196 316.515 155.129 316.515 153.713ZM306.273 156.106V151.32H309.317V152.229H307.288V153.205H308.819V154.105H307.288V155.196H309.317V156.106H306.273ZM311.021 165.678H312.036V141.748H311.021V165.678ZM319.53 153.981V155.196H320.373C320.899 155.196 321.033 154.852 321.033 154.593C321.033 154.392 320.937 153.981 320.22 153.981H319.53ZM319.53 152.229V153.138H320.22C320.612 153.138 320.842 152.966 320.842 152.679C320.842 152.392 320.612 152.229 320.22 152.229H319.53ZM318.516 151.32H320.469C321.493 151.32 321.799 152.037 321.799 152.554C321.799 153.033 321.493 153.378 321.282 153.473C321.895 153.77 322 154.373 322 154.679C322 155.081 321.799 156.106 320.469 156.106H318.516V151.32ZM300.444 153.713C300.444 155.742 299.63 156.106 298.721 156.106H296.787V151.32H298.721C299.63 151.32 300.444 151.683 300.444 153.713ZM303.415 155.274C303.932 155.274 304.2 155.102 304.296 154.987V154.46H303.472V153.637H305.109V155.542C304.966 155.762 304.181 156.193 303.463 156.193C302.286 156.193 301.29 155.733 301.29 153.704C301.29 151.675 302.295 151.311 303.204 151.311C304.631 151.311 304.985 152.058 305.1 152.718L304.257 152.91C304.21 152.603 303.941 152.22 303.329 152.22C302.707 152.22 302.276 152.287 302.276 153.704C302.276 155.121 302.726 155.274 303.415 155.274ZM299.458 153.713C299.458 152.296 299.027 152.229 298.405 152.229H297.802V155.196H298.405C299.027 155.196 299.458 155.129 299.458 153.713ZM292.595 156.106V151.32H295.639V152.229H293.609V153.205H295.141V154.105H293.609V155.196H295.639V156.106H292.595Z" fill="#8B8B8F"/>
<line x1="1" y1="142" x2="398" y2="142" stroke="#46B98F" stroke-width="2" stroke-linecap="round" stroke-dasharray="2 4"/>
<line x1="1" y1="166" x2="398" y2="166" stroke="#46B98F" stroke-width="2" stroke-linecap="round" stroke-dasharray="2 4"/>
<path fill-rule="evenodd" clip-rule="evenodd" d="M184.117 26.1885L191.188 19.1174L210.305 38.2347L229.423 19.1172L236.494 26.1883L217.376 45.3057L236.493 64.4228L229.422 71.4939L210.305 52.3768L191.188 71.4938L184.117 64.4227L203.234 45.3057L184.117 26.1885Z" fill="#C77B80"/>
</svg>
