<svg width="878" height="330" viewBox="0 0 878 330" fill="none" xmlns="http://www.w3.org/2000/svg">
<path fill-rule="evenodd" clip-rule="evenodd" d="M537.702 165.518C537.702 185.148 529.832 188.666 521.035 188.666H502.332V142.37H521.035C529.832 142.37 537.702 145.889 537.702 165.518ZM528.167 165.518C528.167 151.814 524 151.166 517.982 151.166H512.148V179.87H517.982C524 179.87 528.167 179.222 528.167 165.518ZM429.092 188.666V142.37H458.536V151.166H438.907V160.611H453.722V169.314H438.907V179.87H458.536V188.666H429.092ZM475.019 281.259H484.834V49.7778H475.019V281.259ZM557.332 168.111V179.87H565.48C570.573 179.87 571.869 176.537 571.869 174.037C571.869 172.092 570.943 168.111 563.999 168.111H557.332ZM557.332 151.166V159.963H563.999C567.795 159.963 570.017 158.296 570.017 155.518C570.017 152.74 567.795 151.166 563.999 151.166H557.332ZM547.519 142.37H566.407C576.315 142.37 579.278 149.315 579.278 154.315C579.278 158.944 576.315 162.277 574.278 163.203C580.204 166.074 581.222 171.907 581.222 174.87C581.222 178.759 579.278 188.666 566.407 188.666H547.519V142.37ZM372.705 165.518C372.705 185.148 364.834 188.666 356.038 188.666H337.334V142.37H356.038C364.834 142.37 372.705 145.889 372.705 165.518ZM401.593 180.24C406.593 180.24 409.185 178.574 410.111 177.463V172.37H402.148V164.407H417.981V182.833C416.593 184.963 409 189.129 402.056 189.129C390.667 189.129 381.037 184.685 381.037 165.055C381.037 145.426 390.759 141.907 399.556 141.907C413.352 141.907 416.778 149.129 417.889 155.518L409.741 157.37C409.278 154.407 406.685 150.703 400.759 150.703C394.741 150.703 390.574 151.352 390.574 165.055C390.574 178.759 394.926 180.24 401.593 180.24ZM363.166 165.518C363.166 151.814 359 151.166 352.981 151.166H347.148V179.87H352.981C359 179.87 363.166 179.222 363.166 165.518ZM296.778 188.666V142.37H326.222V151.166H306.593V160.611H321.407V169.314H306.593V179.87H326.222V188.666H296.778Z" fill="#8B8B8F"/>
<path fill-rule="evenodd" clip-rule="evenodd" d="M627.518 181.148L581.222 181.148L581.222 151.704L590.018 151.704L590.018 171.333L599.463 171.333L599.463 156.518L608.167 156.518L608.167 171.333L618.722 171.333L618.722 151.704L627.518 151.704L627.518 181.148Z" stroke="#1F8AED" stroke-width="2" stroke-dasharray="2 2"/>
<path fill-rule="evenodd" clip-rule="evenodd" d="M295.667 181.148L249.37 181.148L249.37 151.704L258.167 151.704L258.167 171.333L267.611 171.333L267.611 156.518L276.315 156.518L276.315 171.333L286.87 171.333L286.87 151.704L295.667 151.704L295.667 181.148Z" stroke="#1F8AED" stroke-width="2" stroke-dasharray="2 2"/>
<path fill-rule="evenodd" clip-rule="evenodd" d="M465.074 48.6665V2.37036L494.519 2.37036V11.1666L474.889 11.1666V20.6111L489.704 20.6111V29.3147L474.889 29.3147V39.8703L494.519 39.8703V48.6665L465.074 48.6665Z" stroke="#1F8AED" stroke-width="2" stroke-dasharray="2 2"/>
<path fill-rule="evenodd" clip-rule="evenodd" d="M465.074 328.37V282.074H494.519V290.87H474.889V300.315H489.704V309.018H474.889V319.574H494.519V328.37H465.074Z" stroke="#1F8AED" stroke-width="2" stroke-dasharray="2 2"/>
<rect x="247.5" y="0.5" width="383" height="329" stroke="#1FED33" stroke-dasharray="1 1"/>
<path d="M652.354 166.263C652.354 169.866 651.47 172.605 649.702 174.48C647.935 176.355 645.347 177.293 641.938 177.293C638.579 177.293 636.001 176.351 634.204 174.466C632.417 172.581 631.523 169.837 631.523 166.233C631.523 162.669 632.412 159.949 634.189 158.074C635.977 156.189 638.569 155.247 641.968 155.247C645.376 155.247 647.959 156.18 649.717 158.045C651.475 159.91 652.354 162.649 652.354 166.263ZM637.617 166.263C637.617 170.403 639.058 172.474 641.938 172.474C643.403 172.474 644.487 171.971 645.19 170.965C645.903 169.959 646.26 168.392 646.26 166.263C646.26 164.124 645.898 162.547 645.176 161.531C644.463 160.506 643.394 159.993 641.968 159.993C639.067 159.993 637.617 162.083 637.617 166.263ZM665.669 177H659.883V160.315H654.653V155.584H670.884V160.315H665.669V177ZM692.3 177H686.484V168.27H679.761V177H673.945V155.584H679.761V163.523H686.484V155.584H692.3V177ZM709.658 177H696.943V155.584H709.658V160.228H702.729V163.597H709.146V168.24H702.729V172.283H709.658V177ZM719.194 169.207V177H713.408V155.584H720.425C726.245 155.584 729.155 157.693 729.155 161.912C729.155 164.393 727.944 166.312 725.522 167.669L731.763 177H725.2L720.659 169.207H719.194ZM719.194 164.856H720.278C722.3 164.856 723.311 163.963 723.311 162.176C723.311 160.701 722.319 159.964 720.337 159.964H719.194V164.856ZM754.219 177H741.504V155.584H754.219V160.228H747.29V163.597H753.706V168.24H747.29V172.283H754.219V177ZM757.969 177V155.584H763.755V172.327H772.002V177H757.969ZM788.145 177H775.43V155.584H788.145V160.228H781.216V163.597H787.632V168.24H781.216V172.283H788.145V177ZM801.226 177L796.846 161.575H796.714C796.919 164.202 797.021 166.243 797.021 167.698V177H791.895V155.584H799.6L804.067 170.789H804.185L808.564 155.584H816.284V177H810.967V167.61C810.967 167.122 810.972 166.58 810.981 165.984C811.001 165.389 811.069 163.929 811.187 161.604H811.055L806.733 177H801.226ZM833.613 177H820.898V155.584H833.613V160.228H826.685V163.597H833.101V168.24H826.685V172.283H833.613V177ZM857.754 177H850.166L842.344 161.912H842.212C842.397 164.285 842.49 166.097 842.49 167.347V177H837.363V155.584H844.922L852.715 170.467H852.803C852.666 168.309 852.598 166.575 852.598 165.267V155.584H857.754V177ZM871.831 177H866.045V160.315H860.815V155.584H877.046V160.315H871.831V177Z" fill="#E3E3E3"/>
<path d="M22.3535 166.263C22.3535 169.866 21.4697 172.605 19.7021 174.48C17.9346 176.355 15.3467 177.293 11.9385 177.293C8.5791 177.293 6.00098 176.351 4.2041 174.466C2.41699 172.581 1.52344 169.837 1.52344 166.233C1.52344 162.669 2.41211 159.949 4.18945 158.074C5.97656 156.189 8.56934 155.247 11.9678 155.247C15.376 155.247 17.959 156.18 19.7168 158.045C21.4746 159.91 22.3535 162.649 22.3535 166.263ZM7.61719 166.263C7.61719 170.403 9.05762 172.474 11.9385 172.474C13.4033 172.474 14.4873 171.971 15.1904 170.965C15.9033 169.959 16.2598 168.392 16.2598 166.263C16.2598 164.124 15.8984 162.547 15.1758 161.531C14.4629 160.506 13.3936 159.993 11.9678 159.993C9.06738 159.993 7.61719 162.083 7.61719 166.263ZM35.6689 177H29.8828V160.315H24.6533V155.584H40.8838V160.315H35.6689V177ZM62.2998 177H56.4844V168.27H49.7607V177H43.9453V155.584H49.7607V163.523H56.4844V155.584H62.2998V177ZM79.6582 177H66.9434V155.584H79.6582V160.228H72.7295V163.597H79.1455V168.24H72.7295V172.283H79.6582V177ZM89.1943 169.207V177H83.4082V155.584H90.4248C96.2451 155.584 99.1553 157.693 99.1553 161.912C99.1553 164.393 97.9443 166.312 95.5225 167.669L101.763 177H95.2002L90.6592 169.207H89.1943ZM89.1943 164.856H90.2783C92.2998 164.856 93.3105 163.963 93.3105 162.176C93.3105 160.701 92.3193 159.964 90.3369 159.964H89.1943V164.856ZM124.219 177H111.504V155.584H124.219V160.228H117.29V163.597H123.706V168.24H117.29V172.283H124.219V177ZM127.969 177V155.584H133.755V172.327H142.002V177H127.969ZM158.145 177H145.43V155.584H158.145V160.228H151.216V163.597H157.632V168.24H151.216V172.283H158.145V177ZM171.226 177L166.846 161.575H166.714C166.919 164.202 167.021 166.243 167.021 167.698V177H161.895V155.584H169.6L174.067 170.789H174.185L178.564 155.584H186.284V177H180.967V167.61C180.967 167.122 180.972 166.58 180.981 165.984C181.001 165.389 181.069 163.929 181.187 161.604H181.055L176.733 177H171.226ZM203.613 177H190.898V155.584H203.613V160.228H196.685V163.597H203.101V168.24H196.685V172.283H203.613V177ZM227.754 177H220.166L212.344 161.912H212.212C212.397 164.285 212.49 166.097 212.49 167.347V177H207.363V155.584H214.922L222.715 170.467H222.803C222.666 168.309 222.598 166.575 222.598 165.267V155.584H227.754V177ZM241.831 177H236.045V160.315H230.815V155.584H247.046V160.315H241.831V177Z" fill="#E3E3E3"/>
</svg>
