<svg width="151" height="171" viewBox="0 0 151 171" fill="none" xmlns="http://www.w3.org/2000/svg">
<path fill-rule="evenodd" clip-rule="evenodd" d="M110.377 109.273C114.706 109.273 118.58 107.541 118.58 97.8797C118.58 88.2182 114.706 86.4865 110.377 86.4865H101.171V109.273H110.377ZM108.874 90.8157C111.836 90.8157 113.887 91.1347 113.887 97.8795C113.887 104.624 111.836 104.943 108.874 104.943H106.003V90.8157H108.874Z" fill="#53BF98"/>
<path fill-rule="evenodd" clip-rule="evenodd" d="M65.1235 109.273V86.4865H79.6157V90.8159H69.9543V95.4643H77.2459V99.7481H69.9543V104.943H79.6157V109.273H65.1235Z" fill="#CE3BBF"/>
<path fill-rule="evenodd" clip-rule="evenodd" d="M88 130H93V66H88V130Z" fill="#A64040"/>
<path fill-rule="evenodd" clip-rule="evenodd" d="M123.412 86.4865H132.708C137.585 86.4865 139.043 89.9044 139.043 92.3653C139.043 94.644 137.585 96.2846 136.582 96.7403C139.499 98.1531 140 101.024 140 102.483C140 104.397 139.043 109.273 132.708 109.273H123.412V86.4865ZM128.242 90.8157V95.1452H131.523C133.391 95.1452 134.485 94.3248 134.485 92.9577C134.485 91.5905 133.391 90.8157 131.523 90.8157H128.242ZM128.242 104.943V99.1556H131.523C134.941 99.1556 135.397 101.115 135.397 102.072C135.397 103.303 134.759 104.943 132.252 104.943H128.242Z" fill="#745CB6"/>
<path fill-rule="evenodd" clip-rule="evenodd" d="M51.5886 105.126C54.0495 105.126 55.3256 104.305 55.7813 103.759V101.252H51.862V97.3327H59.655V106.402C58.9714 107.45 55.2344 109.501 51.8165 109.501C46.211 109.501 41.4714 107.313 41.4714 97.6517C41.4714 87.9903 46.2566 86.2585 50.586 86.2585C57.3763 86.2585 59.0625 89.8132 59.6094 92.9577L55.599 93.8692C55.3711 92.4109 54.0951 90.588 51.1784 90.588C48.2162 90.588 46.1654 90.907 46.1654 97.6517C46.1654 104.397 48.3074 105.126 51.5886 105.126Z" fill="#59A040"/>
<path fill-rule="evenodd" clip-rule="evenodd" d="M29.1671 109.273C33.4965 109.273 37.3702 107.541 37.3702 97.8797C37.3702 88.2182 33.4965 86.4865 29.1671 86.4865H19.9614V109.273H29.1671ZM27.6625 90.8157C30.6247 90.8157 32.6755 91.1347 32.6755 97.8795C32.6755 104.624 30.6247 104.943 27.6625 104.943H24.7914V90.8157H27.6625Z" fill="#1F8AED"/>
<path fill-rule="evenodd" clip-rule="evenodd" d="M0 109.273V86.4865H14.4922V90.8159H4.83072V95.4643H12.1224V99.7481H4.83072V104.943H14.4922V109.273H0Z" fill="#C63030"/>
<line x1="149.127" y1="3.03109" x2="2.11752" y2="168.787" stroke="#E1E1E1" stroke-width="3" stroke-linecap="round" stroke-linejoin="round"/>
</svg>
