<svg width="878" height="228" viewBox="0 0 878 228" fill="none" xmlns="http://www.w3.org/2000/svg">
<path fill-rule="evenodd" clip-rule="evenodd" d="M627.518 130.148L581.222 130.148L581.222 100.704L590.018 100.704L590.018 120.333L599.463 120.333L599.463 105.518L608.167 105.518L608.167 120.333L618.722 120.333L618.722 100.704L627.518 100.704L627.518 130.148Z" stroke="#1F8AED" stroke-width="2" stroke-dasharray="2 2"/>
<path fill-rule="evenodd" clip-rule="evenodd" d="M295.667 130.148L249.37 130.148L249.37 100.704L258.167 100.704L258.167 120.333L267.611 120.333L267.611 105.518L276.315 105.518L276.315 120.333L286.87 120.333L286.87 100.704L295.667 100.704L295.667 130.148Z" stroke="#1F8AED" stroke-width="2" stroke-dasharray="2 2"/>
<path fill-rule="evenodd" clip-rule="evenodd" d="M465.074 48.2962V2L494.519 2V10.7963L474.889 10.7963V20.2407L489.704 20.2407V28.9444L474.889 28.9444V39.4999L494.519 39.4999V48.2962L465.074 48.2962Z" stroke="#1F8AED" stroke-width="2" stroke-dasharray="2 2"/>
<path fill-rule="evenodd" clip-rule="evenodd" d="M465.074 226.296V180H494.519V188.796H474.889V198.241H489.704V206.944H474.889V217.5H494.519V226.296H465.074Z" stroke="#1F8AED" stroke-width="2" stroke-dasharray="2 2"/>
<rect x="247.5" y="0.5" width="383" height="227" stroke="#1FED33" stroke-dasharray="1 1"/>
<path d="M652.354 115.263C652.354 118.866 651.47 121.605 649.702 123.48C647.935 125.355 645.347 126.293 641.938 126.293C638.579 126.293 636.001 125.351 634.204 123.466C632.417 121.581 631.523 118.837 631.523 115.233C631.523 111.669 632.412 108.949 634.189 107.074C635.977 105.189 638.569 104.247 641.968 104.247C645.376 104.247 647.959 105.18 649.717 107.045C651.475 108.91 652.354 111.649 652.354 115.263ZM637.617 115.263C637.617 119.403 639.058 121.474 641.938 121.474C643.403 121.474 644.487 120.971 645.19 119.965C645.903 118.959 646.26 117.392 646.26 115.263C646.26 113.124 645.898 111.547 645.176 110.531C644.463 109.506 643.394 108.993 641.968 108.993C639.067 108.993 637.617 111.083 637.617 115.263ZM665.669 126H659.883V109.315H654.653V104.584H670.884V109.315H665.669V126ZM692.3 126H686.484V117.27H679.761V126H673.945V104.584H679.761V112.523H686.484V104.584H692.3V126ZM709.658 126H696.943V104.584H709.658V109.228H702.729V112.597H709.146V117.24H702.729V121.283H709.658V126ZM719.194 118.207V126H713.408V104.584H720.425C726.245 104.584 729.155 106.693 729.155 110.912C729.155 113.393 727.944 115.312 725.522 116.669L731.763 126H725.2L720.659 118.207H719.194ZM719.194 113.856H720.278C722.3 113.856 723.311 112.963 723.311 111.176C723.311 109.701 722.319 108.964 720.337 108.964H719.194V113.856ZM754.219 126H741.504V104.584H754.219V109.228H747.29V112.597H753.706V117.24H747.29V121.283H754.219V126ZM757.969 126V104.584H763.755V121.327H772.002V126H757.969ZM788.145 126H775.43V104.584H788.145V109.228H781.216V112.597H787.632V117.24H781.216V121.283H788.145V126ZM801.226 126L796.846 110.575H796.714C796.919 113.202 797.021 115.243 797.021 116.698V126H791.895V104.584H799.6L804.067 119.789H804.185L808.564 104.584H816.284V126H810.967V116.61C810.967 116.122 810.972 115.58 810.981 114.984C811.001 114.389 811.069 112.929 811.187 110.604H811.055L806.733 126H801.226ZM833.613 126H820.898V104.584H833.613V109.228H826.685V112.597H833.101V117.24H826.685V121.283H833.613V126ZM857.754 126H850.166L842.344 110.912H842.212C842.397 113.285 842.49 115.097 842.49 116.347V126H837.363V104.584H844.922L852.715 119.467H852.803C852.666 117.309 852.598 115.575 852.598 114.267V104.584H857.754V126ZM871.831 126H866.045V109.315H860.815V104.584H877.046V109.315H871.831V126Z" fill="#E3E3E3"/>
<path d="M22.3535 115.263C22.3535 118.866 21.4697 121.605 19.7021 123.48C17.9346 125.355 15.3467 126.293 11.9385 126.293C8.5791 126.293 6.00098 125.351 4.2041 123.466C2.41699 121.581 1.52344 118.837 1.52344 115.233C1.52344 111.669 2.41211 108.949 4.18945 107.074C5.97656 105.189 8.56934 104.247 11.9678 104.247C15.376 104.247 17.959 105.18 19.7168 107.045C21.4746 108.91 22.3535 111.649 22.3535 115.263ZM7.61719 115.263C7.61719 119.403 9.05762 121.474 11.9385 121.474C13.4033 121.474 14.4873 120.971 15.1904 119.965C15.9033 118.959 16.2598 117.392 16.2598 115.263C16.2598 113.124 15.8984 111.547 15.1758 110.531C14.4629 109.506 13.3936 108.993 11.9678 108.993C9.06738 108.993 7.61719 111.083 7.61719 115.263ZM35.6689 126H29.8828V109.315H24.6533V104.584H40.8838V109.315H35.6689V126ZM62.2998 126H56.4844V117.27H49.7607V126H43.9453V104.584H49.7607V112.523H56.4844V104.584H62.2998V126ZM79.6582 126H66.9434V104.584H79.6582V109.228H72.7295V112.597H79.1455V117.24H72.7295V121.283H79.6582V126ZM89.1943 118.207V126H83.4082V104.584H90.4248C96.2451 104.584 99.1553 106.693 99.1553 110.912C99.1553 113.393 97.9443 115.312 95.5225 116.669L101.763 126H95.2002L90.6592 118.207H89.1943ZM89.1943 113.856H90.2783C92.2998 113.856 93.3105 112.963 93.3105 111.176C93.3105 109.701 92.3193 108.964 90.3369 108.964H89.1943V113.856ZM124.219 126H111.504V104.584H124.219V109.228H117.29V112.597H123.706V117.24H117.29V121.283H124.219V126ZM127.969 126V104.584H133.755V121.327H142.002V126H127.969ZM158.145 126H145.43V104.584H158.145V109.228H151.216V112.597H157.632V117.24H151.216V121.283H158.145V126ZM171.226 126L166.846 110.575H166.714C166.919 113.202 167.021 115.243 167.021 116.698V126H161.895V104.584H169.6L174.067 119.789H174.185L178.564 104.584H186.284V126H180.967V116.61C180.967 116.122 180.972 115.58 180.981 114.984C181.001 114.389 181.069 112.929 181.187 110.604H181.055L176.733 126H171.226ZM203.613 126H190.898V104.584H203.613V109.228H196.685V112.597H203.101V117.24H196.685V121.283H203.613V126ZM227.754 126H220.166L212.344 110.912H212.212C212.397 113.285 212.49 115.097 212.49 116.347V126H207.363V104.584H214.922L222.715 119.467H222.803C222.666 117.309 222.598 115.575 222.598 114.267V104.584H227.754V126ZM241.831 126H236.045V109.315H230.815V104.584H247.046V109.315H241.831V126Z" fill="#E3E3E3"/>
<path fill-rule="evenodd" clip-rule="evenodd" d="M539.242 114.371C539.242 134.108 531.329 137.646 522.484 137.646H503.678V91.0962H522.484C531.329 91.0962 539.242 94.634 539.242 114.371V114.371ZM529.654 114.374C529.654 100.595 525.464 99.9432 519.413 99.9432H513.548V128.804H519.413C525.464 128.804 529.654 128.152 529.654 114.374V114.374ZM430.037 137.646V91.0962H459.642V99.9406H439.905V109.437H454.801V118.188H439.905V128.801H459.642V137.646H430.037ZM475.75 180H485.5V50H475.75V180ZM558.978 116.981V128.805H567.171C572.291 128.805 573.595 125.453 573.595 122.939C573.595 120.984 572.664 116.981 565.681 116.981H558.978ZM558.978 99.9432V108.788H565.681C569.498 108.788 571.733 107.112 571.733 104.319C571.733 101.526 569.498 99.9432 565.681 99.9432H558.978ZM549.112 91.0962H568.104C578.066 91.0962 581.045 98.0786 581.045 103.106C581.045 107.761 578.066 111.112 576.018 112.043C581.976 114.929 583 120.795 583 123.774C583 127.684 581.045 137.646 568.104 137.646H549.112V91.0962ZM373.342 114.371C373.342 134.108 365.429 137.646 356.584 137.646H337.778V91.0962H356.584C365.429 91.0962 373.342 94.634 373.342 114.371V114.371ZM402.387 129.178C407.414 129.178 410.021 127.502 410.952 126.385V121.265H402.945V113.258H418.865V131.785C417.469 133.926 409.834 138.115 402.852 138.115C391.401 138.115 381.719 133.647 381.719 113.91C381.719 94.1729 391.494 90.6352 400.338 90.6352C414.21 90.6352 417.655 97.8969 418.772 104.321L410.579 106.183C410.114 103.203 407.507 99.4795 401.549 99.4795C395.497 99.4795 391.308 100.131 391.308 113.91C391.308 127.688 395.683 129.178 402.387 129.178V129.178ZM363.753 114.374C363.753 100.595 359.563 99.9432 353.512 99.9432H347.646V128.804H353.512C359.563 128.804 363.753 128.152 363.753 114.374V114.374ZM297 137.646V91.0962H326.605V99.9406H306.868V109.437H321.764V118.188H306.868V128.801H326.605V137.646H297Z" fill="#8F8F8F"/>
</svg>
