<svg width="156" height="171" viewBox="0 0 156 171" fill="none" xmlns="http://www.w3.org/2000/svg">
<g filter="url(#filter0_di_618_1489)">
<path fill-rule="evenodd" clip-rule="evenodd" d="M126.58 83.5102C126.58 93.1717 122.707 94.9034 118.377 94.9034H109.172V72.117H118.377C122.707 72.117 126.58 73.8488 126.58 83.5102ZM121.887 83.5115C121.887 76.7667 119.836 76.4477 116.874 76.4477H114.003V90.5753H116.874C119.836 90.5753 121.887 90.2563 121.887 83.5115ZM73.123 94.9034V72.117H87.6152V76.4464H77.9537V81.0949H85.2454V85.3787H77.9537V90.574H87.6152V94.9034H73.123ZM95.4998 115.636H100.272V52H95.4998V115.636ZM136.241 84.7879V90.5757H140.251C142.758 90.5757 143.396 88.9351 143.396 87.7046C143.396 86.7476 142.94 84.7879 139.522 84.7879H136.241ZM136.241 76.4477V80.7771H139.522C141.391 80.7771 142.485 79.9568 142.485 78.5897C142.485 77.2225 141.391 76.4477 139.522 76.4477H136.241ZM131.412 72.117H140.708C145.585 72.117 147.043 75.535 147.043 77.9959C147.043 80.2746 145.585 81.9152 144.582 82.3709C147.499 83.7837 148 86.6547 148 88.1131C148 90.0271 147.043 94.9034 140.708 94.9034H131.412V72.117ZM45.3705 83.5102C45.3705 93.1717 41.4968 94.9034 37.1674 94.9034H27.9617V72.117H37.1674C41.4968 72.117 45.3705 73.8488 45.3705 83.5102ZM59.5879 90.7585C62.0488 90.7585 63.3249 89.9382 63.7806 89.3913V86.8848H59.8613V82.9655H67.6543V92.0345C66.9707 93.0827 63.2337 95.1335 59.8158 95.1335C54.2103 95.1335 49.4707 92.946 49.4707 83.2846C49.4707 73.6231 54.2559 71.8914 58.5853 71.8914C65.3756 71.8914 67.0618 75.446 67.6087 78.5906L63.5983 79.502C63.3704 78.0437 62.0944 76.2208 59.1777 76.2208C56.2155 76.2208 54.1647 76.5398 54.1647 83.2846C54.1647 90.0293 56.3066 90.7585 59.5879 90.7585ZM40.676 83.5115C40.676 76.7667 38.6252 76.4477 35.6629 76.4477H32.7919V90.5753H35.6629C38.6252 90.5753 40.676 90.2563 40.676 83.5115ZM8 94.9034V72.117H22.4921V76.4464H12.8307V81.0949H20.1224V85.3787H12.8307V90.574H22.4921V94.9034H8Z" fill="#DFDFDF"/>
</g>
<line x1="153.127" y1="3.03109" x2="6.11752" y2="168.787" stroke="#E1E1E1" stroke-width="3" stroke-linecap="round" stroke-linejoin="round"/>
<defs>
<filter id="filter0_di_618_1489" x="0" y="44" width="156" height="79.6362" filterUnits="userSpaceOnUse" color-interpolation-filters="sRGB">
<feFlood flood-opacity="0" result="BackgroundImageFix"/>
<feColorMatrix in="SourceAlpha" type="matrix" values="0 0 0 0 0 0 0 0 0 0 0 0 0 0 0 0 0 0 127 0" result="hardAlpha"/>
<feOffset/>
<feGaussianBlur stdDeviation="4"/>
<feComposite in2="hardAlpha" operator="out"/>
<feColorMatrix type="matrix" values="0 0 0 0 0 0 0 0 0 0.7505 0 0 0 0 0.9875 0 0 0 1 0"/>
<feBlend mode="normal" in2="BackgroundImageFix" result="effect1_dropShadow_618_1489"/>
<feBlend mode="normal" in="SourceGraphic" in2="effect1_dropShadow_618_1489" result="shape"/>
<feColorMatrix in="SourceAlpha" type="matrix" values="0 0 0 0 0 0 0 0 0 0 0 0 0 0 0 0 0 0 127 0" result="hardAlpha"/>
<feOffset dy="2"/>
<feGaussianBlur stdDeviation="0.5"/>
<feComposite in2="hardAlpha" operator="arithmetic" k2="-1" k3="1"/>
<feColorMatrix type="matrix" values="0 0 0 0 0 0 0 0 0 0 0 0 0 0 0 0 0 0 0.25 0"/>
<feBlend mode="normal" in2="shape" result="effect2_innerShadow_618_1489"/>
</filter>
</defs>
</svg>
