<svg width="399" height="193" viewBox="0 0 399 193" fill="none" xmlns="http://www.w3.org/2000/svg">
<path d="M24.4124 153.763C24.3237 153.36 24.3237 152.944 24.4124 152.541C24.4992 152.054 24.7747 151.618 25.1817 151.325C25.5887 151.031 26.0959 150.902 26.5976 150.965C26.8906 150.94 27.1857 150.977 27.4625 151.074C27.7394 151.171 27.9916 151.325 28.2018 151.527C28.412 151.728 28.5753 151.971 28.6805 152.239C28.7858 152.508 28.8304 152.795 28.8114 153.082V154.528H34.7658V152.886C34.7658 147.812 30.0806 147 26.7121 147C22.4753 147 19.0114 148.371 18.3721 152.187C18.161 153.224 18.161 154.292 18.3721 155.33C19.4027 160.097 27.9144 161.478 29.1168 164.5C29.2889 165.063 29.2889 165.663 29.1168 166.226C29.0082 166.73 28.7065 167.174 28.2735 167.467C27.8405 167.76 27.3091 167.88 26.7884 167.802C26.4841 167.839 26.1753 167.81 25.8832 167.719C25.5911 167.628 25.3225 167.476 25.0959 167.274C24.8694 167.072 24.6902 166.825 24.5705 166.549C24.4509 166.273 24.3937 165.975 24.4029 165.675V163.427H18V165.218C18 170.433 22.189 172 26.6739 172C30.9871 172 34.5273 170.563 35.0998 166.655C35.3153 165.392 35.3153 164.103 35.0998 162.84C34.1456 157.942 25.0899 156.496 24.4124 153.763ZM102.03 153.819C101.95 153.422 101.95 153.013 102.03 152.616C102.118 152.135 102.393 151.705 102.795 151.415C103.198 151.125 103.699 150.998 104.196 151.058C104.486 151.033 104.778 151.07 105.052 151.166C105.326 151.262 105.576 151.415 105.784 151.615C105.991 151.814 106.152 152.055 106.255 152.322C106.358 152.588 106.401 152.873 106.381 153.157V154.584H112.268V152.961C112.268 147.933 107.66 147.14 104.32 147.14C100.112 147.14 96.6859 148.493 96.0561 152.28C95.8616 153.309 95.8811 154.365 96.1133 155.386C97.1344 160.106 105.532 161.468 106.753 164.453C106.914 165.012 106.914 165.602 106.753 166.16C106.572 166.935 106.037 167.718 104.453 167.718C104.152 167.756 103.847 167.73 103.557 167.641C103.267 167.553 103.001 167.404 102.775 167.206C102.55 167.008 102.371 166.764 102.25 166.492C102.13 166.22 102.071 165.925 102.077 165.629V163.353H95.7412V165.134C95.7412 170.293 99.873 171.851 104.329 171.851C108.595 171.851 112.116 170.424 112.679 166.571C112.894 165.32 112.894 164.043 112.679 162.793C111.658 157.979 102.707 156.524 102.03 153.819ZM156.22 166.534L150.562 147.746H141.706V170.815H147.565L147.222 151.431L153.291 170.815H161.784V147.746H155.886L156.22 166.534ZM43.6211 147.746L39.203 171.067H45.6536L48.9839 149.472L52.2378 171.067H58.6407L54.2417 147.746H43.6211ZM79.672 147.746L76.6566 165.983L73.6508 147.746H63.9176L63.4023 171.067H69.3662L69.5285 149.472L73.6317 171.067H79.6815L83.7847 149.472L83.9469 171.067H89.9299L89.3956 147.746H79.672ZM135.132 147.746H129.092V165.004C129.109 165.316 129.09 165.629 129.034 165.937C128.893 166.423 128.593 166.85 128.181 167.155C127.768 167.459 127.266 167.624 126.749 167.624C126.232 167.624 125.729 167.459 125.317 167.155C124.905 166.85 124.605 166.423 124.464 165.937C124.405 165.629 124.385 165.316 124.406 165.004V147.746H118.376V164.472C118.376 164.901 118.376 165.787 118.433 166.011C118.853 170.368 122.364 171.785 126.754 171.785C131.143 171.785 134.664 170.368 135.084 166.011C135.133 165.5 135.149 164.986 135.132 164.472V147.746ZM176.574 158.007V161.412H179.017V164.789C179.03 165.102 179.007 165.414 178.95 165.722C178.776 166.219 178.448 166.651 178.011 166.956C177.574 167.262 177.05 167.426 176.512 167.426C175.975 167.426 175.451 167.262 175.013 166.956C174.576 166.651 174.248 166.219 174.074 165.722C174.026 165.413 174.004 165.101 174.007 164.789V154.099C173.998 153.729 174.034 153.36 174.112 152.998C174.271 152.502 174.589 152.068 175.018 151.76C175.447 151.451 175.965 151.285 176.498 151.285C177.03 151.285 177.549 151.451 177.978 151.76C178.407 152.068 178.724 152.502 178.883 152.998C178.933 153.307 178.959 153.619 178.96 153.931V155.228H184.914V154.463C184.943 153.947 184.943 153.43 184.914 152.914C184.466 148.539 180.773 147.149 176.545 147.149C172.318 147.149 168.692 148.549 168.167 152.914C168.167 153.315 168.043 154.034 168.043 154.463V164.267C168.045 164.781 168.076 165.295 168.139 165.806C168.53 170.06 172.309 171.571 176.526 171.571C180.744 171.571 184.523 170.06 184.914 165.806C184.981 165.022 184.99 164.696 185 164.267V158.017L176.574 158.007Z" fill="#BEBEBE"/>
<path fill-rule="evenodd" clip-rule="evenodd" d="M356.274 159.96C356.274 169.76 352.345 171.516 347.954 171.516H338.617V148.404H347.954C352.345 148.404 356.274 150.161 356.274 159.96ZM351.513 159.962C351.513 153.121 349.433 152.797 346.429 152.797H343.517V167.126H346.429C349.433 167.126 351.513 166.803 351.513 159.962ZM302.053 171.516V148.404H316.753V152.796H306.953V157.511H314.349V161.856H306.953V167.125H316.753V171.516H302.053ZM324.75 192.545H329.591V128H324.75V192.545ZM366.073 161.256V167.127H370.141C372.683 167.127 373.33 165.463 373.33 164.215C373.33 163.244 372.868 161.256 369.401 161.256H366.073ZM366.073 152.797V157.188H369.401C371.296 157.188 372.406 156.356 372.406 154.97C372.406 153.583 371.296 152.797 369.401 152.797H366.073ZM361.175 148.404H370.604C375.55 148.404 377.029 151.871 377.029 154.367C377.029 156.678 375.55 158.343 374.533 158.805C377.492 160.238 378 163.15 378 164.629C378 166.57 377.029 171.516 370.604 171.516H361.175V148.404ZM273.904 159.96C273.904 169.76 269.975 171.516 265.584 171.516H256.247V148.404H265.584C269.975 148.404 273.904 150.161 273.904 159.96ZM288.325 167.312C290.821 167.312 292.115 166.48 292.577 165.925V163.383H288.602V159.408H296.506V168.606C295.813 169.67 292.023 171.75 288.556 171.75C282.87 171.75 278.063 169.531 278.063 159.731C278.063 149.932 282.917 148.175 287.308 148.175C294.195 148.175 295.906 151.781 296.46 154.97L292.393 155.895C292.161 154.416 290.867 152.567 287.909 152.567C284.904 152.567 282.824 152.89 282.824 159.731C282.824 166.573 284.997 167.312 288.325 167.312ZM269.143 159.962C269.143 153.121 267.063 152.797 264.058 152.797H261.146V167.126H264.058C267.063 167.126 269.143 166.803 269.143 159.962ZM236 171.516V148.404H250.699V152.796H240.9V157.511H248.296V161.856H240.9V167.125H250.699V171.516H236Z" fill="#8F8F8F"/>
<line x1="1" y1="147.648" x2="398" y2="147.648" stroke="#0CCB93" stroke-width="2" stroke-linecap="round" stroke-dasharray="2 4"/>
<line x1="1" y1="171.648" x2="398" y2="171.648" stroke="#0CCB93" stroke-width="2" stroke-linecap="round" stroke-dasharray="2 4"/>
<path fill-rule="evenodd" clip-rule="evenodd" d="M158.959 38.2342L151.888 45.3052L173.808 67.2258L180.879 74.2966L187.95 67.2255L226.185 28.9914L219.114 21.9203L180.879 60.1545L158.959 38.2342Z" fill="#0CCB93"/>
</svg>
