<svg width="399" height="167" viewBox="0 0 399 167" fill="none" xmlns="http://www.w3.org/2000/svg">
<path d="M26.4124 148.763C26.3237 148.36 26.3237 147.944 26.4124 147.541C26.4992 147.054 26.7747 146.618 27.1817 146.325C27.5887 146.031 28.0959 145.902 28.5976 145.965C28.8906 145.94 29.1857 145.977 29.4625 146.074C29.7394 146.171 29.9916 146.325 30.2018 146.527C30.412 146.728 30.5753 146.971 30.6805 147.239C30.7858 147.508 30.8304 147.795 30.8114 148.082V149.528H36.7658V147.886C36.7658 142.812 32.0806 142 28.7121 142C24.4753 142 21.0114 143.371 20.3721 147.187C20.161 148.224 20.161 149.292 20.3721 150.33C21.4027 155.097 29.9144 156.478 31.1168 159.5C31.2889 160.063 31.2889 160.663 31.1168 161.226C31.0082 161.73 30.7065 162.174 30.2735 162.467C29.8405 162.76 29.3091 162.88 28.7884 162.802C28.4841 162.839 28.1753 162.81 27.8832 162.719C27.5911 162.628 27.3225 162.476 27.0959 162.274C26.8694 162.072 26.6902 161.825 26.5705 161.549C26.4509 161.273 26.3937 160.975 26.4029 160.675V158.427H20V160.218C20 165.433 24.189 167 28.6739 167C32.9871 167 36.5273 165.563 37.0998 161.655C37.3153 160.392 37.3153 159.103 37.0998 157.84C36.1456 152.942 27.0899 151.496 26.4124 148.763ZM104.03 148.819C103.95 148.422 103.95 148.013 104.03 147.616C104.118 147.135 104.393 146.705 104.795 146.415C105.198 146.125 105.699 145.998 106.196 146.058C106.486 146.033 106.778 146.07 107.052 146.166C107.326 146.262 107.576 146.415 107.784 146.615C107.991 146.814 108.152 147.055 108.255 147.322C108.358 147.588 108.401 147.873 108.381 148.157V149.584H114.268V147.961C114.268 142.933 109.66 142.14 106.32 142.14C102.112 142.14 98.6859 143.493 98.0561 147.28C97.8616 148.309 97.8811 149.365 98.1133 150.386C99.1344 155.106 107.532 156.468 108.753 159.453C108.914 160.012 108.914 160.602 108.753 161.16C108.572 161.935 108.037 162.718 106.453 162.718C106.152 162.756 105.847 162.73 105.557 162.641C105.267 162.553 105.001 162.404 104.775 162.206C104.55 162.008 104.371 161.764 104.25 161.492C104.13 161.22 104.071 160.925 104.077 160.629V158.353H97.7412V160.134C97.7412 165.293 101.873 166.851 106.329 166.851C110.595 166.851 114.116 165.424 114.679 161.571C114.894 160.32 114.894 159.043 114.679 157.793C113.658 152.979 104.707 151.524 104.03 148.819ZM158.22 161.534L152.562 142.746H143.706V165.815H149.565L149.222 146.431L155.291 165.815H163.784V142.746H157.886L158.22 161.534ZM45.6211 142.746L41.203 166.067H47.6536L50.9839 144.472L54.2378 166.067H60.6407L56.2417 142.746H45.6211ZM81.672 142.746L78.6566 160.983L75.6508 142.746H65.9176L65.4023 166.067H71.3662L71.5285 144.472L75.6317 166.067H81.6815L85.7847 144.472L85.9469 166.067H91.9299L91.3956 142.746H81.672ZM137.132 142.746H131.092V160.004C131.109 160.316 131.09 160.629 131.034 160.937C130.893 161.423 130.593 161.85 130.181 162.155C129.768 162.459 129.266 162.624 128.749 162.624C128.232 162.624 127.729 162.459 127.317 162.155C126.905 161.85 126.605 161.423 126.464 160.937C126.405 160.629 126.385 160.316 126.406 160.004V142.746H120.376V159.472C120.376 159.901 120.376 160.787 120.433 161.011C120.853 165.368 124.364 166.785 128.754 166.785C133.143 166.785 136.664 165.368 137.084 161.011C137.133 160.5 137.149 159.986 137.132 159.472V142.746ZM178.574 153.007V156.412H181.017V159.789C181.03 160.102 181.007 160.414 180.95 160.722C180.776 161.219 180.448 161.651 180.011 161.956C179.574 162.262 179.05 162.426 178.512 162.426C177.975 162.426 177.451 162.262 177.013 161.956C176.576 161.651 176.248 161.219 176.074 160.722C176.026 160.413 176.004 160.101 176.007 159.789V149.099C175.998 148.729 176.034 148.36 176.112 147.998C176.271 147.502 176.589 147.068 177.018 146.76C177.447 146.451 177.965 146.285 178.498 146.285C179.03 146.285 179.549 146.451 179.978 146.76C180.407 147.068 180.724 147.502 180.883 147.998C180.933 148.307 180.959 148.619 180.96 148.931V150.228H186.914V149.463C186.943 148.947 186.943 148.43 186.914 147.914C186.466 143.539 182.773 142.149 178.545 142.149C174.318 142.149 170.692 143.549 170.167 147.914C170.167 148.315 170.043 149.034 170.043 149.463V159.267C170.045 159.781 170.076 160.295 170.139 160.806C170.53 165.06 174.309 166.571 178.526 166.571C182.744 166.571 186.523 165.06 186.914 160.806C186.981 160.022 186.99 159.696 187 159.267V153.017L178.574 153.007Z" fill="#BEBEBE"/>
<path fill-rule="evenodd" clip-rule="evenodd" d="M317.501 153.713C317.501 155.742 316.687 156.106 315.778 156.106H313.845V151.32H315.778C316.687 151.32 317.501 151.683 317.501 153.713ZM316.515 153.713C316.515 152.296 316.084 152.229 315.462 152.229H314.859V155.196H315.462C316.084 155.196 316.515 155.129 316.515 153.713ZM306.273 156.106V151.32H309.317V152.229H307.288V153.205H308.819V154.105H307.288V155.196H309.317V156.106H306.273ZM311.021 165.678H312.036V141.748H311.021V165.678ZM319.53 153.981V155.196H320.373C320.899 155.196 321.033 154.852 321.033 154.593C321.033 154.392 320.937 153.981 320.22 153.981H319.53ZM319.53 152.229V153.138H320.22C320.612 153.138 320.842 152.966 320.842 152.679C320.842 152.392 320.612 152.229 320.22 152.229H319.53ZM318.516 151.32H320.469C321.493 151.32 321.799 152.037 321.799 152.554C321.799 153.033 321.493 153.378 321.282 153.473C321.895 153.77 322 154.373 322 154.679C322 155.081 321.799 156.106 320.469 156.106H318.516V151.32ZM300.444 153.713C300.444 155.742 299.63 156.106 298.721 156.106H296.787V151.32H298.721C299.63 151.32 300.444 151.683 300.444 153.713ZM303.415 155.274C303.932 155.274 304.2 155.102 304.296 154.987V154.46H303.472V153.637H305.109V155.542C304.966 155.762 304.181 156.193 303.463 156.193C302.286 156.193 301.29 155.733 301.29 153.704C301.29 151.675 302.295 151.311 303.204 151.311C304.631 151.311 304.985 152.058 305.1 152.718L304.257 152.91C304.21 152.603 303.941 152.22 303.329 152.22C302.707 152.22 302.276 152.287 302.276 153.704C302.276 155.121 302.726 155.274 303.415 155.274ZM299.458 153.713C299.458 152.296 299.027 152.229 298.405 152.229H297.802V155.196H298.405C299.027 155.196 299.458 155.129 299.458 153.713ZM292.595 156.106V151.32H295.639V152.229H293.609V153.205H295.141V154.105H293.609V155.196H295.639V156.106H292.595Z" fill="#8F8F8F"/>
<line x1="1" y1="142" x2="398" y2="142" stroke="#0CCB93" stroke-width="2" stroke-linecap="round" stroke-dasharray="2 4"/>
<line x1="1" y1="166" x2="398" y2="166" stroke="#0CCB93" stroke-width="2" stroke-linecap="round" stroke-dasharray="2 4"/>
<path fill-rule="evenodd" clip-rule="evenodd" d="M184.117 26.1885L191.188 19.1174L210.305 38.2347L229.423 19.1173L236.494 26.1883L217.376 45.3058L236.493 64.4228L229.422 71.4939L210.305 52.3768L191.188 71.4938L184.117 64.4228L203.234 45.3058L184.117 26.1885Z" fill="#C77B80"/>
</svg>
