<svg width="151" height="171" viewBox="0 0 151 171" fill="none" xmlns="http://www.w3.org/2000/svg">
<path fill-rule="evenodd" clip-rule="evenodd" d="M118.58 97.8798C118.58 107.541 114.706 109.273 110.377 109.273H101.171V86.4866H110.377C114.706 86.4866 118.58 88.2183 118.58 97.8798ZM113.887 97.8795C113.887 91.1347 111.836 90.8157 108.874 90.8157H106.003V104.943H108.874C111.836 104.943 113.887 104.624 113.887 97.8795ZM65.1234 109.273V86.4866H79.6156V90.816H69.9541V95.4644H77.2458V99.7483H69.9541V104.944H79.6156V109.273H65.1234ZM88 130H93V66H88V130ZM128.242 99.1558V104.944H132.252C134.758 104.944 135.397 103.303 135.397 102.072C135.397 101.115 134.941 99.1558 131.523 99.1558H128.242ZM128.242 90.8157V95.1451H131.523C133.391 95.1451 134.485 94.3248 134.485 92.9576C134.485 91.5904 133.391 90.8157 131.523 90.8157H128.242ZM123.411 86.4866H132.708C137.585 86.4866 139.043 89.9045 139.043 92.3655C139.043 94.6441 137.585 96.2847 136.582 96.7405C139.499 98.1532 140 101.024 140 102.483C140 104.397 139.043 109.273 132.708 109.273H123.411V86.4866ZM37.3703 97.8798C37.3703 107.541 33.4966 109.273 29.1672 109.273H19.9615V86.4866H29.1672C33.4966 86.4866 37.3703 88.2183 37.3703 97.8798ZM51.5885 105.126C54.0495 105.126 55.3255 104.305 55.7812 103.759V101.252H51.862V97.3327H59.6549V106.402C58.9713 107.45 55.2344 109.501 51.8164 109.501C46.2109 109.501 41.4714 107.313 41.4714 97.6517C41.4714 87.9903 46.2565 86.2585 50.5859 86.2585C57.3763 86.2585 59.0625 89.8132 59.6094 92.9577L55.5989 93.8692C55.3711 92.4109 54.095 90.588 51.1784 90.588C48.2161 90.588 46.1654 90.907 46.1654 97.6517C46.1654 104.397 48.3073 105.126 51.5885 105.126ZM32.6755 97.8795C32.6755 91.1347 30.6248 90.8157 27.6625 90.8157H24.7914V104.943H27.6625C30.6248 104.943 32.6755 104.624 32.6755 97.8795ZM0 109.273V86.4866H14.4922V90.816H4.83072V95.4644H12.1224V99.7483H4.83072V104.944H14.4922V109.273H0Z" fill="url(#paint0_linear_618_1475)"/>
<line x1="149.127" y1="3.03109" x2="2.11752" y2="168.787" stroke="#E1E1E1" stroke-width="3" stroke-linecap="round" stroke-linejoin="round"/>
<defs>
<linearGradient id="paint0_linear_618_1475" x1="152.833" y1="40.9136" x2="-4.03772e-05" y2="171.58" gradientUnits="userSpaceOnUse">
<stop stop-color="#24FF00"/>
<stop offset="1" stop-color="#FF3030"/>
</linearGradient>
</defs>
</svg>
