<svg width="174" height="179" viewBox="0 0 174 179" fill="none" xmlns="http://www.w3.org/2000/svg">
<path d="M60.7651 104.042L50.7578 85.2405H62.7363L64.6316 88.8037H56.6712L58.7182 92.6702H64.7074L66.6027 96.2334H60.6135L62.8879 100.555H70.8483L72.7436 104.118H60.7651V104.042ZM82.7509 94.6413C79.7942 89.107 77.9747 88.8037 75.5487 88.8037H73.1985L79.4151 100.479H81.7654C84.1156 100.479 85.7076 100.176 82.7509 94.6413ZM101.477 100.631C103.524 100.631 104.206 99.9482 104.358 99.4933L103.22 97.4464H100.036L98.2926 94.1864H104.737L108.679 101.692C108.603 102.526 106.405 104.27 103.6 104.27C98.9749 104.27 94.1229 102.45 89.8773 94.4897C85.6318 86.5293 88.816 85.0889 92.3792 85.0889C97.9893 85.0889 100.946 88.0456 102.766 90.6232L99.8847 91.3813C99.0507 90.1683 97.2312 88.6521 94.8052 88.6521C92.3792 88.6521 90.7871 88.8795 93.7438 94.4897C96.7005 100.1 98.8233 100.631 101.477 100.631ZM86.6174 94.6413C90.8629 102.602 88.4369 104.042 84.8737 104.042H77.2924L67.2092 85.2405H74.7906C78.4296 85.2405 82.3719 86.6809 86.6174 94.6413ZM152.499 85.2405H160.156C164.174 85.2405 166.903 88.0456 167.965 90.0925C168.95 91.9878 168.495 93.3525 167.889 93.7315C170.922 94.8687 172.589 97.2948 173.196 98.432C174.03 100.024 175.394 104.042 170.163 104.042H162.506L152.499 85.2405ZM158.337 88.8037L160.232 92.3669H162.961C164.477 92.3669 165.008 91.6846 164.477 90.5474C163.947 89.4102 162.658 88.8037 161.066 88.8037H158.337ZM162.051 95.7027L164.553 100.479H167.889C169.936 100.479 169.784 99.1143 169.254 98.1287C168.799 97.3706 167.586 95.7027 164.781 95.7027H162.051ZM153.409 141.645H157.427L107.39 47.6372H103.372L153.409 141.645ZM114.517 104.042L104.509 85.2405H116.488L118.383 88.8037H110.347L112.394 92.6702H118.383L120.278 96.2334H114.289L116.564 100.555H124.524L126.419 104.118H114.517V104.042ZM149.997 94.6413C147.04 89.107 145.221 88.8037 142.795 88.8037H140.445L146.661 100.479H149.012C151.362 100.479 152.954 100.176 149.997 94.6413ZM153.864 94.6413C158.109 102.602 155.683 104.042 152.12 104.042H144.539L134.531 85.2405H142.113C145.676 85.2405 149.618 86.6809 153.864 94.6413Z" fill="#4D4D4D"/>
<path fill-rule="evenodd" clip-rule="evenodd" d="M37.5664 97.1296C37.5664 110.864 36.3392 113.326 34.9677 113.326H32.0513V80.9336H34.9677C36.3392 80.9336 37.5664 83.3954 37.5664 97.1296ZM36.0797 97.1294C36.0797 87.5414 35.43 87.0879 34.4916 87.0879H33.582V107.171H34.4916C35.43 107.171 36.0797 106.717 36.0797 97.1294ZM20.6314 113.326V80.9336H25.2226V87.0881H22.1618V93.696H24.4718V99.7857H22.1618V107.171H25.2226V113.326H20.6314ZM27.7925 178.109H29.3229V16.1494H27.7925V178.109ZM40.6273 98.9434V107.171H41.8978C42.6918 107.171 42.894 104.839 42.894 103.09C42.894 101.729 42.7496 98.9434 41.6668 98.9434H40.6273ZM40.6273 87.0879V93.2424H41.6668C42.2587 93.2424 42.6052 92.0762 42.6052 90.1327C42.6052 88.1892 42.2587 87.0879 41.6668 87.0879H40.6273ZM39.0972 80.9336H42.0425C43.5873 80.9336 44.0493 85.7924 44.0493 89.2907C44.0493 92.5299 43.5873 94.8621 43.2697 95.51C44.1937 97.5183 44.3525 101.6 44.3525 103.673C44.3525 106.394 44.0493 113.326 42.0425 113.326H39.0972V80.9336ZM11.8391 97.1296C11.8391 110.864 10.6119 113.326 9.24031 113.326H6.32391V80.9336H9.24031C10.6119 80.9336 11.8391 83.3954 11.8391 97.1296ZM16.3434 107.43C17.123 107.43 17.5273 106.264 17.6716 105.486V101.923H16.43V96.3519H18.8988V109.244C18.6823 110.734 17.4984 113.649 16.4156 113.649C14.6397 113.649 13.1382 110.54 13.1382 96.8053C13.1382 83.0712 14.6542 80.6094 16.0257 80.6094C18.1769 80.6094 18.7111 85.6625 18.8844 90.1326L17.6139 91.4283C17.5417 89.3552 17.1374 86.7638 16.2134 86.7638C15.275 86.7638 14.6253 87.2173 14.6253 96.8053C14.6253 106.393 15.3039 107.43 16.3434 107.43ZM10.3517 97.1294C10.3517 87.5414 9.70196 87.0879 8.76351 87.0879H7.85394V107.171H8.76351C9.70196 107.171 10.3517 106.717 10.3517 97.1294ZM0 113.326V80.9336H4.59116V87.0881H1.53039V93.696H3.84041V99.7857H1.53039V107.171H4.59116V113.326H0Z" fill="#4C4C4C"/>
<line x1="156.127" y1="3.03109" x2="9.11752" y2="168.787" stroke="#E1E1E1" stroke-width="3" stroke-linecap="round" stroke-linejoin="round"/>
</svg>
