<?xml version="1.0" standalone="no"?>
<!DOCTYPE svg PUBLIC "-//W3C//DTD SVG 20010904//EN"
 "http://www.w3.org/TR/2001/REC-SVG-20010904/DTD/svg10.dtd">
<svg version="1.0" xmlns="http://www.w3.org/2000/svg"
 width="128.000000pt" height="128.000000pt" viewBox="0 0 128.000000 128.000000"
 preserveAspectRatio="xMidYMid meet">
<metadata>
Created by potrace 1.14, written by Peter Selinger 2001-2017
</metadata>
<g transform="translate(0.000000,128.000000) scale(0.100000,-0.100000)"
fill="#000000" stroke="none">
<path d="M0 640 l0 -640 210 0 210 0 0 640 0 640 -210 0 -210 0 0 -640z m310
140 l0 -30 -70 0 -70 0 0 -35 0 -35 50 0 c49 0 50 -1 50 -30 0 -29 -1 -30 -50
-30 l-50 0 0 -40 0 -40 70 0 70 0 0 -30 0 -30 -105 0 -105 0 0 165 0 165 105
0 105 0 0 -30z"/>
<path d="M490 640 l0 -640 395 0 395 0 0 640 0 640 -395 0 -395 0 0 -640z
m315 160 c43 -16 68 -88 63 -176 -8 -121 -35 -144 -169 -144 l-79 0 0 165 0
165 79 0 c44 0 91 -4 106 -10z m328 -10 c33 -26 41 -63 22 -100 -15 -28 -14
-32 6 -59 17 -23 20 -38 16 -67 -11 -65 -34 -78 -142 -82 l-95 -4 0 166 0 166
84 0 c68 0 88 -4 109 -20z"/>
<path d="M690 645 l0 -105 35 0 c56 0 75 27 75 105 0 78 -19 105 -75 105 l-35
0 0 -105z"/>
<path d="M1010 715 c0 -31 3 -35 26 -35 33 0 64 17 64 35 0 18 -31 35 -64 35
-23 0 -26 -4 -26 -35z"/>
<path d="M1010 585 l0 -45 38 0 c44 0 62 14 62 47 0 25 -31 43 -76 43 -22 0
-24 -4 -24 -45z"/>
</g>
</svg>
