<svg width="276" height="168" viewBox="0 0 276 168" fill="none" xmlns="http://www.w3.org/2000/svg">
<path fill-rule="evenodd" clip-rule="evenodd" d="M187 0H276V168H128V148H158V119H128V89H158V59H187V0ZM181.125 6.17578H163.875V23.4699H181.125V6.17578ZM186.053 30.8828H158.946V58.0593H186.053V30.8828ZM135.536 7.41016H150.322V22.2337H135.536V7.41016ZM154.017 33.3516H131.839V55.5869H154.017V33.3516ZM104.732 35.8242H121.982V53.1183H104.732V35.8242ZM154.017 63H131.839V85.2353H154.017V63ZM105.964 66.707H120.75V81.5306H105.964V66.707ZM89.9464 67.9414H77.625V80.2943H89.9464V67.9414ZM80.0889 40.7656H87.4817V48.1774H80.0889V40.7656ZM60.3749 42H55.4463V46.9412H60.3749V42ZM130.607 121.059H155.25V145.764H130.607V121.059ZM125.678 91.4102H101.035V116.116H125.678V91.4102ZM103.5 123.531H123.214V143.296H103.5V123.531ZM76.3926 96.3516H91.1783V111.175H76.3926V96.3516ZM126.911 150.707H99.8037V168.001H126.911V150.707ZM75.1611 124.766H92.4111V142.06H75.1611V124.766ZM62.8396 98.8242H52.9824V108.707H62.8396V98.8242ZM76.3926 156.883H91.1783V168H76.3926V156.883ZM65.3033 126H50.5176V140.824H65.3033V126ZM28.3389 129.707H35.7317V137.119H28.3389V129.707ZM67.768 153.176H48.0537V167.999H67.768V153.176ZM25.875 156.883H38.1964V168H25.875V156.883ZM7.39286 163.059H0V168H7.39286V163.059Z" fill="#f1f1f1"/>
</svg>
