<svg width="325" height="301" viewBox="0 0 325 301" fill="none" xmlns="http://www.w3.org/2000/svg">
<rect y="219" width="88" height="40" fill="#EAEAEA"/>
<path d="M33.3291 278.989C33.3291 280.644 32.9189 281.915 32.0986 282.804C31.2783 283.692 30.1025 284.137 28.5713 284.137C27.04 284.137 25.8643 283.692 25.0439 282.804C24.2236 281.915 23.8135 280.639 23.8135 278.976C23.8135 277.312 24.2236 276.043 25.0439 275.168C25.8688 274.288 27.0492 273.849 28.585 273.849C30.1208 273.849 31.2943 274.291 32.1055 275.175C32.9212 276.059 33.3291 277.33 33.3291 278.989ZM26.0352 278.989C26.0352 280.106 26.2471 280.947 26.6709 281.512C27.0947 282.077 27.7282 282.359 28.5713 282.359C30.262 282.359 31.1074 281.236 31.1074 278.989C31.1074 276.738 30.2666 275.612 28.585 275.612C27.7419 275.612 27.1061 275.897 26.6777 276.467C26.2493 277.032 26.0352 277.873 26.0352 278.989Z" fill="#585858"/>
<path d="M37.5195 278.442H38.2031C38.873 278.442 39.3675 278.331 39.6865 278.107C40.0055 277.884 40.165 277.533 40.165 277.055C40.165 276.581 40.001 276.243 39.6729 276.043C39.3493 275.842 38.8457 275.742 38.1621 275.742H37.5195V278.442ZM37.5195 280.165V284H35.4004V274.006H38.3125C39.6706 274.006 40.6755 274.254 41.3271 274.751C41.9788 275.243 42.3047 275.993 42.3047 277C42.3047 277.588 42.1429 278.112 41.8193 278.572C41.4958 279.028 41.0378 279.386 40.4453 279.646C41.9492 281.892 42.929 283.344 43.3848 284H41.0332L38.6475 280.165H37.5195Z" fill="#585858"/>
<path d="M48.874 284L46.4678 276.159H46.4062C46.4928 277.754 46.5361 278.818 46.5361 279.352V284H44.6426V274.006H47.5273L49.8926 281.648H49.9336L52.4424 274.006H55.3271V284H53.3516V279.27C53.3516 279.046 53.3538 278.789 53.3584 278.497C53.3675 278.205 53.3994 277.431 53.4541 276.173H53.3926L50.8154 284H48.874Z" fill="#585858"/>
<path d="M63.0176 281.73C63.0176 282.514 62.7441 283.111 62.1973 283.521C61.6549 283.932 60.8415 284.137 59.7568 284.137C59.2008 284.137 58.7269 284.098 58.335 284.021C57.943 283.948 57.5762 283.838 57.2344 283.692V281.97C57.6217 282.152 58.057 282.305 58.54 282.428C59.0277 282.551 59.4561 282.612 59.8252 282.612C60.5817 282.612 60.96 282.394 60.96 281.956C60.96 281.792 60.9098 281.66 60.8096 281.56C60.7093 281.455 60.5361 281.339 60.29 281.211C60.0439 281.079 59.7158 280.926 59.3057 280.753C58.7178 280.507 58.2848 280.279 58.0068 280.069C57.7334 279.86 57.5329 279.62 57.4053 279.352C57.2822 279.078 57.2207 278.743 57.2207 278.347C57.2207 277.668 57.4827 277.144 58.0068 276.774C58.5355 276.401 59.2829 276.214 60.249 276.214C61.1696 276.214 62.0651 276.414 62.9355 276.815L62.3066 278.319C61.9238 278.155 61.5661 278.021 61.2334 277.916C60.9007 277.811 60.5612 277.759 60.2148 277.759C59.5996 277.759 59.292 277.925 59.292 278.258C59.292 278.445 59.39 278.606 59.5859 278.743C59.7865 278.88 60.2217 279.083 60.8916 279.352C61.4886 279.593 61.9261 279.819 62.2041 280.028C62.4821 280.238 62.6872 280.479 62.8193 280.753C62.9515 281.026 63.0176 281.352 63.0176 281.73Z" fill="#585858"/>
<line x1="28" y1="199.671" x2="60.826" y2="199.671" stroke="black" stroke-dasharray="1 2"/>
<line x1="28" y1="237.446" x2="60.826" y2="237.446" stroke="black" stroke-dasharray="1 2"/>
<line x1="44.5" y1="200" x2="44.5" y2="237" stroke="black" stroke-dasharray="1 2"/>
<rect x="104" y="87" width="88" height="172" fill="#EAEAEA"/>
<path d="M131.039 281.225C131.039 282.127 130.713 282.838 130.062 283.357C129.414 283.877 128.512 284.137 127.354 284.137C126.288 284.137 125.345 283.936 124.524 283.535V281.566C125.199 281.867 125.769 282.079 126.233 282.202C126.703 282.325 127.131 282.387 127.519 282.387C127.983 282.387 128.339 282.298 128.585 282.12C128.836 281.942 128.961 281.678 128.961 281.327C128.961 281.131 128.906 280.958 128.797 280.808C128.688 280.653 128.526 280.505 128.312 280.363C128.102 280.222 127.671 279.996 127.02 279.687C126.409 279.399 125.951 279.124 125.646 278.859C125.34 278.595 125.096 278.287 124.914 277.937C124.732 277.586 124.641 277.175 124.641 276.706C124.641 275.822 124.939 275.127 125.536 274.621C126.138 274.115 126.967 273.862 128.024 273.862C128.544 273.862 129.038 273.924 129.508 274.047C129.982 274.17 130.476 274.343 130.991 274.566L130.308 276.214C129.774 275.995 129.332 275.842 128.981 275.756C128.635 275.669 128.293 275.626 127.956 275.626C127.555 275.626 127.247 275.719 127.033 275.906C126.819 276.093 126.712 276.337 126.712 276.638C126.712 276.825 126.755 276.989 126.842 277.13C126.928 277.267 127.065 277.401 127.252 277.533C127.443 277.661 127.892 277.893 128.599 278.23C129.533 278.677 130.173 279.126 130.52 279.577C130.866 280.024 131.039 280.573 131.039 281.225Z" fill="#585858"/>
<path d="M141.922 278.989C141.922 280.165 141.712 281.152 141.293 281.949C140.878 282.742 140.268 283.323 139.461 283.692L141.867 286.379H139.153L137.321 284.137H137.164C135.633 284.137 134.457 283.692 133.637 282.804C132.816 281.915 132.406 280.639 132.406 278.976C132.406 277.312 132.816 276.043 133.637 275.168C134.462 274.288 135.642 273.849 137.178 273.849C138.714 273.849 139.887 274.291 140.698 275.175C141.514 276.059 141.922 277.33 141.922 278.989ZM134.628 278.989C134.628 280.106 134.84 280.947 135.264 281.512C135.688 282.077 136.321 282.359 137.164 282.359C138.855 282.359 139.7 281.236 139.7 278.989C139.7 276.738 138.859 275.612 137.178 275.612C136.335 275.612 135.699 275.897 135.271 276.467C134.842 277.032 134.628 277.873 134.628 278.989Z" fill="#585858"/>
<path d="M143.993 284V274.006H146.112V282.25H150.166V284H143.993Z" fill="#585858"/>
<path d="M159.634 276.214C160.536 276.214 161.243 276.567 161.753 277.273C162.263 277.975 162.519 278.939 162.519 280.165C162.519 281.427 162.254 282.405 161.726 283.098C161.201 283.79 160.486 284.137 159.579 284.137C158.681 284.137 157.977 283.811 157.467 283.159H157.323L156.975 284H155.382V273.363H157.467V275.838C157.467 276.152 157.439 276.656 157.385 277.349H157.467C157.954 276.592 158.677 276.214 159.634 276.214ZM158.964 277.882C158.449 277.882 158.073 278.041 157.836 278.36C157.599 278.675 157.476 279.197 157.467 279.926V280.151C157.467 280.972 157.588 281.56 157.829 281.915C158.075 282.271 158.463 282.448 158.991 282.448C159.42 282.448 159.759 282.252 160.01 281.86C160.265 281.464 160.393 280.89 160.393 280.138C160.393 279.386 160.265 278.823 160.01 278.449C159.755 278.071 159.406 277.882 158.964 277.882Z" fill="#585858"/>
<path d="M163.147 276.357H165.431L166.873 280.657C166.996 281.031 167.08 281.473 167.126 281.983H167.167C167.217 281.514 167.315 281.072 167.461 280.657L168.876 276.357H171.111L167.878 284.978C167.582 285.775 167.158 286.372 166.606 286.769C166.06 287.165 165.419 287.363 164.686 287.363C164.326 287.363 163.972 287.325 163.626 287.247V285.593C163.877 285.652 164.15 285.682 164.446 285.682C164.815 285.682 165.137 285.568 165.41 285.34C165.688 285.117 165.905 284.777 166.06 284.321L166.183 283.945L163.147 276.357Z" fill="#585858"/>
<path d="M137.786 300H135.701V295.536C135.701 294.433 135.291 293.882 134.471 293.882C133.887 293.882 133.466 294.08 133.206 294.477C132.946 294.873 132.816 295.516 132.816 296.404V300H130.731V289.363H132.816V291.53C132.816 291.699 132.8 292.095 132.769 292.72L132.721 293.335H132.83C133.295 292.588 134.033 292.214 135.045 292.214C135.943 292.214 136.624 292.455 137.089 292.938C137.554 293.422 137.786 294.114 137.786 295.017V300Z" fill="#585858"/>
<path d="M144.786 300L144.383 298.961H144.328C143.977 299.403 143.615 299.711 143.241 299.884C142.872 300.052 142.389 300.137 141.792 300.137C141.058 300.137 140.479 299.927 140.056 299.508C139.636 299.089 139.427 298.492 139.427 297.717C139.427 296.906 139.709 296.309 140.274 295.926C140.844 295.538 141.701 295.324 142.845 295.283L144.171 295.242V294.907C144.171 294.132 143.774 293.745 142.981 293.745C142.371 293.745 141.653 293.93 140.828 294.299L140.138 292.891C141.017 292.43 141.993 292.2 143.063 292.2C144.089 292.2 144.875 292.424 145.422 292.87C145.969 293.317 146.242 293.996 146.242 294.907V300H144.786ZM144.171 296.459L143.364 296.486C142.758 296.505 142.307 296.614 142.011 296.814C141.715 297.015 141.566 297.32 141.566 297.73C141.566 298.318 141.904 298.612 142.578 298.612C143.061 298.612 143.446 298.473 143.733 298.195C144.025 297.917 144.171 297.548 144.171 297.088V296.459Z" fill="#585858"/>
<path d="M155.45 300H153.365V295.536C153.365 294.985 153.267 294.572 153.071 294.299C152.875 294.021 152.563 293.882 152.135 293.882C151.551 293.882 151.13 294.078 150.87 294.47C150.61 294.857 150.48 295.502 150.48 296.404V300H148.396V292.357H149.988L150.269 293.335H150.385C150.617 292.966 150.936 292.688 151.342 292.501C151.752 292.31 152.217 292.214 152.736 292.214C153.625 292.214 154.299 292.455 154.76 292.938C155.22 293.417 155.45 294.11 155.45 295.017V300Z" fill="#585858"/>
<path d="M160.017 300.137C159.119 300.137 158.412 299.788 157.897 299.091C157.387 298.394 157.132 297.427 157.132 296.192C157.132 294.939 157.392 293.964 157.911 293.267C158.435 292.565 159.155 292.214 160.071 292.214C161.033 292.214 161.767 292.588 162.272 293.335H162.341C162.236 292.765 162.184 292.257 162.184 291.811V289.363H164.275V300H162.676L162.272 299.009H162.184C161.71 299.761 160.987 300.137 160.017 300.137ZM160.748 298.476C161.281 298.476 161.671 298.321 161.917 298.011C162.168 297.701 162.304 297.174 162.327 296.432V296.206C162.327 295.386 162.2 294.798 161.944 294.442C161.694 294.087 161.284 293.909 160.714 293.909C160.249 293.909 159.887 294.107 159.627 294.504C159.372 294.896 159.244 295.468 159.244 296.22C159.244 296.972 159.374 297.537 159.634 297.915C159.894 298.289 160.265 298.476 160.748 298.476Z" fill="#585858"/>
<line x1="132" y1="1.40137" x2="164.826" y2="1.40137" stroke="black" stroke-dasharray="1 2"/>
<line x1="132" y1="172.671" x2="164.826" y2="172.671" stroke="black" stroke-dasharray="1 2"/>
<line x1="148.469" y1="1" x2="148.469" y2="173.17" stroke="black" stroke-dasharray="1 2"/>
<rect x="208" y="58" width="88" height="201" fill="#1F8AED"/>
<path d="M232.182 284H226.426V274.006H232.182V275.742H228.545V277.937H231.929V279.673H228.545V282.25H232.182V284Z" fill="#585858"/>
<path d="M236.529 284.137C235.632 284.137 234.925 283.788 234.41 283.091C233.9 282.394 233.645 281.427 233.645 280.192C233.645 278.939 233.904 277.964 234.424 277.267C234.948 276.565 235.668 276.214 236.584 276.214C237.546 276.214 238.279 276.588 238.785 277.335H238.854C238.749 276.765 238.696 276.257 238.696 275.811V273.363H240.788V284H239.188L238.785 283.009H238.696C238.222 283.761 237.5 284.137 236.529 284.137ZM237.261 282.476C237.794 282.476 238.184 282.321 238.43 282.011C238.68 281.701 238.817 281.174 238.84 280.432V280.206C238.84 279.386 238.712 278.798 238.457 278.442C238.206 278.087 237.796 277.909 237.227 277.909C236.762 277.909 236.399 278.107 236.14 278.504C235.884 278.896 235.757 279.468 235.757 280.22C235.757 280.972 235.887 281.537 236.146 281.915C236.406 282.289 236.778 282.476 237.261 282.476Z" fill="#585858"/>
<path d="M249.62 276.357V277.417L248.424 277.725C248.643 278.066 248.752 278.449 248.752 278.873C248.752 279.693 248.465 280.334 247.891 280.794C247.321 281.25 246.528 281.478 245.512 281.478L245.136 281.457L244.828 281.423C244.614 281.587 244.507 281.769 244.507 281.97C244.507 282.271 244.89 282.421 245.655 282.421H246.954C247.793 282.421 248.431 282.601 248.868 282.961C249.31 283.321 249.531 283.85 249.531 284.547C249.531 285.44 249.158 286.133 248.41 286.625C247.667 287.117 246.599 287.363 245.204 287.363C244.138 287.363 243.322 287.176 242.757 286.803C242.196 286.434 241.916 285.914 241.916 285.244C241.916 284.784 242.06 284.399 242.347 284.089C242.634 283.779 243.055 283.558 243.611 283.426C243.397 283.335 243.21 283.187 243.051 282.981C242.891 282.772 242.812 282.551 242.812 282.318C242.812 282.027 242.896 281.785 243.064 281.594C243.233 281.398 243.477 281.206 243.796 281.02C243.395 280.846 243.076 280.568 242.839 280.186C242.606 279.803 242.49 279.352 242.49 278.832C242.49 277.998 242.761 277.353 243.304 276.897C243.846 276.442 244.621 276.214 245.628 276.214C245.842 276.214 246.095 276.234 246.387 276.275C246.683 276.312 246.872 276.339 246.954 276.357H249.62ZM243.721 285.08C243.721 285.367 243.857 285.593 244.131 285.757C244.409 285.921 244.796 286.003 245.293 286.003C246.04 286.003 246.626 285.9 247.05 285.695C247.474 285.49 247.686 285.21 247.686 284.854C247.686 284.567 247.56 284.369 247.31 284.26C247.059 284.15 246.672 284.096 246.147 284.096H245.067C244.685 284.096 244.363 284.185 244.104 284.362C243.848 284.545 243.721 284.784 243.721 285.08ZM244.479 278.859C244.479 279.274 244.573 279.602 244.76 279.844C244.951 280.085 245.241 280.206 245.628 280.206C246.02 280.206 246.307 280.085 246.489 279.844C246.672 279.602 246.763 279.274 246.763 278.859C246.763 277.939 246.384 277.479 245.628 277.479C244.862 277.479 244.479 277.939 244.479 278.859Z" fill="#585858"/>
<path d="M254.05 277.697C253.608 277.697 253.261 277.839 253.011 278.121C252.76 278.399 252.617 278.796 252.58 279.311H255.506C255.497 278.796 255.362 278.399 255.103 278.121C254.843 277.839 254.492 277.697 254.05 277.697ZM254.344 284.137C253.113 284.137 252.152 283.797 251.459 283.118C250.766 282.439 250.42 281.478 250.42 280.233C250.42 278.953 250.739 277.964 251.377 277.267C252.02 276.565 252.906 276.214 254.036 276.214C255.116 276.214 255.957 276.521 256.559 277.137C257.16 277.752 257.461 278.602 257.461 279.687V280.698H252.532C252.555 281.291 252.73 281.753 253.059 282.086C253.387 282.419 253.847 282.585 254.439 282.585C254.9 282.585 255.335 282.537 255.745 282.441C256.155 282.346 256.584 282.193 257.03 281.983V283.597C256.666 283.779 256.276 283.913 255.861 284C255.447 284.091 254.941 284.137 254.344 284.137Z" fill="#585858"/>
<path d="M267.612 278.907C267.612 280.552 267.143 281.812 266.204 282.688C265.27 283.562 263.919 284 262.15 284H259.32V274.006H262.458C264.09 274.006 265.356 274.437 266.259 275.298C267.161 276.159 267.612 277.362 267.612 278.907ZM265.411 278.962C265.411 276.815 264.463 275.742 262.567 275.742H261.439V282.25H262.349C264.39 282.25 265.411 281.154 265.411 278.962Z" fill="#585858"/>
<path d="M269.684 274.006H272.794C274.211 274.006 275.239 274.209 275.877 274.614C276.52 275.015 276.841 275.656 276.841 276.535C276.841 277.132 276.7 277.622 276.417 278.005C276.139 278.388 275.768 278.618 275.303 278.695V278.764C275.936 278.905 276.392 279.169 276.67 279.557C276.952 279.944 277.094 280.459 277.094 281.102C277.094 282.013 276.763 282.724 276.103 283.234C275.446 283.745 274.553 284 273.423 284H269.684V274.006ZM271.803 277.964H273.033C273.607 277.964 274.022 277.875 274.277 277.697C274.537 277.52 274.667 277.226 274.667 276.815C274.667 276.433 274.526 276.159 274.243 275.995C273.965 275.826 273.523 275.742 272.917 275.742H271.803V277.964ZM271.803 279.646V282.25H273.184C273.767 282.25 274.198 282.138 274.476 281.915C274.754 281.692 274.893 281.35 274.893 280.89C274.893 280.06 274.3 279.646 273.115 279.646H271.803Z" fill="#585858"/>
<path d="M315.989 249.808C317.201 249.808 318.222 250.04 319.052 250.505C319.881 250.965 320.465 251.637 320.802 252.521L323.379 250.129L323.379 252.33L321.137 254.217L321.137 254.483C321.137 255.992 320.69 257.152 319.797 257.963C318.899 258.77 317.625 259.173 315.976 259.173C314.326 259.173 313.059 258.767 312.175 257.956C311.291 257.14 310.849 255.978 310.849 254.47C310.849 252.984 311.298 251.836 312.195 251.024C313.093 250.213 314.358 249.808 315.989 249.808ZM315.989 257.437C317.22 257.437 318.154 257.188 318.792 256.691C319.425 256.195 319.742 255.459 319.742 254.483C319.742 253.513 319.428 252.781 318.799 252.289C318.17 251.792 317.233 251.544 315.989 251.544C314.763 251.544 313.834 251.79 313.2 252.282C312.567 252.77 312.25 253.499 312.25 254.47C312.25 255.45 312.567 256.19 313.2 256.691C313.834 257.188 314.763 257.437 315.989 257.437Z" fill="#7D7D7D"/>
<path d="M321 242.5L320.009 242.726L320.009 242.808C320.36 243.031 320.635 243.35 320.836 243.765C321.036 244.175 321.137 244.644 321.137 245.173C321.137 246.089 320.909 246.772 320.453 247.224C319.997 247.675 319.307 247.9 318.382 247.9L313.439 247.9L313.439 246.28L318.102 246.28C318.68 246.28 319.116 246.162 319.407 245.925C319.694 245.688 319.838 245.316 319.838 244.811C319.838 244.136 319.637 243.642 319.236 243.327C318.831 243.008 318.154 242.849 317.206 242.849L313.439 242.849L313.439 241.235L321 241.235L321 242.5Z" fill="#7D7D7D"/>
<path d="M321.137 235.644C321.137 236.819 320.795 237.74 320.111 238.405C319.423 239.066 318.478 239.396 317.274 239.396C316.039 239.396 315.069 239.089 314.362 238.474C313.656 237.858 313.303 237.013 313.303 235.937C313.303 234.939 313.606 234.151 314.212 233.572C314.818 232.993 315.652 232.704 316.714 232.704L317.582 232.704L317.582 237.742C318.316 237.719 318.881 237.521 319.277 237.147C319.669 236.774 319.865 236.247 319.865 235.568C319.865 235.122 319.824 234.707 319.742 234.324C319.656 233.937 319.514 233.522 319.318 233.08L320.624 233.08C320.811 233.472 320.943 233.868 321.021 234.27C321.098 234.671 321.137 235.129 321.137 235.644ZM314.52 235.937C314.52 236.448 314.681 236.858 315.005 237.168C315.328 237.473 315.8 237.656 316.42 237.715L316.42 234.283C315.796 234.292 315.324 234.443 315.005 234.734C314.681 235.026 314.52 235.427 314.52 235.937Z" fill="#7D7D7D"/>
<path d="M313.303 227.044C313.303 226.72 313.326 226.454 313.371 226.244L314.868 226.401C314.813 226.629 314.786 226.866 314.786 227.112C314.786 227.755 314.996 228.277 315.415 228.678C315.834 229.074 316.379 229.272 317.049 229.272L321 229.272L321 230.879L313.439 230.879L313.439 229.621L314.772 229.409L314.772 229.327C314.321 229.076 313.964 228.751 313.699 228.35C313.435 227.944 313.303 227.509 313.303 227.044Z" fill="#7D7D7D"/>
<path d="M321 223.229L321 224.836L313.439 224.836L313.439 223.229L321 223.229ZM311.437 224.932C311.149 224.932 310.928 224.854 310.773 224.699C310.618 224.54 310.541 224.314 310.541 224.022C310.541 223.74 310.618 223.521 310.773 223.366C310.928 223.207 311.149 223.127 311.437 223.127C311.71 223.127 311.926 223.207 312.086 223.366C312.241 223.521 312.318 223.74 312.318 224.022C312.318 224.314 312.241 224.54 312.086 224.699C311.926 224.854 311.71 224.932 311.437 224.932Z" fill="#7D7D7D"/>
<path d="M321.137 217.624C321.137 218.8 320.795 219.72 320.111 220.386C319.423 221.047 318.478 221.377 317.274 221.377C316.039 221.377 315.069 221.069 314.362 220.454C313.656 219.839 313.303 218.993 313.303 217.918C313.303 216.92 313.606 216.132 314.212 215.553C314.818 214.974 315.652 214.685 316.714 214.685L317.582 214.685L317.582 219.723C318.316 219.7 318.881 219.502 319.277 219.128C319.669 218.754 319.865 218.228 319.865 217.549C319.865 217.102 319.824 216.687 319.742 216.305C319.656 215.917 319.514 215.503 319.318 215.061L320.624 215.061C320.811 215.452 320.943 215.849 321.021 216.25C321.098 216.651 321.137 217.109 321.137 217.624ZM314.52 217.918C314.52 218.428 314.681 218.839 315.005 219.148C315.328 219.454 315.8 219.636 316.42 219.695L316.42 216.264C315.796 216.273 315.324 216.423 315.005 216.715C314.681 217.007 314.52 217.408 314.52 217.918Z" fill="#7D7D7D"/>
<path d="M318.847 207.78C319.585 207.78 320.152 208.049 320.549 208.587C320.941 209.125 321.137 209.895 321.137 210.897C321.137 211.905 320.984 212.714 320.679 213.324L319.291 213.324C319.701 212.436 319.906 211.608 319.906 210.843C319.906 209.854 319.608 209.359 319.011 209.359C318.819 209.359 318.66 209.414 318.532 209.523C318.405 209.633 318.272 209.813 318.136 210.063C317.999 210.314 317.844 210.663 317.671 211.109C317.334 211.98 316.996 212.57 316.659 212.88C316.322 213.185 315.884 213.338 315.347 213.338C314.7 213.338 314.198 213.078 313.843 212.559C313.483 212.035 313.303 211.324 313.303 210.426C313.303 209.537 313.483 208.696 313.843 207.903L315.053 208.423C314.715 209.239 314.547 209.924 314.547 210.48C314.547 211.328 314.788 211.752 315.271 211.752C315.508 211.752 315.709 211.643 315.873 211.424C316.037 211.201 316.263 210.717 316.55 209.975C316.791 209.35 317.012 208.897 317.213 208.614C317.413 208.332 317.646 208.122 317.91 207.985C318.17 207.849 318.482 207.78 318.847 207.78Z" fill="#7D7D7D"/>
<path d="M321.137 198.565C321.137 199.522 320.793 200.265 320.104 200.794L320.104 200.89C320.743 200.826 321.13 200.794 321.267 200.794L324.363 200.794L324.363 202.4L313.439 202.4L313.439 201.102C313.581 201.065 313.918 200.99 314.451 200.876L314.451 200.794C313.686 200.293 313.303 199.541 313.303 198.538C313.303 197.595 313.645 196.861 314.328 196.337C315.012 195.808 315.971 195.544 317.206 195.544C318.441 195.544 319.405 195.813 320.098 196.351C320.79 196.884 321.137 197.622 321.137 198.565ZM314.615 198.955C314.615 199.593 314.802 200.06 315.176 200.356C315.549 200.648 316.146 200.794 316.967 200.794L317.206 200.794C318.127 200.794 318.794 200.648 319.209 200.356C319.619 200.065 319.824 199.589 319.824 198.928C319.824 198.372 319.596 197.943 319.141 197.643C318.685 197.342 318.035 197.191 317.192 197.191C316.345 197.191 315.704 197.342 315.271 197.643C314.834 197.939 314.615 198.376 314.615 198.955Z" fill="#7D7D7D"/>
<path d="M321.137 190.376C321.137 191.552 320.795 192.472 320.111 193.138C319.423 193.799 318.478 194.129 317.274 194.129C316.039 194.129 315.069 193.821 314.362 193.206C313.656 192.591 313.303 191.745 313.303 190.67C313.303 189.672 313.606 188.883 314.212 188.305C314.818 187.726 315.652 187.437 316.714 187.437L317.582 187.437L317.582 192.475C318.316 192.452 318.881 192.254 319.277 191.88C319.669 191.506 319.865 190.98 319.865 190.301C319.865 189.854 319.824 189.439 319.742 189.057C319.656 188.669 319.514 188.255 319.318 187.812L320.624 187.812C320.811 188.204 320.943 188.601 321.021 189.002C321.098 189.403 321.137 189.861 321.137 190.376ZM314.52 190.67C314.52 191.18 314.681 191.59 315.005 191.9C315.328 192.206 315.8 192.388 316.42 192.447L316.42 189.016C315.796 189.025 315.324 189.175 315.005 189.467C314.681 189.758 314.52 190.16 314.52 190.67Z" fill="#7D7D7D"/>
<path d="M313.303 181.776C313.303 181.453 313.326 181.186 313.371 180.977L314.868 181.134C314.813 181.362 314.786 181.599 314.786 181.845C314.786 182.487 314.996 183.009 315.415 183.41C315.834 183.807 316.379 184.005 317.049 184.005L321 184.005L321 185.611L313.439 185.611L313.439 184.354L314.772 184.142L314.772 184.06C314.321 183.809 313.964 183.483 313.699 183.082C313.435 182.676 313.303 182.241 313.303 181.776Z" fill="#7D7D7D"/>
<path d="M318.847 170.853C319.585 170.853 320.152 171.121 320.549 171.659C320.941 172.197 321.137 172.967 321.137 173.97C321.137 174.977 320.984 175.786 320.679 176.396L319.291 176.396C319.701 175.508 319.906 174.681 319.906 173.915C319.906 172.926 319.608 172.432 319.011 172.432C318.819 172.432 318.66 172.486 318.532 172.596C318.405 172.705 318.272 172.885 318.136 173.136C317.999 173.386 317.844 173.735 317.671 174.182C317.334 175.052 316.996 175.642 316.659 175.952C316.322 176.257 315.884 176.41 315.347 176.41C314.7 176.41 314.198 176.15 313.843 175.631C313.483 175.107 313.303 174.396 313.303 173.498C313.303 172.609 313.483 171.769 313.843 170.976L315.053 171.495C314.715 172.311 314.547 172.997 314.547 173.553C314.547 174.4 314.788 174.824 315.271 174.824C315.508 174.824 315.709 174.715 315.873 174.496C316.037 174.273 316.263 173.79 316.55 173.047C316.791 172.423 317.012 171.969 317.213 171.687C317.413 171.404 317.646 171.194 317.91 171.058C318.17 170.921 318.482 170.853 318.847 170.853Z" fill="#7D7D7D"/>
<path d="M321.137 165.808C321.137 166.983 320.795 167.904 320.111 168.569C319.423 169.23 318.478 169.561 317.274 169.561C316.039 169.561 315.069 169.253 314.362 168.638C313.656 168.022 313.303 167.177 313.303 166.102C313.303 165.104 313.606 164.315 314.212 163.736C314.818 163.158 315.652 162.868 316.714 162.868L317.582 162.868L317.582 167.906C318.316 167.883 318.881 167.685 319.277 167.312C319.669 166.938 319.865 166.411 319.865 165.732C319.865 165.286 319.824 164.871 319.742 164.488C319.656 164.101 319.514 163.686 319.318 163.244L320.624 163.244C320.811 163.636 320.943 164.033 321.021 164.434C321.098 164.835 321.137 165.293 321.137 165.808ZM314.52 166.102C314.52 166.612 314.681 167.022 315.005 167.332C315.328 167.637 315.8 167.82 316.42 167.879L316.42 164.447C315.796 164.456 315.324 164.607 315.005 164.898C314.681 165.19 314.52 165.591 314.52 166.102Z" fill="#7D7D7D"/>
<path d="M321.137 157.994C321.137 159.138 320.804 160.008 320.139 160.605C319.469 161.198 318.509 161.494 317.261 161.494C315.989 161.494 315.012 161.184 314.328 160.564C313.645 159.94 313.303 159.04 313.303 157.864C313.303 157.067 313.451 156.349 313.747 155.711L315.039 156.196C314.775 156.875 314.643 157.436 314.643 157.878C314.643 159.186 315.511 159.84 317.247 159.84C318.095 159.84 318.733 159.678 319.161 159.354C319.585 159.026 319.797 158.548 319.797 157.919C319.797 157.203 319.619 156.527 319.264 155.889L320.665 155.889C320.834 156.176 320.954 156.483 321.027 156.812C321.1 157.135 321.137 157.529 321.137 157.994Z" fill="#7D7D7D"/>
<path d="M317.206 147.405C318.441 147.405 319.405 147.722 320.098 148.355C320.79 148.989 321.137 149.871 321.137 151.001C321.137 151.707 320.977 152.332 320.658 152.874C320.339 153.416 319.881 153.833 319.284 154.125C318.687 154.417 317.994 154.562 317.206 154.562C315.98 154.562 315.023 154.248 314.335 153.619C313.647 152.99 313.303 152.104 313.303 150.96C313.303 149.866 313.656 149 314.362 148.362C315.064 147.724 316.012 147.405 317.206 147.405ZM317.206 152.908C318.951 152.908 319.824 152.263 319.824 150.974C319.824 149.698 318.951 149.06 317.206 149.06C315.479 149.06 314.615 149.702 314.615 150.987C314.615 151.662 314.839 152.152 315.285 152.457C315.732 152.758 316.372 152.908 317.206 152.908Z" fill="#7D7D7D"/>
<path d="M321 138.901L321 140.515L316.352 140.515C315.768 140.515 315.333 140.633 315.046 140.87C314.759 141.103 314.615 141.474 314.615 141.984C314.615 142.663 314.816 143.16 315.217 143.475C315.618 143.789 316.29 143.946 317.233 143.946L321 143.946L321 145.553L313.439 145.553L313.439 144.295L314.431 144.069L314.431 143.987C314.071 143.759 313.793 143.436 313.597 143.017C313.401 142.597 313.303 142.132 313.303 141.622C313.303 139.808 314.226 138.901 316.071 138.901L321 138.901Z" fill="#7D7D7D"/>
<path d="M321.137 134.116C321.137 135.06 320.795 135.796 320.111 136.324C319.428 136.853 318.468 137.117 317.233 137.117C315.994 137.117 315.03 136.851 314.342 136.317C313.649 135.78 313.303 135.037 313.303 134.089C313.303 133.095 313.67 132.339 314.403 131.819L314.403 131.737C313.861 131.815 313.433 131.854 313.118 131.854L310.363 131.854L310.363 130.24L321 130.24L321 131.498L320.009 131.778L320.009 131.854C320.761 132.368 321.137 133.123 321.137 134.116ZM319.838 133.686C319.838 133.025 319.653 132.544 319.284 132.243C318.91 131.942 318.307 131.787 317.473 131.778L317.247 131.778C316.295 131.778 315.618 131.933 315.217 132.243C314.816 132.553 314.615 133.038 314.615 133.699C314.615 134.264 314.845 134.7 315.306 135.005C315.761 135.31 316.413 135.463 317.261 135.463C318.099 135.463 318.74 135.315 319.182 135.019C319.619 134.722 319.838 134.278 319.838 133.686Z" fill="#7D7D7D"/>
<line x1="236" y1="15.1196" x2="268.826" y2="15.1196" stroke="black" stroke-dasharray="1 2"/>
<line x1="236" y1="100.262" x2="268.826" y2="100.262" stroke="black" stroke-dasharray="1 2"/>
<line x1="252.47" y1="15.6196" x2="252.47" y2="99" stroke="black" stroke-dasharray="1 2"/>
</svg>
